%FSLAX24Y24*%
%MOIN*%
G70*
G01*
G75*
%ADD10C,0.0080*%
%ADD11R,0.0300X0.0300*%
%ADD12R,0.0300X0.0220*%
%ADD13R,0.0440X0.0120*%
%ADD14O,0.0190X0.1100*%
%ADD15R,0.0190X0.1100*%
%ADD16R,0.0220X0.0300*%
%ADD17R,0.0120X0.0440*%
%ADD18O,0.0440X0.0120*%
%ADD19R,0.0500X0.0250*%
%ADD20R,0.0360X0.0360*%
%ADD21O,0.0200X0.0500*%
%ADD22R,0.0200X0.0500*%
%ADD23R,0.1600X0.0600*%
%ADD24R,0.1460X0.1460*%
%ADD25R,0.0500X0.0500*%
%ADD26R,0.0830X0.2250*%
%ADD27R,0.0345X0.0500*%
%ADD28R,0.0630X0.0670*%
%ADD29O,0.0160X0.0530*%
%ADD30R,0.0160X0.0530*%
%ADD31R,0.0390X0.0350*%
%ADD32R,0.0220X0.0670*%
%ADD33O,0.0354X0.0787*%
%ADD34R,0.1968X0.1968*%
%ADD35R,0.0354X0.0787*%
%ADD36R,0.0280X0.0100*%
%ADD37R,0.0100X0.0510*%
%ADD38O,0.0100X0.0510*%
%ADD39R,0.0870X0.0870*%
%ADD40O,0.0200X0.0100*%
%ADD41R,0.0200X0.0100*%
%ADD42R,0.0100X0.0200*%
%ADD43C,0.0061*%
%ADD44C,0.0075*%
%ADD45C,0.0120*%
%ADD46C,0.0100*%
%ADD47C,0.0220*%
%ADD48C,0.0200*%
%ADD49C,0.0600*%
%ADD50C,0.0300*%
%ADD51C,0.0360*%
%ADD52C,0.0900*%
%ADD53C,0.0250*%
%ADD54C,0.0150*%
%ADD55C,0.0400*%
%ADD56C,0.0800*%
%ADD57C,0.2500*%
%ADD58C,0.0170*%
%ADD59R,0.0420X0.0420*%
%ADD60C,0.0420*%
%ADD61C,0.0650*%
%ADD62C,0.0620*%
%ADD63C,0.0600*%
%ADD64R,0.0600X0.0600*%
%ADD65R,0.0620X0.0620*%
%ADD66C,0.1200*%
%ADD67C,0.0500*%
%ADD68C,0.0510*%
%ADD69C,0.0390*%
%ADD70R,0.0900X0.0900*%
%ADD71C,0.0900*%
%ADD72C,0.0520*%
%ADD73C,0.0960*%
%ADD74C,0.1000*%
%ADD75C,0.0850*%
%ADD76C,0.0450*%
%ADD77C,0.0220*%
%ADD78C,0.0350*%
%ADD79C,0.0410*%
%ADD80C,0.0860*%
%ADD81O,0.0100X0.0600*%
%ADD82R,0.0100X0.0600*%
%ADD83R,0.3500X0.1380*%
%ADD84C,0.0630*%
%ADD85C,0.0700*%
%ADD86C,0.0340*%
%ADD87C,0.0730*%
%ADD88C,0.0500*%
%ADD89C,0.1900*%
%ADD90C,0.0160*%
%ADD91C,0.0040*%
%ADD92C,0.0050*%
%ADD93C,0.0070*%
%ADD94C,0.0030*%
D12*
X95317Y89741D02*
D03*
Y90311D02*
D03*
X95818Y82210D02*
D03*
Y82780D02*
D03*
X91088Y85570D02*
D03*
Y85000D02*
D03*
X90998Y88400D02*
D03*
Y87830D02*
D03*
X94018Y84130D02*
D03*
Y83560D02*
D03*
X94618Y83530D02*
D03*
Y84100D02*
D03*
X94118Y89630D02*
D03*
Y89060D02*
D03*
X94718Y89080D02*
D03*
Y89650D02*
D03*
X95818Y83710D02*
D03*
X95818Y83140D02*
D03*
X95218Y84080D02*
D03*
X95218Y83510D02*
D03*
D16*
X80338Y89930D02*
D03*
X80908D02*
D03*
X80368Y84930D02*
D03*
X80938D02*
D03*
X80368Y88450D02*
D03*
X80938D02*
D03*
X80928Y86420D02*
D03*
X80358D02*
D03*
X93268Y91470D02*
D03*
X92698D02*
D03*
X94188D02*
D03*
X93618D02*
D03*
X92368Y84630D02*
D03*
X91798D02*
D03*
X91948Y89030D02*
D03*
X92518Y89030D02*
D03*
X96118Y84530D02*
D03*
X96688D02*
D03*
X93718Y89280D02*
D03*
X93148D02*
D03*
X93018Y88730D02*
D03*
X93588D02*
D03*
X92958Y84780D02*
D03*
X93528Y84780D02*
D03*
D27*
X93653Y90020D02*
D03*
X92838D02*
D03*
X93653Y90770D02*
D03*
X92838D02*
D03*
X93523Y84080D02*
D03*
X92708Y84080D02*
D03*
X93523Y83340D02*
D03*
X92708D02*
D03*
D28*
X84858Y92210D02*
D03*
X86398D02*
D03*
D54*
X88657Y91021D02*
X88318Y90682D01*
X87950Y91050D01*
X88289Y91389D01*
X88657Y91021D01*
X88480D02*
X88318Y90859D01*
X88127Y91050D01*
X88289Y91212D01*
X88480Y91021D01*
X88314Y91032D02*
X88293Y91039D01*
X89746Y92110D02*
X89407Y91771D01*
X89039Y92139D01*
X89378Y92478D01*
X89746Y92110D01*
X89569D02*
X89407Y91948D01*
X89216Y92139D01*
X89378Y92301D01*
X89569Y92110D01*
X89403Y92121D02*
X89382Y92128D01*
D81*
X94182Y88070D02*
D03*
X92015D02*
D03*
X92212D02*
D03*
X92409D02*
D03*
X92606Y88070D02*
D03*
X92803D02*
D03*
X93000D02*
D03*
X93197D02*
D03*
X93394Y88070D02*
D03*
X93591D02*
D03*
X93788D02*
D03*
X93985D02*
D03*
X94379Y88070D02*
D03*
X94576Y88070D02*
D03*
X94773D02*
D03*
X94970Y88070D02*
D03*
X95167D02*
D03*
X95364D02*
D03*
X95561D02*
D03*
X95758Y88070D02*
D03*
X95955D02*
D03*
X96152D02*
D03*
X96349D02*
D03*
X91818Y85390D02*
D03*
X92015D02*
D03*
X92212Y85390D02*
D03*
X92409Y85390D02*
D03*
X92606D02*
D03*
X92803D02*
D03*
X93000D02*
D03*
X93197D02*
D03*
X93394D02*
D03*
X93591D02*
D03*
X93788D02*
D03*
X93985D02*
D03*
X94182Y85390D02*
D03*
X94379D02*
D03*
X94576D02*
D03*
X94773D02*
D03*
X94970D02*
D03*
X95167D02*
D03*
X95364D02*
D03*
X95561D02*
D03*
X95758Y85390D02*
D03*
X95955D02*
D03*
X96152D02*
D03*
X96349D02*
D03*
D82*
X91818Y88070D02*
D03*
D83*
X94088Y86720D02*
D03*
M02*
