M72
M48
T1F00S00C0.012
T2F00S00C0.020
T3F00S00C0.025
T4F00S00C0.028
T5F00S00C0.035
T6F00S00C0.036
T7F00S00C0.041
T8F00S00C0.042
T9F00S00C0.046
T10F00S00C0.060
T11F00S00C0.064
T12F00S00C0.076
T13F00S00C0.086
T14F00S00C0.100
%
T01
X04727Y02205
Y02239
X04872Y0208
X04874Y02501
X04859Y02955
X04779Y02927
X04774Y02983
X04717Y02967
X04805Y03028
X0481Y0309
X0469Y03092
X04668Y03059
X04428Y02969
X04378Y02984
X04328Y02982
X04179Y02924
X03805Y02902
X03777
X03751Y02903
X03727
X03699Y02834
X03645Y02833
X03589Y02855
X0354Y0286
X03508Y02859
X03482Y02791
X03423Y02829
X03446Y02892
X03437Y02959
X03442Y03015
X03402Y03054
X03358Y03019
X0332Y03063
X03253Y03011
X03184Y03055
X03138
X03134Y03119
X03529Y0305
X03549Y03027
X03548Y02995
X03589Y02793
X03892Y02808
X04096Y02463
X04004Y02349
X03925Y02252
X03909Y02093
Y02004
X04088Y02106
X04293Y02077
X04253Y02231
X04254Y02261
X04369Y0245
X04384Y02557
X04564Y02491
X0457Y02099
X03361Y02237
X02804Y02253
X02803Y02108
X02771Y02077
X02565Y02066
X02086Y02079
X02721Y02461
X02756Y02496
X02886Y02776
X02993
X03067Y02806
X03081Y02869
X03079Y02904
X03081Y02936
X03084Y02968
X03083Y03
X03081Y03028
Y03064
X02979Y03084
X02983Y03113
X02847Y03097
Y03043
X02792Y03044
X02791Y03097
X02724Y02991
X02714Y02926
X02846Y02897
X0284Y02839
X03117Y02836
X0253Y02935
X02459
X02439Y02995
X02502Y03023
X0243Y03235
Y03257
Y03278
X02397Y03382
X02416Y03441
Y03471
Y03501
X02431Y03617
Y03637
Y03657
X02309Y03572
X02205Y03479
X02208Y03867
X02463Y03868
X02529Y03828
X02635Y03827
X02646Y03887
X02572Y0396
X02584Y04007
X02614Y04044
X02765Y04024
X02778Y0398
X02724Y0418
X02693
X02665
X03122Y04118
X03088Y04013
X03079Y03867
X03063Y03851
X02973Y03639
Y03618
Y03596
X02814Y03615
Y03641
Y03667
X02587Y03591
Y03569
Y03548
Y03416
Y03395
Y03374
X02815Y03314
Y03291
Y03269
X02972Y03254
Y03234
Y03213
X02942Y03156
X02915Y0317
X03048Y03336
Y03359
Y03383
Y0341
Y03434
X03008Y03401
X0316Y03486
Y03516
X03252Y03463
X0328
Y03435
X03252
Y03406
X0328
Y03378
X03252
Y03349
X0328
X0331
Y03378
Y03406
Y03435
Y03463
X03341
Y03435
Y03406
Y03378
Y03349
X03371
Y03378
Y03406
Y03435
Y03463
X03402
Y03435
Y03406
Y03378
Y03349
X03433
Y03378
Y03406
Y03435
Y03463
X03463
X03491
Y03435
X03463
Y03406
X03491
Y03378
X03463
Y03349
X03491
X03522Y03348
Y03377
Y03405
Y03434
Y03462
X03553Y03463
X0358
Y03435
X03553
Y03406
X0358
Y03378
X03553
Y03349
X0358
X03617Y03346
X0364
X03641Y03323
X03617
Y03369
Y03392
X03641
Y03369
X03665Y0338
Y03356
Y03334
X03664Y03311
X03665Y03404
Y03427
Y03451
X03664Y03475
Y03504
X03641Y03487
X03618
Y03463
X03641
Y03439
X03618
Y03415
X03641
X03662Y03585
X03621Y036
X03564Y03624
X03538Y03642
X03576Y03708
X03583Y03772
X03499Y03773
X03412Y03786
Y03811
Y03759
Y03731
X03249Y03716
X0325Y03796
X03197Y03783
X03228Y04004
X03251
Y04037
X03298Y04019
X03286Y04118
X03262
X03404Y04162
X03464Y04168
X03484Y04136
X03567Y04176
X03568Y04236
X03706
X03768Y0412
X03775Y04059
X03803Y03949
X03647Y03964
X03608Y03959
X03551
X03487
X03445Y04051
X03318Y0392
X03632Y03671
X03688Y03664
X03719Y03668
X03761
X03802
X03838
X03869Y03603
X03903Y03632
X03927Y0366
X03932Y03587
X0397Y03583
X03961Y03558
X0399Y036
X04015
X04038Y03596
X04064Y036
X04098Y03612
X04128Y03593
X04217Y03613
X04328Y03594
X04378
X04428
X04363Y03642
X04299Y03712
X04173
X0409Y0378
X0407Y03851
X0401Y03837
X03997Y03805
X03916Y03804
X03818Y03763
X0402Y03696
X04009Y03912
X03975
X03951
X0404Y03909
X04057Y03934
X04035Y0396
X04139
X04154Y03916
X04182Y03934
X04183Y04
X04233Y03997
X04368Y04107
X04509Y03864
X04542Y03897
X04586Y0348
X04618Y0346
X04657Y03428
X04685Y03399
X04637Y03322
X04602Y03321
Y03284
X04637Y03285
X04638Y03246
X0464Y03213
X04605Y03212
X04603Y03245
X04565
X04567Y03212
X04529Y03213
X04527Y03246
X04491Y03248
X04493Y03215
Y03175
X04529Y03173
X04567Y03172
X04605
X0464Y03173
X04564Y03284
Y03321
X04526Y03322
Y03285
X0449Y03287
Y03324
X03674Y03226
X03317Y03168
Y03142
X03902Y04115
X03939Y04087
X03983Y04037
X0472Y03887
X0483Y03899
X04869Y03847
X04874Y03802
X04881Y03747
X04871Y03709
X04859Y03618
X04784Y03664
X04706Y0363
X04789Y03483
X04839Y0345
X04868Y03477
X04815Y03389
X04818Y03332
X04812Y03259
Y03194
X0469Y0322
X04695Y03256
X04693Y03292
X0469Y03344
Y03168
X04688Y03136
X05072Y03598
X05137Y03697
X05136Y03749
X05229Y03839
X0531
X05405Y03847
X05421Y03656
X05372Y04037
X04783Y04182
T02
X04375Y02171
Y02282
X04486
Y02171
T03
X02601Y02864
X02798
T04
X04715Y0255
X04765
X04752Y02749
X04802
X04852
X04902
X04702
X04665Y0255
X04615
X04565
X0452Y02028
X0447
X0442
X0437
X0432
X0274Y03885
X0254
X0487Y04046
Y04096
Y04146
Y04196
X05183Y03238
X05233
X05283
X05333
T05
X02561Y02758
X02837
X02821Y04131
X02921
X02964Y04199
X03063
X02866
X04355Y04157
X0439Y0396
X04588Y03838
X04716Y04157
T06
X0238Y02789
X0238Y02889
X0238Y02989
T07
X04532Y0396
Y04157
T08
X04834Y02191
X04834Y02289
Y02388
X05405Y02388
X05405Y02191
X05401Y02749
X05401Y02849
X05401Y02949
X04613Y02758
X04513
X04413
X04313
X04213
X04113
X04013
X03996Y02542
X03896
X03796
X03621Y02419
X03441
X03441Y02159
X03621Y02159
X04004Y02159
X04184Y02159
Y02419
X04196Y02542
X04096Y02542
X04004Y02419
X03061Y0242
X02881Y0242
X02881Y0216
X03061Y0216
X02615Y02193
Y02291
X02615Y02389
X02045Y02389
X02045Y02193
X02346Y03218
Y03318
X02346Y03418
Y03518
X03669Y03728
X03769Y03728
X03869Y03728
X03969
X04069
X04063Y04219
X03963
X03863Y04219
X03763Y04219
X03512Y0422
X03412
X03312
X04163Y04219
X04263Y04219
X04563Y03658
X04663
X05169Y03619
X05269
X05369
X05401Y04223
X05301
X05201
X05101Y04223
T09
X02277Y02789
Y02989
T10
X02169Y03226
Y03376
X0217Y03578
Y03728
X02548Y04104
X02698
T11
X02387Y03927
X023Y04057
X02387Y04184
T12
X02087Y03917
X02092Y04201
T13
X02137Y04057
T14
X0513Y02068
Y0251
X0232Y02512
Y0207
M30
