%FSLAX24Y24*%
%MOIN*%
G70*
G01*
G75*
%ADD10C,0.0080*%
%ADD11R,0.0300X0.0300*%
%ADD12R,0.0300X0.0220*%
%ADD13R,0.0440X0.0120*%
%ADD14O,0.0190X0.1100*%
%ADD15R,0.0190X0.1100*%
%ADD16R,0.0220X0.0300*%
%ADD17R,0.0120X0.0440*%
%ADD18O,0.0440X0.0120*%
%ADD19R,0.0500X0.0250*%
%ADD20R,0.0360X0.0360*%
%ADD21O,0.0200X0.0500*%
%ADD22R,0.0200X0.0500*%
%ADD23R,0.1600X0.0600*%
%ADD24R,0.1460X0.1460*%
%ADD25R,0.0500X0.0500*%
%ADD26R,0.0830X0.2250*%
%ADD27R,0.0345X0.0500*%
%ADD28R,0.0630X0.0670*%
%ADD29O,0.0160X0.0530*%
%ADD30R,0.0160X0.0530*%
%ADD31R,0.0390X0.0350*%
%ADD32R,0.0220X0.0670*%
%ADD33O,0.0354X0.0787*%
%ADD34R,0.1968X0.1968*%
%ADD35R,0.0354X0.0787*%
%ADD36R,0.0280X0.0100*%
%ADD37R,0.0100X0.0510*%
%ADD38O,0.0100X0.0510*%
%ADD39R,0.0870X0.0870*%
%ADD40O,0.0200X0.0100*%
%ADD41R,0.0200X0.0100*%
%ADD42R,0.0100X0.0200*%
%ADD43C,0.0061*%
%ADD44C,0.0075*%
%ADD45C,0.0120*%
%ADD46C,0.0100*%
%ADD47C,0.0220*%
%ADD48C,0.0200*%
%ADD49C,0.0600*%
%ADD50C,0.0300*%
%ADD51C,0.0360*%
%ADD52C,0.0900*%
%ADD53C,0.0250*%
%ADD54C,0.0150*%
%ADD55C,0.0400*%
%ADD56C,0.0800*%
%ADD57C,0.2500*%
%ADD58C,0.0170*%
%ADD59R,0.0420X0.0420*%
%ADD60C,0.0420*%
%ADD61C,0.0650*%
%ADD62C,0.0620*%
%ADD63C,0.0600*%
%ADD64R,0.0600X0.0600*%
%ADD65R,0.0620X0.0620*%
%ADD66C,0.1200*%
%ADD67C,0.0500*%
%ADD68C,0.0510*%
%ADD69C,0.0390*%
%ADD70R,0.0900X0.0900*%
%ADD71C,0.0900*%
%ADD72C,0.0520*%
%ADD73C,0.0960*%
%ADD74C,0.1000*%
%ADD75C,0.0850*%
%ADD76C,0.0450*%
%ADD77C,0.0220*%
%ADD78C,0.0350*%
%ADD79C,0.0410*%
%ADD80C,0.0860*%
%ADD81O,0.0100X0.0600*%
%ADD82R,0.0100X0.0600*%
%ADD83R,0.3500X0.1380*%
%ADD84C,0.0630*%
%ADD85C,0.0700*%
%ADD86C,0.0340*%
%ADD87C,0.0730*%
%ADD88C,0.0500*%
%ADD89C,0.1900*%
%ADD90C,0.0160*%
%ADD91C,0.0040*%
%ADD92C,0.0050*%
%ADD93C,0.0070*%
%ADD94C,0.0030*%
D46*
X108628Y83133D02*
Y82800D01*
Y82967D01*
X108545Y83050D01*
X108461Y83133D01*
X108378D01*
X108045Y82800D02*
X107878D01*
X107795Y82883D01*
Y83050D01*
X107878Y83133D01*
X108045D01*
X108128Y83050D01*
Y82883D01*
X108045Y82800D01*
X107295Y83133D02*
X107545D01*
X107628Y83050D01*
Y82883D01*
X107545Y82800D01*
X107295D01*
X107129Y83300D02*
Y82800D01*
Y83050D01*
X107045Y83133D01*
X106879D01*
X106795Y83050D01*
Y82800D01*
X106629Y83133D02*
Y82883D01*
X106545Y82800D01*
X106296D01*
Y83133D01*
X105796D02*
X106046D01*
X106129Y83050D01*
Y82883D01*
X106046Y82800D01*
X105796D01*
X105629D02*
Y83300D01*
Y82967D02*
X105379Y83133D01*
X105629Y82967D02*
X105379Y82800D01*
X105129D02*
X104796Y83133D01*
X104629Y82800D02*
X104379D01*
X104296Y82883D01*
X104379Y82967D01*
X104546D01*
X104629Y83050D01*
X104546Y83133D01*
X104296D01*
X103796Y82633D02*
Y83133D01*
X104046D01*
X104130Y83050D01*
Y82883D01*
X104046Y82800D01*
X103796D01*
X103630Y83133D02*
Y82883D01*
X103546Y82800D01*
X103296D01*
Y83133D01*
X102880Y82800D02*
X103047D01*
X103130Y82883D01*
Y83050D01*
X103047Y83133D01*
X102880D01*
X102797Y83050D01*
Y82967D01*
X103130D01*
X102380Y82800D02*
X102547D01*
X102630Y82883D01*
Y83050D01*
X102547Y83133D01*
X102380D01*
X102297Y83050D01*
Y82967D01*
X102630D01*
X102130Y83133D02*
X101797D01*
X102130Y82800D01*
X101797D01*
X101380D02*
X101547D01*
X101630Y82883D01*
Y83050D01*
X101547Y83133D01*
X101380D01*
X101297Y83050D01*
Y82967D01*
X101630D01*
X101131Y83050D02*
X100797D01*
X100547Y83133D02*
X100381D01*
X100297Y83050D01*
Y82800D01*
X100547D01*
X100631Y82883D01*
X100547Y82967D01*
X100297D01*
X100131Y82800D02*
Y83133D01*
X100048D01*
X99964Y83050D01*
Y82800D01*
Y83050D01*
X99881Y83133D01*
X99798Y83050D01*
Y82800D01*
X99631Y82633D02*
Y83133D01*
X99381D01*
X99298Y83050D01*
Y82883D01*
X99381Y82800D01*
X99631D01*
X99131Y83050D02*
X98798D01*
X98548Y83217D02*
Y83133D01*
X98631D01*
X98465D01*
X98548D01*
Y82883D01*
X98465Y82800D01*
X98131D02*
X97965D01*
X97882Y82883D01*
Y83050D01*
X97965Y83133D01*
X98131D01*
X98215Y83050D01*
Y82883D01*
X98131Y82800D01*
X97632D02*
X97465D01*
X97382Y82883D01*
Y83050D01*
X97465Y83133D01*
X97632D01*
X97715Y83050D01*
Y82883D01*
X97632Y82800D01*
X106198Y84060D02*
Y83560D01*
Y83810D01*
X106115Y83893D01*
X105948D01*
X105865Y83810D01*
Y83560D01*
X105615Y83977D02*
Y83893D01*
X105698D01*
X105532D01*
X105615D01*
Y83643D01*
X105532Y83560D01*
X105198Y83977D02*
Y83893D01*
X105282D01*
X105115D01*
X105198D01*
Y83643D01*
X105115Y83560D01*
X104865Y83393D02*
Y83893D01*
X104615D01*
X104532Y83810D01*
Y83643D01*
X104615Y83560D01*
X104865D01*
X104365D02*
X104115D01*
X104032Y83643D01*
X104115Y83727D01*
X104282D01*
X104365Y83810D01*
X104282Y83893D01*
X104032D01*
X103866D02*
X103782D01*
Y83810D01*
X103866D01*
Y83893D01*
Y83643D02*
X103782D01*
Y83560D01*
X103866D01*
Y83643D01*
X103449Y83560D02*
X103116Y83893D01*
X102949Y83560D02*
X102616Y83893D01*
X102283Y83393D02*
X102199D01*
X102116Y83477D01*
Y83893D01*
X102366D01*
X102449Y83810D01*
Y83643D01*
X102366Y83560D01*
X102116D01*
X101949D02*
X101783D01*
X101866D01*
Y83893D01*
X101949D01*
X101450Y83977D02*
Y83893D01*
X101533D01*
X101366D01*
X101450D01*
Y83643D01*
X101366Y83560D01*
X101116Y84060D02*
Y83560D01*
Y83810D01*
X101033Y83893D01*
X100866D01*
X100783Y83810D01*
Y83560D01*
X100617Y83893D02*
Y83643D01*
X100533Y83560D01*
X100283D01*
Y83893D01*
X100117Y84060D02*
Y83560D01*
X99867D01*
X99783Y83643D01*
Y83727D01*
Y83810D01*
X99867Y83893D01*
X100117D01*
X99617Y83560D02*
Y83643D01*
X99534D01*
Y83560D01*
X99617D01*
X98867Y83893D02*
X99117D01*
X99200Y83810D01*
Y83643D01*
X99117Y83560D01*
X98867D01*
X98617D02*
X98451D01*
X98367Y83643D01*
Y83810D01*
X98451Y83893D01*
X98617D01*
X98701Y83810D01*
Y83643D01*
X98617Y83560D01*
X98201D02*
Y83893D01*
X98117D01*
X98034Y83810D01*
Y83560D01*
Y83810D01*
X97951Y83893D01*
X97867Y83810D01*
Y83560D01*
X97701D02*
X97368Y83893D01*
D54*
X83508Y93250D02*
X84175D01*
X82508Y91960D02*
X83175D01*
X82841Y92293D02*
Y91627D01*
X86648Y94730D02*
X87315D01*
X85118D02*
X85785D01*
X85451Y95063D02*
Y94397D01*
X105582Y93453D02*
X105748Y93620D01*
X106081D01*
X106248Y93453D01*
Y93286D01*
X106081Y93120D01*
X105748D01*
X105582Y92953D01*
Y92787D01*
X105748Y92620D01*
X106081D01*
X106248Y92787D01*
X104582Y92287D02*
Y93286D01*
X105082D01*
X105248Y93120D01*
Y92787D01*
X105082Y92620D01*
X104582D01*
X104249Y93286D02*
Y92787D01*
X104082Y92620D01*
X103582D01*
Y93286D01*
X102749Y92620D02*
X103082D01*
X103249Y92787D01*
Y93120D01*
X103082Y93286D01*
X102749D01*
X102583Y93120D01*
Y92953D01*
X103249D01*
X101750Y92620D02*
X102083D01*
X102249Y92787D01*
Y93120D01*
X102083Y93286D01*
X101750D01*
X101583Y93120D01*
Y92953D01*
X102249D01*
X101250Y93286D02*
X100583D01*
X101250Y92620D01*
X100583D01*
X99750D02*
X100083D01*
X100250Y92787D01*
Y93120D01*
X100083Y93286D01*
X99750D01*
X99584Y93120D01*
Y92953D01*
X100250D01*
X99250Y92620D02*
Y93286D01*
X98917Y93620D01*
X98584Y93286D01*
Y92620D01*
Y93120D01*
X99250D01*
X98251Y92620D02*
Y93286D01*
X98084D01*
X97917Y93120D01*
Y92620D01*
Y93120D01*
X97751Y93286D01*
X97584Y93120D01*
Y92620D01*
X97251Y92287D02*
Y93286D01*
X96751D01*
X96585Y93120D01*
Y92787D01*
X96751Y92620D01*
X97251D01*
X96251Y93620D02*
X95585D01*
X95918D01*
Y92620D01*
X95085D02*
X94752D01*
X94585Y92787D01*
Y93120D01*
X94752Y93286D01*
X95085D01*
X95252Y93120D01*
Y92787D01*
X95085Y92620D01*
X94085D02*
X93752D01*
X93586Y92787D01*
Y93120D01*
X93752Y93286D01*
X94085D01*
X94252Y93120D01*
Y92787D01*
X94085Y92620D01*
X93252Y93620D02*
Y92953D01*
X92919Y92620D01*
X92586Y92953D01*
Y93620D01*
X91586Y92620D02*
X92253D01*
X91586Y93286D01*
Y93453D01*
X91753Y93620D01*
X92086D01*
X92253Y93453D01*
D92*
X91720Y86681D02*
X91769Y86730D01*
X91720Y86779D01*
X95017Y89721D02*
Y90321D01*
X95617Y89721D02*
Y90321D01*
X95518Y82190D02*
Y82790D01*
X96118Y82190D02*
Y82790D01*
X80318Y90230D02*
X80918D01*
X80318Y89630D02*
X80918D01*
X80348Y85230D02*
X80948D01*
X80348Y84630D02*
X80948D01*
X80348Y88750D02*
X80948D01*
X80348Y88150D02*
X80948D01*
X80338Y86120D02*
X80938D01*
X80338Y86720D02*
X80938D01*
X86578Y91730D02*
X86678D01*
X86568Y92700D02*
X86658D01*
X86668Y92690D02*
X86818Y92540D01*
X84448Y91730D02*
X86578D01*
X86818Y91870D02*
Y92540D01*
X84448Y92700D02*
X86568D01*
X84448Y91730D02*
Y92690D01*
X86678Y91730D02*
X86818Y91870D01*
X91720Y86779D02*
Y87470D01*
X91720Y85990D02*
Y86681D01*
Y85990D02*
X96448D01*
Y87470D01*
X91720D02*
X96448D01*
X92678Y91170D02*
X93278D01*
X92678Y91770D02*
X93278D01*
X93598Y91170D02*
X94198D01*
X93598Y91770D02*
X94198D01*
X91778Y84330D02*
X92378D01*
X91778Y84930D02*
X92378D01*
X91388Y84980D02*
Y85580D01*
X90788Y84980D02*
Y85580D01*
X91938Y89330D02*
X92538D01*
X91938Y88730D02*
X92538D01*
X91298Y87810D02*
Y88410D01*
X90698Y87810D02*
Y88410D01*
X94318Y83540D02*
Y84140D01*
X93718Y83540D02*
Y84140D01*
X94318Y83520D02*
Y84120D01*
X94918Y83520D02*
Y84120D01*
X94418Y89040D02*
Y89640D01*
X93818Y89040D02*
Y89640D01*
X94418Y89070D02*
Y89670D01*
X95018Y89070D02*
Y89670D01*
X96108Y84830D02*
X96708D01*
X96108Y84230D02*
X96708D01*
X96118Y83120D02*
Y83720D01*
X95518Y83120D02*
Y83720D01*
Y83490D02*
Y84090D01*
X94918Y83490D02*
Y84090D01*
X93128Y88980D02*
X93728D01*
X93128Y89580D02*
X93728D01*
X92828Y90420D02*
X93658Y90420D01*
X92828Y89620D02*
X93658D01*
X92828Y91170D02*
X93658Y91170D01*
X92828Y90370D02*
X93658D01*
X92698Y84480D02*
X93528Y84480D01*
X92698Y83680D02*
X93528Y83680D01*
X92698Y83740D02*
X93528D01*
X92698Y82940D02*
X93528D01*
X93008Y89030D02*
X93608D01*
X93008Y88430D02*
X93608D01*
X92948Y85080D02*
X93548D01*
X92948Y84480D02*
X93548D01*
X87766Y90979D02*
Y91177D01*
X89343Y92754D02*
X90022Y92075D01*
X88530Y90569D02*
X90029Y92068D01*
X87766Y90979D02*
X88240Y90505D01*
X87837Y91248D02*
X89343Y92754D01*
X88240Y90505D02*
X88452D01*
X88466Y90505D02*
X88530Y90569D01*
X87766Y91177D02*
X87837Y91248D01*
X95244Y90170D02*
X95202Y90211D01*
Y90295D01*
X95244Y90336D01*
X95410D01*
X95452Y90295D01*
Y90211D01*
X95410Y90170D01*
X95452Y89961D02*
X95202D01*
X95327Y90086D01*
Y89920D01*
X95244Y89836D02*
X95202Y89795D01*
Y89711D01*
X95244Y89670D01*
X95285D01*
X95327Y89711D01*
Y89753D01*
Y89711D01*
X95369Y89670D01*
X95410D01*
X95452Y89711D01*
Y89795D01*
X95410Y89836D01*
X96290Y82613D02*
X96248Y82655D01*
Y82738D01*
X96290Y82780D01*
X96456D01*
X96498Y82738D01*
Y82655D01*
X96456Y82613D01*
X96498Y82405D02*
X96248D01*
X96373Y82530D01*
Y82363D01*
X96498Y82114D02*
Y82280D01*
X96331Y82114D01*
X96290D01*
X96248Y82155D01*
Y82239D01*
X96290Y82280D01*
X80851Y90598D02*
X80893Y90640D01*
X80976D01*
X81018Y90598D01*
Y90432D01*
X80976Y90390D01*
X80893D01*
X80851Y90432D01*
X80768Y90598D02*
X80727Y90640D01*
X80643D01*
X80602Y90598D01*
Y90557D01*
X80643Y90515D01*
X80685D01*
X80643D01*
X80602Y90473D01*
Y90432D01*
X80643Y90390D01*
X80727D01*
X80768Y90432D01*
X80393Y90390D02*
Y90640D01*
X80518Y90515D01*
X80352D01*
X80801Y84458D02*
X80843Y84500D01*
X80926D01*
X80968Y84458D01*
Y84292D01*
X80926Y84250D01*
X80843D01*
X80801Y84292D01*
X80718Y84458D02*
X80677Y84500D01*
X80593D01*
X80552Y84458D01*
Y84417D01*
X80593Y84375D01*
X80635D01*
X80593D01*
X80552Y84333D01*
Y84292D01*
X80593Y84250D01*
X80677D01*
X80718Y84292D01*
X80302Y84500D02*
X80468D01*
Y84375D01*
X80385Y84417D01*
X80343D01*
X80302Y84375D01*
Y84292D01*
X80343Y84250D01*
X80427D01*
X80468Y84292D01*
X80791Y87978D02*
X80833Y88020D01*
X80916D01*
X80958Y87978D01*
Y87812D01*
X80916Y87770D01*
X80833D01*
X80791Y87812D01*
X80708Y87978D02*
X80667Y88020D01*
X80583D01*
X80542Y87978D01*
Y87937D01*
X80583Y87895D01*
X80625D01*
X80583D01*
X80542Y87853D01*
Y87812D01*
X80583Y87770D01*
X80667D01*
X80708Y87812D01*
X80292Y88020D02*
X80375Y87978D01*
X80458Y87895D01*
Y87812D01*
X80417Y87770D01*
X80333D01*
X80292Y87812D01*
Y87853D01*
X80333Y87895D01*
X80458D01*
X80751Y87058D02*
X80793Y87100D01*
X80876D01*
X80918Y87058D01*
Y86892D01*
X80876Y86850D01*
X80793D01*
X80751Y86892D01*
X80668Y87058D02*
X80627Y87100D01*
X80543D01*
X80502Y87058D01*
Y87017D01*
X80543Y86975D01*
X80585D01*
X80543D01*
X80502Y86933D01*
Y86892D01*
X80543Y86850D01*
X80627D01*
X80668Y86892D01*
X80418Y87100D02*
X80252D01*
Y87058D01*
X80418Y86892D01*
Y86850D01*
X86068Y91600D02*
Y91350D01*
X85943D01*
X85901Y91392D01*
Y91558D01*
X85943Y91600D01*
X86068D01*
X85818Y91350D02*
X85735D01*
X85777D01*
Y91600D01*
X85818Y91558D01*
X91138Y86980D02*
X91346D01*
X91388Y86938D01*
Y86855D01*
X91346Y86813D01*
X91138D01*
X91388Y86730D02*
Y86647D01*
Y86688D01*
X91138D01*
X91180Y86730D01*
X92428Y91400D02*
Y91650D01*
X92303D01*
X92261Y91608D01*
Y91525D01*
X92303Y91483D01*
X92428D01*
X92345D02*
X92261Y91400D01*
X92178D02*
X92095D01*
X92137D01*
Y91650D01*
X92178Y91608D01*
X91970D02*
X91928Y91650D01*
X91845D01*
X91803Y91608D01*
Y91567D01*
X91845Y91525D01*
X91887D01*
X91845D01*
X91803Y91483D01*
Y91442D01*
X91845Y91400D01*
X91928D01*
X91970Y91442D01*
X95108Y91360D02*
Y91610D01*
X94983D01*
X94941Y91568D01*
Y91485D01*
X94983Y91443D01*
X95108D01*
X95025D02*
X94941Y91360D01*
X94858D02*
X94775D01*
X94817D01*
Y91610D01*
X94858Y91568D01*
X94483Y91360D02*
X94650D01*
X94483Y91527D01*
Y91568D01*
X94525Y91610D01*
X94608D01*
X94650Y91568D01*
X91681Y84148D02*
X91723Y84190D01*
X91806D01*
X91848Y84148D01*
Y83982D01*
X91806Y83940D01*
X91723D01*
X91681Y83982D01*
X91598Y84148D02*
X91557Y84190D01*
X91473D01*
X91432Y84148D01*
Y84107D01*
X91473Y84065D01*
X91515D01*
X91473D01*
X91432Y84023D01*
Y83982D01*
X91473Y83940D01*
X91557D01*
X91598Y83982D01*
X91348Y84148D02*
X91307Y84190D01*
X91223D01*
X91182Y84148D01*
Y84107D01*
X91223Y84065D01*
X91265D01*
X91223D01*
X91182Y84023D01*
Y83982D01*
X91223Y83940D01*
X91307D01*
X91348Y83982D01*
X90450Y85373D02*
X90408Y85415D01*
Y85498D01*
X90450Y85540D01*
X90616D01*
X90658Y85498D01*
Y85415D01*
X90616Y85373D01*
X90450Y85290D02*
X90408Y85248D01*
Y85165D01*
X90450Y85123D01*
X90491D01*
X90533Y85165D01*
Y85207D01*
Y85165D01*
X90575Y85123D01*
X90616D01*
X90658Y85165D01*
Y85248D01*
X90616Y85290D01*
X90658Y84874D02*
Y85040D01*
X90491Y84874D01*
X90450D01*
X90408Y84915D01*
Y84999D01*
X90450Y85040D01*
X91481Y89158D02*
X91523Y89200D01*
X91606D01*
X91648Y89158D01*
Y88992D01*
X91606Y88950D01*
X91523D01*
X91481Y88992D01*
X91398Y89158D02*
X91357Y89200D01*
X91273D01*
X91232Y89158D01*
Y89117D01*
X91273Y89075D01*
X91315D01*
X91273D01*
X91232Y89033D01*
Y88992D01*
X91273Y88950D01*
X91357D01*
X91398Y88992D01*
X91148Y88950D02*
X91065D01*
X91107D01*
Y89200D01*
X91148Y89158D01*
X90340Y88293D02*
X90298Y88335D01*
Y88418D01*
X90340Y88460D01*
X90506D01*
X90548Y88418D01*
Y88335D01*
X90506Y88293D01*
X90340Y88210D02*
X90298Y88168D01*
Y88085D01*
X90340Y88043D01*
X90381D01*
X90423Y88085D01*
Y88127D01*
Y88085D01*
X90465Y88043D01*
X90506D01*
X90548Y88085D01*
Y88168D01*
X90506Y88210D01*
X90340Y87960D02*
X90298Y87919D01*
Y87835D01*
X90340Y87794D01*
X90506D01*
X90548Y87835D01*
Y87919D01*
X90506Y87960D01*
X90340D01*
X93880Y82843D02*
X93838Y82885D01*
Y82968D01*
X93880Y83010D01*
X94046D01*
X94088Y82968D01*
Y82885D01*
X94046Y82843D01*
X94088Y82593D02*
Y82760D01*
X93921Y82593D01*
X93880D01*
X93838Y82635D01*
Y82718D01*
X93880Y82760D01*
X94046Y82510D02*
X94088Y82469D01*
Y82385D01*
X94046Y82344D01*
X93880D01*
X93838Y82385D01*
Y82469D01*
X93880Y82510D01*
X93921D01*
X93963Y82469D01*
Y82344D01*
X94590Y83073D02*
X94548Y83115D01*
Y83198D01*
X94590Y83240D01*
X94756D01*
X94798Y83198D01*
Y83115D01*
X94756Y83073D01*
X94798Y82823D02*
Y82990D01*
X94631Y82823D01*
X94590D01*
X94548Y82865D01*
Y82948D01*
X94590Y82990D01*
Y82740D02*
X94548Y82699D01*
Y82615D01*
X94590Y82574D01*
X94631D01*
X94673Y82615D01*
X94715Y82574D01*
X94756D01*
X94798Y82615D01*
Y82699D01*
X94756Y82740D01*
X94715D01*
X94673Y82699D01*
X94631Y82740D01*
X94590D01*
X94673Y82699D02*
Y82615D01*
X94290Y90433D02*
X94248Y90475D01*
Y90558D01*
X94290Y90600D01*
X94456D01*
X94498Y90558D01*
Y90475D01*
X94456Y90433D01*
X94498Y90183D02*
Y90350D01*
X94331Y90183D01*
X94290D01*
X94248Y90225D01*
Y90308D01*
X94290Y90350D01*
X94248Y90100D02*
Y89934D01*
X94290D01*
X94456Y90100D01*
X94498D01*
X94600Y90453D02*
X94558Y90495D01*
Y90578D01*
X94600Y90620D01*
X94766D01*
X94808Y90578D01*
Y90495D01*
X94766Y90453D01*
X94808Y90203D02*
Y90370D01*
X94641Y90203D01*
X94600D01*
X94558Y90245D01*
Y90328D01*
X94600Y90370D01*
X94558Y89954D02*
X94600Y90037D01*
X94683Y90120D01*
X94766D01*
X94808Y90079D01*
Y89995D01*
X94766Y89954D01*
X94725D01*
X94683Y89995D01*
Y90120D01*
X96731Y84058D02*
X96773Y84100D01*
X96856D01*
X96898Y84058D01*
Y83892D01*
X96856Y83850D01*
X96773D01*
X96731Y83892D01*
X96482Y83850D02*
X96648D01*
X96482Y84017D01*
Y84058D01*
X96523Y84100D01*
X96607D01*
X96648Y84058D01*
X96232Y84100D02*
X96398D01*
Y83975D01*
X96315Y84017D01*
X96273D01*
X96232Y83975D01*
Y83892D01*
X96273Y83850D01*
X96357D01*
X96398Y83892D01*
X96260Y83543D02*
X96218Y83585D01*
Y83668D01*
X96260Y83710D01*
X96426D01*
X96468Y83668D01*
Y83585D01*
X96426Y83543D01*
X96468Y83293D02*
Y83460D01*
X96301Y83293D01*
X96260D01*
X96218Y83335D01*
Y83418D01*
X96260Y83460D01*
Y83210D02*
X96218Y83169D01*
Y83085D01*
X96260Y83044D01*
X96301D01*
X96343Y83085D01*
Y83127D01*
Y83085D01*
X96385Y83044D01*
X96426D01*
X96468Y83085D01*
Y83169D01*
X96426Y83210D01*
X94990Y82763D02*
X94948Y82805D01*
Y82888D01*
X94990Y82930D01*
X95156D01*
X95198Y82888D01*
Y82805D01*
X95156Y82763D01*
X95198Y82513D02*
Y82680D01*
X95031Y82513D01*
X94990D01*
X94948Y82555D01*
Y82638D01*
X94990Y82680D01*
X95198Y82264D02*
Y82430D01*
X95031Y82264D01*
X94990D01*
X94948Y82305D01*
Y82389D01*
X94990Y82430D01*
X92471Y89668D02*
X92513Y89710D01*
X92596D01*
X92638Y89668D01*
Y89502D01*
X92596Y89460D01*
X92513D01*
X92471Y89502D01*
X92222Y89460D02*
X92388D01*
X92222Y89627D01*
Y89668D01*
X92263Y89710D01*
X92347D01*
X92388Y89668D01*
X92138Y89460D02*
X92055D01*
X92097D01*
Y89710D01*
X92138Y89668D01*
X92291Y90238D02*
X92333Y90280D01*
X92416D01*
X92458Y90238D01*
Y90072D01*
X92416Y90030D01*
X92333D01*
X92291Y90072D01*
X92208Y90030D02*
X92125D01*
X92167D01*
Y90280D01*
X92208Y90238D01*
X92000D02*
X91958Y90280D01*
X91875D01*
X91833Y90238D01*
Y90197D01*
X91875Y90155D01*
X91917D01*
X91875D01*
X91833Y90113D01*
Y90072D01*
X91875Y90030D01*
X91958D01*
X92000Y90072D01*
X92331Y90838D02*
X92373Y90880D01*
X92456D01*
X92498Y90838D01*
Y90672D01*
X92456Y90630D01*
X92373D01*
X92331Y90672D01*
X92248Y90630D02*
X92165D01*
X92207D01*
Y90880D01*
X92248Y90838D01*
X91873Y90630D02*
X92040D01*
X91873Y90797D01*
Y90838D01*
X91915Y90880D01*
X91998D01*
X92040Y90838D01*
X92241Y83818D02*
X92283Y83860D01*
X92366D01*
X92408Y83818D01*
Y83652D01*
X92366Y83610D01*
X92283D01*
X92241Y83652D01*
X92158Y83610D02*
X92075D01*
X92117D01*
Y83860D01*
X92158Y83818D01*
X91950Y83610D02*
X91867D01*
X91908D01*
Y83860D01*
X91950Y83818D01*
X93171Y82828D02*
X93213Y82870D01*
X93296D01*
X93338Y82828D01*
Y82662D01*
X93296Y82620D01*
X93213D01*
X93171Y82662D01*
X93088Y82620D02*
X93005D01*
X93047D01*
Y82870D01*
X93088Y82828D01*
X92880D02*
X92838Y82870D01*
X92755D01*
X92713Y82828D01*
Y82662D01*
X92755Y82620D01*
X92838D01*
X92880Y82662D01*
Y82828D01*
X94171Y88768D02*
X94213Y88810D01*
X94296D01*
X94338Y88768D01*
Y88602D01*
X94296Y88560D01*
X94213D01*
X94171Y88602D01*
X93922Y88560D02*
X94088D01*
X93922Y88727D01*
Y88768D01*
X93963Y88810D01*
X94047D01*
X94088Y88768D01*
X93991Y84868D02*
X94033Y84910D01*
X94116D01*
X94158Y84868D01*
Y84702D01*
X94116Y84660D01*
X94033D01*
X93991Y84702D01*
X93908Y84660D02*
X93825D01*
X93867D01*
Y84910D01*
X93908Y84868D01*
X88958Y92670D02*
Y92420D01*
X88833D01*
X88791Y92462D01*
Y92628D01*
X88833Y92670D01*
X88958D01*
X88708Y92420D02*
X88625D01*
X88667D01*
Y92670D01*
X88708Y92628D01*
X88500D02*
X88458Y92670D01*
X88375D01*
X88333Y92628D01*
Y92462D01*
X88375Y92420D01*
X88458D01*
X88500Y92462D01*
Y92628D01*
D93*
X87678Y91525D02*
X87911D01*
X87795Y91642D02*
Y91408D01*
X84778Y91495D02*
X85011D01*
M02*
