%FSLAX24Y24*%
%MOIN*%
G70*
G01*
G75*
%ADD10C,0.0080*%
%ADD11R,0.0300X0.0300*%
%ADD12R,0.0300X0.0220*%
%ADD13R,0.0440X0.0120*%
%ADD14O,0.0190X0.1100*%
%ADD15R,0.0190X0.1100*%
%ADD16R,0.0220X0.0300*%
%ADD17R,0.0120X0.0440*%
%ADD18O,0.0440X0.0120*%
%ADD19R,0.0500X0.0250*%
%ADD20R,0.0360X0.0360*%
%ADD21O,0.0200X0.0500*%
%ADD22R,0.0200X0.0500*%
%ADD23R,0.1600X0.0600*%
%ADD24R,0.1460X0.1460*%
%ADD25R,0.0500X0.0500*%
%ADD26R,0.0830X0.2250*%
%ADD27R,0.0345X0.0500*%
%ADD28R,0.0630X0.0670*%
%ADD29O,0.0160X0.0530*%
%ADD30R,0.0160X0.0530*%
%ADD31R,0.0390X0.0350*%
%ADD32R,0.0220X0.0670*%
%ADD33O,0.0354X0.0787*%
%ADD34R,0.1968X0.1968*%
%ADD35R,0.0354X0.0787*%
%ADD36R,0.0280X0.0100*%
%ADD37R,0.0100X0.0510*%
%ADD38O,0.0100X0.0510*%
%ADD39R,0.0870X0.0870*%
%ADD40O,0.0200X0.0100*%
%ADD41R,0.0200X0.0100*%
%ADD42R,0.0100X0.0200*%
%ADD43C,0.0061*%
%ADD44C,0.0075*%
%ADD45C,0.0120*%
%ADD46C,0.0100*%
%ADD47C,0.0220*%
%ADD48C,0.0200*%
%ADD49C,0.0600*%
%ADD50C,0.0300*%
%ADD51C,0.0360*%
%ADD52C,0.0900*%
%ADD53C,0.0250*%
%ADD54C,0.0150*%
%ADD55C,0.0400*%
%ADD56C,0.0800*%
%ADD57C,0.2500*%
%ADD58C,0.0170*%
%ADD59R,0.0420X0.0420*%
%ADD60C,0.0420*%
%ADD61C,0.0650*%
%ADD62C,0.0620*%
%ADD63C,0.0600*%
%ADD64R,0.0600X0.0600*%
%ADD65R,0.0620X0.0620*%
%ADD66C,0.1200*%
%ADD67C,0.0500*%
%ADD68C,0.0510*%
%ADD69C,0.0390*%
%ADD70R,0.0900X0.0900*%
%ADD71C,0.0900*%
%ADD72C,0.0520*%
%ADD73C,0.0960*%
%ADD74C,0.1000*%
%ADD75C,0.0850*%
%ADD76C,0.0450*%
%ADD77C,0.0220*%
%ADD78C,0.0350*%
%ADD79C,0.0410*%
%ADD80C,0.0860*%
%ADD81O,0.0100X0.0600*%
%ADD82R,0.0100X0.0600*%
%ADD83R,0.3500X0.1380*%
%ADD84C,0.0630*%
%ADD85C,0.0700*%
%ADD86C,0.0340*%
%ADD87C,0.0730*%
%ADD88C,0.0500*%
%ADD89C,0.1900*%
%ADD90C,0.0160*%
%ADD91C,0.0040*%
%ADD92C,0.0050*%
%ADD93C,0.0070*%
%ADD94C,0.0030*%
%ADD95R,0.0380X0.0380*%
%ADD96R,0.0380X0.0300*%
%ADD97R,0.0520X0.0200*%
%ADD98O,0.0270X0.1180*%
%ADD99R,0.0270X0.1180*%
%ADD100R,0.0300X0.0380*%
%ADD101R,0.0200X0.0520*%
%ADD102O,0.0520X0.0200*%
%ADD103R,0.0580X0.0330*%
%ADD104R,0.0440X0.0440*%
%ADD105O,0.0280X0.0580*%
%ADD106R,0.0280X0.0580*%
%ADD107R,0.1680X0.0680*%
%ADD108R,0.1540X0.1540*%
%ADD109R,0.0580X0.0580*%
%ADD110R,0.0910X0.2330*%
%ADD111R,0.0425X0.0580*%
%ADD112R,0.0710X0.0750*%
%ADD113O,0.0240X0.0610*%
%ADD114R,0.0240X0.0610*%
%ADD115R,0.0470X0.0430*%
%ADD116R,0.0300X0.0750*%
%ADD117O,0.0434X0.0867*%
%ADD118R,0.2048X0.2048*%
%ADD119R,0.0434X0.0867*%
%ADD120R,0.0360X0.0180*%
%ADD121R,0.0180X0.0590*%
%ADD122O,0.0180X0.0590*%
%ADD123R,0.0950X0.0950*%
%ADD124O,0.0280X0.0180*%
%ADD125R,0.0280X0.0180*%
%ADD126R,0.0180X0.0280*%
%ADD127C,0.0730*%
%ADD128C,0.0700*%
%ADD129C,0.0680*%
%ADD130R,0.0680X0.0680*%
%ADD131R,0.0700X0.0700*%
%ADD132C,0.1280*%
%ADD133C,0.0580*%
%ADD134C,0.0590*%
%ADD135C,0.0470*%
%ADD136R,0.0980X0.0980*%
%ADD137C,0.0980*%
%ADD138C,0.1040*%
%ADD139C,0.1080*%
%ADD140C,0.0930*%
%ADD141C,0.0530*%
%ADD142C,0.0300*%
%ADD143C,0.0430*%
%ADD144C,0.0490*%
%ADD145C,0.0940*%
%ADD146O,0.0180X0.0680*%
%ADD147R,0.0180X0.0680*%
%ADD148R,0.3580X0.1460*%
D10*
X114448Y84630D02*
Y87380D01*
X110448Y84630D02*
Y87380D01*
X114448D01*
X110468Y84630D02*
X114448D01*
Y78650D02*
Y79650D01*
Y72420D02*
Y78650D01*
X110448Y88380D02*
Y89380D01*
X114448Y88380D02*
Y89380D01*
Y79650D02*
Y83630D01*
X110468Y79650D02*
Y83630D01*
X110258Y78650D02*
X114448D01*
X109448Y72420D02*
X113638D01*
X114448Y89380D02*
Y95400D01*
X110448Y89380D02*
Y95400D01*
Y88380D02*
X114448D01*
X110448Y95400D02*
X114448D01*
X79918Y78650D02*
X109448D01*
X79918Y72650D02*
Y78650D01*
Y72420D02*
X109448D01*
X110468Y79650D02*
X114448D01*
X110468Y83630D02*
X114448D01*
X79918Y72420D02*
Y72650D01*
X113638Y72420D02*
X114448D01*
X109448Y78650D02*
X110258D01*
X109448Y79650D02*
Y95400D01*
X79918Y79650D02*
X109448D01*
X79918D02*
Y95400D01*
X99598D01*
X79918Y79650D02*
X99598D01*
X104078Y95110D02*
Y95400D01*
X106438Y95100D02*
Y95400D01*
X104088Y95100D02*
X106438D01*
Y95400D02*
X109448D01*
X99598D02*
X104078D01*
D92*
X114448Y87380D02*
Y88480D01*
Y83630D02*
Y84630D01*
X79918Y78650D02*
Y79650D01*
D94*
X109448Y95400D02*
X110448D01*
M02*
