%FSLAX24Y24*%
%MOIN*%
G70*
G01*
G75*
%ADD10C,0.0080*%
%ADD11R,0.0300X0.0300*%
%ADD12R,0.0300X0.0220*%
%ADD13R,0.0440X0.0120*%
%ADD14O,0.0190X0.1100*%
%ADD15R,0.0190X0.1100*%
%ADD16R,0.0220X0.0300*%
%ADD17R,0.0120X0.0440*%
%ADD18O,0.0440X0.0120*%
%ADD19R,0.0500X0.0250*%
%ADD20R,0.0360X0.0360*%
%ADD21O,0.0200X0.0500*%
%ADD22R,0.0200X0.0500*%
%ADD23R,0.1600X0.0600*%
%ADD24R,0.1460X0.1460*%
%ADD25R,0.0500X0.0500*%
%ADD26R,0.0830X0.2250*%
%ADD27R,0.0345X0.0500*%
%ADD28R,0.0630X0.0670*%
%ADD29O,0.0160X0.0530*%
%ADD30R,0.0160X0.0530*%
%ADD31R,0.0390X0.0350*%
%ADD32R,0.0220X0.0670*%
%ADD33O,0.0354X0.0787*%
%ADD34R,0.1968X0.1968*%
%ADD35R,0.0354X0.0787*%
%ADD36R,0.0280X0.0100*%
%ADD37R,0.0100X0.0510*%
%ADD38O,0.0100X0.0510*%
%ADD39R,0.0870X0.0870*%
%ADD40O,0.0200X0.0100*%
%ADD41R,0.0200X0.0100*%
%ADD42R,0.0100X0.0200*%
%ADD43C,0.0061*%
%ADD44C,0.0075*%
%ADD45C,0.0120*%
%ADD46C,0.0100*%
%ADD47C,0.0220*%
%ADD48C,0.0200*%
%ADD49C,0.0600*%
%ADD50C,0.0300*%
%ADD51C,0.0360*%
%ADD52C,0.0900*%
%ADD53C,0.0250*%
%ADD54C,0.0150*%
%ADD55C,0.0400*%
%ADD56C,0.0800*%
%ADD57C,0.2500*%
%ADD58C,0.0170*%
%ADD59R,0.0420X0.0420*%
%ADD60C,0.0420*%
%ADD61C,0.0650*%
%ADD62C,0.0620*%
%ADD63C,0.0600*%
%ADD64R,0.0600X0.0600*%
%ADD65R,0.0620X0.0620*%
%ADD66C,0.1200*%
%ADD67C,0.0500*%
%ADD68C,0.0510*%
%ADD69C,0.0390*%
%ADD70R,0.0900X0.0900*%
%ADD71C,0.0900*%
%ADD72C,0.0520*%
%ADD73C,0.0960*%
%ADD74C,0.1000*%
%ADD75C,0.0850*%
%ADD76C,0.0450*%
%ADD77C,0.0220*%
%ADD78C,0.0350*%
%ADD79C,0.0410*%
%ADD80C,0.0860*%
%ADD81O,0.0100X0.0600*%
%ADD82R,0.0100X0.0600*%
%ADD83R,0.3500X0.1380*%
%ADD84C,0.0630*%
%ADD85C,0.0700*%
%ADD86C,0.0340*%
%ADD87C,0.0730*%
%ADD88C,0.0500*%
%ADD89C,0.1900*%
%ADD90C,0.0160*%
%ADD91C,0.0040*%
%ADD92C,0.0050*%
%ADD93C,0.0070*%
%ADD94C,0.0030*%
%ADD95R,0.0380X0.0380*%
%ADD96R,0.0380X0.0300*%
%ADD97R,0.0520X0.0200*%
%ADD98O,0.0270X0.1180*%
%ADD99R,0.0270X0.1180*%
%ADD100R,0.0300X0.0380*%
%ADD101R,0.0200X0.0520*%
%ADD102O,0.0520X0.0200*%
%ADD103R,0.0580X0.0330*%
%ADD104R,0.0440X0.0440*%
%ADD105O,0.0280X0.0580*%
%ADD106R,0.0280X0.0580*%
%ADD107R,0.1680X0.0680*%
%ADD108R,0.1540X0.1540*%
%ADD109R,0.0580X0.0580*%
%ADD110R,0.0910X0.2330*%
%ADD111R,0.0425X0.0580*%
%ADD112R,0.0710X0.0750*%
%ADD113O,0.0240X0.0610*%
%ADD114R,0.0240X0.0610*%
%ADD115R,0.0470X0.0430*%
%ADD116R,0.0300X0.0750*%
%ADD117O,0.0434X0.0867*%
%ADD118R,0.2048X0.2048*%
%ADD119R,0.0434X0.0867*%
%ADD120R,0.0360X0.0180*%
%ADD121R,0.0180X0.0590*%
%ADD122O,0.0180X0.0590*%
%ADD123R,0.0950X0.0950*%
%ADD124O,0.0280X0.0180*%
%ADD125R,0.0280X0.0180*%
%ADD126R,0.0180X0.0280*%
%ADD127C,0.0730*%
%ADD128C,0.0700*%
%ADD129C,0.0680*%
%ADD130R,0.0680X0.0680*%
%ADD131R,0.0700X0.0700*%
%ADD132C,0.1280*%
%ADD133C,0.0580*%
%ADD134C,0.0590*%
%ADD135C,0.0470*%
%ADD136R,0.0980X0.0980*%
%ADD137C,0.0980*%
%ADD138C,0.1040*%
%ADD139C,0.1080*%
%ADD140C,0.0930*%
%ADD141C,0.0530*%
%ADD142C,0.0300*%
%ADD143C,0.0430*%
%ADD144C,0.0490*%
%ADD145C,0.0940*%
%ADD146O,0.0180X0.0680*%
%ADD147R,0.0180X0.0680*%
%ADD148R,0.3580X0.1460*%
D11*
X106578Y74130D02*
D03*
Y73530D02*
D03*
X106028Y74130D02*
D03*
Y73530D02*
D03*
X101618Y88750D02*
D03*
Y89350D02*
D03*
X89388Y82830D02*
D03*
Y82230D02*
D03*
X89378Y80220D02*
D03*
Y80820D02*
D03*
X102638Y88740D02*
D03*
Y89340D02*
D03*
D12*
X106578Y75080D02*
D03*
X106578Y74510D02*
D03*
X106028Y75080D02*
D03*
Y74510D02*
D03*
X102568Y76950D02*
D03*
X86693Y76495D02*
D03*
X86703Y74605D02*
D03*
X107683Y75165D02*
D03*
Y75630D02*
D03*
Y74235D02*
D03*
Y74595D02*
D03*
X107678Y76560D02*
D03*
X107683Y76200D02*
D03*
X86693Y77425D02*
D03*
Y77065D02*
D03*
X86713Y73685D02*
D03*
X86703Y74035D02*
D03*
X108293Y77105D02*
D03*
X107678Y77130D02*
D03*
X108283Y74015D02*
D03*
X107683Y73665D02*
D03*
X86093Y77435D02*
D03*
X86693Y77995D02*
D03*
X86113Y73695D02*
D03*
X86713Y73115D02*
D03*
X99190Y74258D02*
D03*
X87978Y74250D02*
D03*
Y74820D02*
D03*
X99190Y74828D02*
D03*
X80393Y73415D02*
D03*
X86113Y73125D02*
D03*
X113988Y75820D02*
D03*
X108293Y77675D02*
D03*
X86093Y78005D02*
D03*
X108283Y73445D02*
D03*
X102568Y76380D02*
D03*
X80393Y73985D02*
D03*
X113988Y75250D02*
D03*
X113928Y92040D02*
D03*
Y91470D02*
D03*
X110828Y88990D02*
D03*
Y89560D02*
D03*
X113608Y91100D02*
D03*
Y90530D02*
D03*
X110778Y81370D02*
D03*
Y81940D02*
D03*
X112848Y93310D02*
D03*
Y92740D02*
D03*
X113418Y91470D02*
D03*
Y92040D02*
D03*
X93548Y74690D02*
D03*
Y74120D02*
D03*
X92308Y95050D02*
D03*
Y94480D02*
D03*
X94168Y92150D02*
D03*
Y92720D02*
D03*
X90198Y90750D02*
D03*
Y91320D02*
D03*
X99328Y93190D02*
D03*
Y92620D02*
D03*
X85008Y81340D02*
D03*
Y80770D02*
D03*
X86398Y83740D02*
D03*
Y83170D02*
D03*
X95778Y94050D02*
D03*
Y93480D02*
D03*
X95178D02*
D03*
Y94050D02*
D03*
X90198Y91660D02*
D03*
X90198Y92230D02*
D03*
X108958Y89430D02*
D03*
Y88860D02*
D03*
X86938Y83740D02*
D03*
Y83170D02*
D03*
X107848Y93570D02*
D03*
Y94140D02*
D03*
X84848Y90360D02*
D03*
Y89790D02*
D03*
X102888Y93730D02*
D03*
Y94300D02*
D03*
X89388Y83780D02*
D03*
Y83210D02*
D03*
X98808Y92910D02*
D03*
Y92340D02*
D03*
X92738Y91700D02*
D03*
Y92270D02*
D03*
X84318Y89920D02*
D03*
Y90490D02*
D03*
X88808Y81700D02*
D03*
Y82270D02*
D03*
X89378Y81780D02*
D03*
Y81210D02*
D03*
X88808Y81340D02*
D03*
Y80770D02*
D03*
X90668Y91660D02*
D03*
Y92230D02*
D03*
X97068Y92470D02*
D03*
X97068Y91900D02*
D03*
D13*
X103053Y74412D02*
D03*
Y75180D02*
D03*
Y74924D02*
D03*
X105418Y75180D02*
D03*
X103053Y74668D02*
D03*
Y74156D02*
D03*
X105418Y74924D02*
D03*
Y74668D02*
D03*
Y74412D02*
D03*
X103053Y75436D02*
D03*
Y75692D02*
D03*
X105418Y75692D02*
D03*
Y75436D02*
D03*
D14*
X113268Y86670D02*
D03*
X112768Y86670D02*
D03*
X112268D02*
D03*
D15*
X111768D02*
D03*
D16*
X112338Y85620D02*
D03*
X111768D02*
D03*
X104178Y78230D02*
D03*
X104748D02*
D03*
X106528Y75750D02*
D03*
X105798Y76960D02*
D03*
X103048Y76770D02*
D03*
X103618Y76770D02*
D03*
X105228Y76960D02*
D03*
X105958Y75750D02*
D03*
X113478Y94050D02*
D03*
X114048D02*
D03*
X111668Y90150D02*
D03*
X112238D02*
D03*
X111668Y89630D02*
D03*
X112238D02*
D03*
X113198D02*
D03*
X112628D02*
D03*
X113578Y90150D02*
D03*
X114148D02*
D03*
X113198D02*
D03*
X112628D02*
D03*
X113578Y89630D02*
D03*
X114148D02*
D03*
X83898Y89080D02*
D03*
X83328D02*
D03*
X86728Y82490D02*
D03*
X86158D02*
D03*
X108088Y91160D02*
D03*
X107518D02*
D03*
X92338Y91040D02*
D03*
X92908D02*
D03*
X96678Y94050D02*
D03*
X97248D02*
D03*
X86728Y81950D02*
D03*
X86158D02*
D03*
X90218Y93970D02*
D03*
X89648D02*
D03*
X91418Y91040D02*
D03*
X91988D02*
D03*
X102018Y91250D02*
D03*
X102588D02*
D03*
X103908Y88980D02*
D03*
X104478D02*
D03*
X91928Y94350D02*
D03*
X91358D02*
D03*
X87278Y89960D02*
D03*
X86708D02*
D03*
X103918Y90180D02*
D03*
X104488D02*
D03*
X96678Y93510D02*
D03*
X97248D02*
D03*
X97238Y92960D02*
D03*
X96668D02*
D03*
X87598Y82160D02*
D03*
X88168D02*
D03*
X102018Y90050D02*
D03*
X102588D02*
D03*
X102018Y90690D02*
D03*
X102588D02*
D03*
X104488Y89580D02*
D03*
X103918D02*
D03*
D17*
X103980Y73742D02*
D03*
X103724D02*
D03*
X103467Y76106D02*
D03*
X103980D02*
D03*
X104236Y76106D02*
D03*
X105004Y73742D02*
D03*
X104748D02*
D03*
X104492D02*
D03*
X104236D02*
D03*
X103467Y73742D02*
D03*
X103724Y76106D02*
D03*
X104492D02*
D03*
X104748D02*
D03*
X105004D02*
D03*
D18*
X105418Y74156D02*
D03*
D19*
X104098Y76720D02*
D03*
X104728D02*
D03*
X104728Y77050D02*
D03*
X104098Y77050D02*
D03*
X91638Y95110D02*
D03*
Y94780D02*
D03*
D20*
X112358Y90630D02*
D03*
X113118D02*
D03*
X112738Y91430D02*
D03*
X110938Y91590D02*
D03*
X110938Y90830D02*
D03*
X111738Y91210D02*
D03*
X85658Y83300D02*
D03*
Y84060D02*
D03*
X84858Y83680D02*
D03*
X84878Y82430D02*
D03*
X85678Y82810D02*
D03*
Y82050D02*
D03*
X83038Y90360D02*
D03*
X83798D02*
D03*
X83418Y91160D02*
D03*
X85428Y90040D02*
D03*
X86188D02*
D03*
X85808Y90840D02*
D03*
D21*
X114028Y92520D02*
D03*
X113278D02*
D03*
X113658D02*
D03*
Y93520D02*
D03*
X113278D02*
D03*
X97588Y92630D02*
D03*
X97968Y92630D02*
D03*
Y91630D02*
D03*
X97588Y91630D02*
D03*
X98338D02*
D03*
D22*
X114028Y93520D02*
D03*
X98338Y92630D02*
D03*
D23*
X111548Y92210D02*
D03*
Y93630D02*
D03*
X89018Y91880D02*
D03*
X89018Y93300D02*
D03*
X95478Y92940D02*
D03*
Y91520D02*
D03*
D24*
X104238Y74926D02*
D03*
D25*
X88808Y89930D02*
D03*
X87863D02*
D03*
D26*
X87438Y88390D02*
D03*
X89008D02*
D03*
X86458D02*
D03*
X84888D02*
D03*
X87438Y85990D02*
D03*
X89008D02*
D03*
X86458D02*
D03*
X84888D02*
D03*
D27*
X91368Y90150D02*
D03*
X90553Y90150D02*
D03*
X92038Y93320D02*
D03*
X92853D02*
D03*
X91563Y93360D02*
D03*
X90748Y93360D02*
D03*
D28*
X86848Y90740D02*
D03*
X88388Y90740D02*
D03*
X84798Y92100D02*
D03*
X86338D02*
D03*
D29*
X87442Y81300D02*
D03*
X87186D02*
D03*
X86930D02*
D03*
X86674D02*
D03*
D30*
X86418D02*
D03*
D31*
X107438Y90580D02*
D03*
X107438Y88900D02*
D03*
X108088Y90580D02*
D03*
Y88900D02*
D03*
D32*
X108318Y89730D02*
D03*
D33*
X106468Y81367D02*
D03*
X105468D02*
D03*
X107968D02*
D03*
X101468D02*
D03*
X102468D02*
D03*
X103468Y81367D02*
D03*
X103968Y81367D02*
D03*
X105968Y81367D02*
D03*
X106968Y81367D02*
D03*
X107468D02*
D03*
X108468Y81367D02*
D03*
X108968Y81367D02*
D03*
X101468Y88060D02*
D03*
X101968Y88060D02*
D03*
X102468Y88060D02*
D03*
X102968D02*
D03*
X103468D02*
D03*
X103968D02*
D03*
X104468D02*
D03*
X104968D02*
D03*
X105468Y88060D02*
D03*
X105968Y88060D02*
D03*
X106468D02*
D03*
X106968D02*
D03*
X107468D02*
D03*
X107968Y88060D02*
D03*
X108468Y88060D02*
D03*
X100468Y81367D02*
D03*
X100968Y88060D02*
D03*
X100968Y81367D02*
D03*
X99968Y81367D02*
D03*
X100468Y88060D02*
D03*
X99968D02*
D03*
X101968Y81367D02*
D03*
X104468D02*
D03*
X102968D02*
D03*
X104968D02*
D03*
D34*
X105588Y85110D02*
D03*
D35*
X108968Y88060D02*
D03*
D36*
X91148Y91640D02*
D03*
Y91837D02*
D03*
Y92034D02*
D03*
Y92231D02*
D03*
Y92428D02*
D03*
X92288Y92424D02*
D03*
Y92227D02*
D03*
Y92030D02*
D03*
Y91636D02*
D03*
Y91833D02*
D03*
D37*
X91521Y92490D02*
D03*
X91718D02*
D03*
X91915D02*
D03*
Y91590D02*
D03*
X91718Y91590D02*
D03*
D38*
X91521D02*
D03*
D39*
X88128Y83360D02*
D03*
D40*
X87388Y83850D02*
D03*
D41*
Y83653D02*
D03*
Y83456D02*
D03*
X87388Y83259D02*
D03*
X87388Y83062D02*
D03*
X87388Y82865D02*
D03*
X88883Y82865D02*
D03*
X88883Y83062D02*
D03*
Y83259D02*
D03*
Y83456D02*
D03*
Y83653D02*
D03*
Y83850D02*
D03*
D42*
X87637Y82610D02*
D03*
X87834Y82610D02*
D03*
X88031D02*
D03*
X88228D02*
D03*
X88425D02*
D03*
X88622D02*
D03*
X88633Y84090D02*
D03*
X88436D02*
D03*
X88239D02*
D03*
X88042D02*
D03*
X87845D02*
D03*
X87648D02*
D03*
D59*
X111768Y85040D02*
D03*
X103138Y72940D02*
D03*
X107588Y78160D02*
D03*
X108958Y80150D02*
D03*
X108638Y94620D02*
D03*
D60*
X112268Y85040D02*
D03*
X112768D02*
D03*
X113268D02*
D03*
X103638Y72940D02*
D03*
X104138D02*
D03*
X104638D02*
D03*
X105138D02*
D03*
X107088Y78160D02*
D03*
X106588D02*
D03*
X106088D02*
D03*
X105588D02*
D03*
X108458Y80150D02*
D03*
X107958D02*
D03*
X107458D02*
D03*
X106958D02*
D03*
X108638Y94120D02*
D03*
Y93620D02*
D03*
Y93120D02*
D03*
D61*
X96148Y74250D02*
D03*
X96148Y76850D02*
D03*
X99974Y74254D02*
D03*
X99974Y76854D02*
D03*
X88748Y76860D02*
D03*
X88748Y74260D02*
D03*
X90548Y74260D02*
D03*
X90548Y76860D02*
D03*
X101774Y76854D02*
D03*
Y74254D02*
D03*
X94348Y74250D02*
D03*
X94348Y76850D02*
D03*
D62*
X100898Y78080D02*
D03*
X97898Y78080D02*
D03*
X99898D02*
D03*
X98898D02*
D03*
X110948Y94890D02*
D03*
X113948Y82150D02*
D03*
X113948Y81150D02*
D03*
X113628Y88850D02*
D03*
X112628D02*
D03*
X112948Y94890D02*
D03*
X111948D02*
D03*
X101068Y80240D02*
D03*
X102068D02*
D03*
X103068D02*
D03*
X104068D02*
D03*
X105068D02*
D03*
X106068D02*
D03*
X93058Y94860D02*
D03*
X94058D02*
D03*
X83398Y87840D02*
D03*
Y86840D02*
D03*
X83398Y85840D02*
D03*
X106568Y89240D02*
D03*
X98568Y94850D02*
D03*
X99568Y94850D02*
D03*
X100568D02*
D03*
X101568D02*
D03*
X102568Y94850D02*
D03*
X82708Y80550D02*
D03*
Y82550D02*
D03*
X100628Y89940D02*
D03*
X99628D02*
D03*
X97628Y89940D02*
D03*
X98628Y89940D02*
D03*
D63*
X86093Y76555D02*
D03*
X80383Y76555D02*
D03*
X86093Y75570D02*
D03*
X80383Y74585D02*
D03*
X113993Y74565D02*
D03*
X108283Y75550D02*
D03*
X113993Y76535D02*
D03*
X108283Y74565D02*
D03*
X90568Y94650D02*
D03*
X88598D02*
D03*
X89583D02*
D03*
D64*
X86093Y74585D02*
D03*
X108283Y76535D02*
D03*
D65*
X101898Y78080D02*
D03*
X113948Y80150D02*
D03*
X111628Y88850D02*
D03*
X113948Y94890D02*
D03*
X100068Y80240D02*
D03*
X95058Y94860D02*
D03*
X83398Y84840D02*
D03*
X105568Y89240D02*
D03*
X97568Y94850D02*
D03*
X96628Y89940D02*
D03*
D66*
X83138Y77780D02*
D03*
Y73360D02*
D03*
X111238Y73340D02*
D03*
Y77760D02*
D03*
D67*
X89148Y93970D02*
D03*
X88148D02*
D03*
X103838Y92260D02*
D03*
X107098Y94230D02*
D03*
X105818Y91040D02*
D03*
X103488Y94230D02*
D03*
D68*
X85548Y80240D02*
D03*
X88308D02*
D03*
D69*
X85948Y81300D02*
D03*
X87918D02*
D03*
D70*
X81638Y89940D02*
D03*
X86918Y93700D02*
D03*
X81628Y86420D02*
D03*
D71*
X81638Y88440D02*
D03*
X85418Y93700D02*
D03*
X81628Y84920D02*
D03*
D72*
X83738Y80550D02*
D03*
X83738Y81550D02*
D03*
X83738Y82550D02*
D03*
D73*
X83808Y91930D02*
D03*
Y94500D02*
D03*
D74*
X80808Y91830D02*
D03*
X80858Y94670D02*
D03*
D75*
X82938Y93230D02*
D03*
D76*
X87338Y91510D02*
D03*
X85338D02*
D03*
M02*
