%FSLAX24Y24*%
%MOIN*%
G70*
G01*
G75*
%ADD10C,0.0080*%
%ADD11R,0.0300X0.0300*%
%ADD12R,0.0300X0.0220*%
%ADD13R,0.0440X0.0120*%
%ADD14O,0.0190X0.1100*%
%ADD15R,0.0190X0.1100*%
%ADD16R,0.0220X0.0300*%
%ADD17R,0.0120X0.0440*%
%ADD18O,0.0440X0.0120*%
%ADD19R,0.0500X0.0250*%
%ADD20R,0.0360X0.0360*%
%ADD21O,0.0200X0.0500*%
%ADD22R,0.0200X0.0500*%
%ADD23R,0.1600X0.0600*%
%ADD24R,0.1460X0.1460*%
%ADD25R,0.0500X0.0500*%
%ADD26R,0.0830X0.2250*%
%ADD27R,0.0345X0.0500*%
%ADD28R,0.0630X0.0670*%
%ADD29O,0.0160X0.0530*%
%ADD30R,0.0160X0.0530*%
%ADD31R,0.0390X0.0350*%
%ADD32R,0.0220X0.0670*%
%ADD33O,0.0354X0.0787*%
%ADD34R,0.1968X0.1968*%
%ADD35R,0.0354X0.0787*%
%ADD36R,0.0280X0.0100*%
%ADD37R,0.0100X0.0510*%
%ADD38O,0.0100X0.0510*%
%ADD39R,0.0870X0.0870*%
%ADD40O,0.0200X0.0100*%
%ADD41R,0.0200X0.0100*%
%ADD42R,0.0100X0.0200*%
%ADD43C,0.0061*%
%ADD44C,0.0075*%
%ADD45C,0.0120*%
%ADD46C,0.0100*%
%ADD47C,0.0220*%
%ADD48C,0.0200*%
%ADD49C,0.0600*%
%ADD50C,0.0300*%
%ADD51C,0.0360*%
%ADD52C,0.0900*%
%ADD53C,0.0250*%
%ADD54C,0.0150*%
%ADD55C,0.0400*%
%ADD56C,0.0800*%
%ADD57C,0.2500*%
%ADD58C,0.0170*%
%ADD59R,0.0420X0.0420*%
%ADD60C,0.0420*%
%ADD61C,0.0650*%
%ADD62C,0.0620*%
%ADD63C,0.0600*%
%ADD64R,0.0600X0.0600*%
%ADD65R,0.0620X0.0620*%
%ADD66C,0.1200*%
%ADD67C,0.0500*%
%ADD68C,0.0510*%
%ADD69C,0.0390*%
%ADD70R,0.0900X0.0900*%
%ADD71C,0.0900*%
%ADD72C,0.0520*%
%ADD73C,0.0960*%
%ADD74C,0.1000*%
%ADD75C,0.0850*%
%ADD76C,0.0450*%
%ADD77C,0.0220*%
%ADD78C,0.0350*%
%ADD79C,0.0410*%
%ADD80C,0.0860*%
D10*
X114278Y82395D02*
X114209Y82467D01*
X114126Y82521D01*
X114031Y82553D01*
X113932Y82561D01*
X113834Y82545D01*
X113742Y82506D01*
X113663Y82446D01*
X113600Y82368D01*
X113558Y82278D01*
X113538Y82181D01*
X113543Y82081D01*
X113571Y81986D01*
X113622Y81900D01*
X113638Y81420D02*
X113582Y81337D01*
X113548Y81243D01*
X113537Y81143D01*
X113551Y81044D01*
X113589Y80951D01*
X113648Y80870D01*
X113724Y80805D01*
X113815Y80761D01*
X113913Y80741D01*
X114013Y80744D01*
X114109Y80772D01*
X114196Y80822D01*
X114268Y80892D01*
X83158Y80550D02*
X83147Y80650D01*
X83114Y80745D01*
X83060Y80831D01*
X82989Y80902D01*
X82903Y80955D01*
X82808Y80989D01*
X82708Y81000D01*
X82608Y80989D01*
X82513Y80955D01*
X82428Y80902D01*
X82356Y80831D01*
X82303Y80745D01*
X82269Y80650D01*
X82258Y80550D01*
X82269Y80450D01*
X82303Y80355D01*
X82356Y80269D01*
X82428Y80198D01*
X82513Y80145D01*
X82608Y80111D01*
X82708Y80100D01*
X82808Y80111D01*
X82903Y80145D01*
X82989Y80198D01*
X83060Y80269D01*
X83114Y80355D01*
X83147Y80450D01*
X83158Y80550D01*
X83023Y82050D02*
X83039Y81968D01*
X83086Y81898D01*
X83023Y82050D02*
X83039Y81968D01*
X83086Y81898D01*
X83075Y82810D02*
X83009Y82885D01*
X82928Y82942D01*
X82837Y82981D01*
X82739Y82999D01*
X82639Y82995D01*
X82543Y82969D01*
X82456Y82922D01*
X82380Y82858D01*
X82320Y82778D01*
X82280Y82688D01*
X82260Y82590D01*
X82262Y82491D01*
X82286Y82394D01*
X82330Y82305D01*
X82393Y82228D01*
X82472Y82167D01*
X82562Y82125D01*
X82659Y82103D01*
X82758Y82103D01*
X82855Y82125D01*
X82945Y82167D01*
X83023Y82229D01*
X84138Y80550D02*
X84126Y80649D01*
X84089Y80743D01*
X84030Y80824D01*
X83952Y80888D01*
X83862Y80930D01*
X83763Y80949D01*
X83663Y80943D01*
X83568Y80912D01*
X83483Y80858D01*
X83414Y80785D01*
X83366Y80697D01*
X83341Y80600D01*
Y80500D01*
X83366Y80403D01*
X83414Y80315D01*
X83483Y80242D01*
X83568Y80188D01*
X83663Y80157D01*
X83763Y80151D01*
X83862Y80170D01*
X83952Y80212D01*
X84030Y80276D01*
X84089Y80357D01*
X84126Y80451D01*
X84138Y80550D01*
X83348Y81636D02*
X83338Y81536D01*
X83355Y81436D01*
X83396Y81343D01*
X83459Y81264D01*
X83539Y81203D01*
X83633Y81164D01*
X83733Y81150D01*
X83834Y81162D01*
X83928Y81198D01*
X84011Y81257D01*
X84075Y81335D01*
X84075Y81765D02*
X84013Y81840D01*
X83935Y81898D01*
X83845Y81935D01*
X83749Y81950D01*
X83652Y81941D01*
X85269Y80520D02*
X85211Y80447D01*
X85172Y80362D01*
X85154Y80270D01*
X85158Y80176D01*
X85184Y80086D01*
X85231Y80005D01*
X85298Y80546D02*
X85269Y80520D01*
X84950Y81702D02*
X84880Y81749D01*
X84798Y81765D01*
X84950Y81702D02*
X84880Y81749D01*
X84798Y81765D01*
X83453Y82269D02*
X83536Y82205D01*
X83632Y82164D01*
X83736Y82150D01*
X83840Y82163D01*
X83937Y82203D01*
X84020Y82266D01*
X84084Y82349D01*
X84124Y82446D01*
X84138Y82550D01*
X84060Y83188D02*
X84107Y83258D01*
X84123Y83340D01*
X84138Y82550D02*
X84128Y82641D01*
X84097Y82727D01*
X84047Y82804D01*
X83981Y82868D01*
X83902Y82915D01*
X83815Y82943D01*
X84060Y83188D02*
X84107Y83258D01*
X84123Y83340D01*
X82218Y84920D02*
X82210Y85020D01*
X82184Y85117D01*
X82143Y85208D01*
X82087Y85291D01*
X82018Y85363D01*
X81937Y85422D01*
X81848Y85467D01*
X81752Y85497D01*
X81653Y85509D01*
X81553Y85505D01*
X81455Y85484D01*
X81362Y85447D01*
X81277Y85394D01*
X81202Y85328D01*
X81139Y85250D01*
X81090Y85163D01*
X81057Y85069D01*
X81040Y84970D01*
X81040Y84870D01*
X81057Y84771D01*
X81090Y84677D01*
X81139Y84590D01*
X81202Y84512D01*
X81277Y84446D01*
X81362Y84393D01*
X81455Y84356D01*
X81553Y84335D01*
X81653Y84331D01*
X81752Y84343D01*
X81848Y84373D01*
X81937Y84418D01*
X82018Y84477D01*
X82087Y84549D01*
X82143Y84632D01*
X82184Y84723D01*
X82210Y84820D01*
X82218Y84920D01*
X84281Y84764D02*
X84333Y84747D01*
X84123Y84788D02*
X84200Y84763D01*
X84281Y84764D01*
X84738Y84491D02*
X84688Y84370D01*
X84738Y84491D02*
X84688Y84370D01*
X83693Y86180D02*
X83613Y86236D01*
X83522Y86273D01*
X83426Y86289D01*
X83328Y86285D01*
X83234Y86259D01*
X83147Y86214D01*
X83073Y86151D01*
X83013Y86073D01*
X82972Y85984D01*
X82951Y85889D01*
Y85791D01*
X82972Y85696D01*
X83013Y85607D01*
X83073Y85529D01*
X83147Y85466D01*
X83234Y85421D01*
X83328Y85395D01*
X83426Y85391D01*
X83522Y85407D01*
X83613Y85444D01*
X83693Y85500D01*
X83577Y87253D02*
X83483Y87282D01*
X83385Y87290D01*
X83287Y87276D01*
X83195Y87241D01*
X83112Y87188D01*
X83044Y87117D01*
X82992Y87033D01*
X82959Y86940D01*
X82948Y86843D01*
X82958Y86745D01*
X82990Y86651D01*
X83040Y86567D01*
X83108Y86496D01*
X83190Y86441D01*
X83282Y86405D01*
X83379Y86390D01*
X83478Y86397D01*
X83572Y86425D01*
X83658Y86473D01*
X83848Y87840D02*
X83837Y87938D01*
X83805Y88032D01*
X83754Y88116D01*
X83685Y88187D01*
X83602Y88241D01*
X83510Y88276D01*
X83412Y88290D01*
X83313Y88282D01*
X83219Y88253D01*
X83133Y88204D01*
X83060Y88137D01*
X83003Y88056D01*
X82966Y87965D01*
X82949Y87867D01*
X82954Y87768D01*
X82980Y87673D01*
X83027Y87586D01*
X83091Y87511D01*
X83170Y87452D01*
X83260Y87412D01*
X83357Y87392D01*
X83456Y87394D01*
X83552Y87417D01*
X83658Y86473D02*
X83693Y86352D01*
X83628Y87260D02*
X83577Y87253D01*
X83628Y87260D02*
X83577Y87253D01*
X85943Y80240D02*
X85931Y80338D01*
X85894Y80430D01*
X85837Y80510D01*
X85761Y80573D01*
X85671Y80615D01*
X85574Y80634D01*
X85476Y80628D01*
X85382Y80598D01*
X85298Y80546D01*
X85866Y80005D02*
X85908Y80077D01*
X85934Y80157D01*
X85943Y80240D01*
X86198Y81523D02*
X86121Y81587D01*
X86027Y81625D01*
X85927Y81634D01*
X85829Y81613D01*
X85741Y81563D01*
X85672Y81490D01*
X85628Y81400D01*
X85613Y81300D01*
X85628Y81200D01*
X85672Y81110D01*
X85741Y81037D01*
X85829Y80987D01*
X85927Y80966D01*
X86027Y80975D01*
X86121Y81013D01*
X86198Y81077D01*
X86458Y80789D02*
X86578Y80739D01*
X86458Y80789D02*
X86578Y80739D01*
X84988Y82019D02*
X85007Y81916D01*
X85065Y81829D01*
X85154Y81774D01*
X85258Y81761D01*
X85358Y81791D01*
X88518Y80575D02*
X88428Y80616D01*
X88331Y80634D01*
X88232Y80628D01*
X88138Y80596D01*
X88054Y80543D01*
X87987Y80470D01*
X87940Y80383D01*
X87916Y80286D01*
X87917Y80187D01*
X87942Y80091D01*
X87991Y80005D01*
X88218Y80739D02*
X88339Y80789D01*
X88218Y80739D02*
X88339Y80789D01*
X88574Y80532D02*
X88518Y80575D01*
X88349Y80800D02*
X88441Y80822D01*
X88518Y80877D01*
X87439Y81719D02*
X87465Y81753D01*
X87439Y81719D02*
X87465Y81753D01*
X87531Y81686D02*
X87423Y81704D01*
X90603Y83770D02*
X90587Y83852D01*
X90540Y83922D01*
X90603Y83770D02*
X90587Y83852D01*
X90540Y83922D01*
X90828Y83850D02*
X90839Y83752D01*
X90872Y83659D01*
X90924Y83576D01*
X90994Y83506D01*
X91077Y83454D01*
X91170Y83421D01*
X91268Y83410D01*
X91366Y83421D01*
X91459Y83454D01*
X91542Y83506D01*
X91612Y83576D01*
X91665Y83659D01*
X91697Y83752D01*
X91708Y83850D01*
X90273Y85630D02*
X90233Y85755D01*
X90273Y85630D02*
X90233Y85755D01*
Y86542D02*
X90268Y86670D01*
X90248Y86769D01*
X90189Y86852D01*
X90103Y86905D01*
X90002Y86919D01*
X89904Y86893D01*
X89825Y86829D01*
X89778Y86739D01*
X89770Y86638D01*
X89803Y86542D01*
X90513Y84000D02*
X90497Y84082D01*
X90450Y84152D01*
X90513Y84000D02*
X90497Y84082D01*
X90450Y84152D01*
X90608Y85290D02*
X90623Y85176D01*
X90667Y85070D01*
X90737Y84979D01*
X90608Y85290D02*
X90623Y85176D01*
X90667Y85070D01*
X90737Y84979D01*
X91708Y85070D02*
X91693Y85184D01*
X91649Y85290D01*
X91579Y85381D01*
X91708Y85070D02*
X91693Y85184D01*
X91649Y85290D01*
X91579Y85381D01*
X91488Y87275D02*
X91581Y87274D01*
X91668Y87306D01*
X91737Y87369D01*
X91779Y87452D01*
X82228Y88440D02*
X82220Y88540D01*
X82194Y88637D01*
X82153Y88728D01*
X82097Y88811D01*
X82028Y88883D01*
X81947Y88942D01*
X81858Y88987D01*
X81762Y89017D01*
X81663Y89029D01*
X81563Y89025D01*
X81465Y89004D01*
X81372Y88967D01*
X81287Y88914D01*
X81212Y88848D01*
X81149Y88770D01*
X81100Y88683D01*
X81067Y88589D01*
X81050Y88490D01*
X81050Y88390D01*
X81067Y88291D01*
X81100Y88197D01*
X81149Y88110D01*
X81212Y88032D01*
X81287Y87966D01*
X81372Y87913D01*
X81465Y87876D01*
X81563Y87855D01*
X81663Y87851D01*
X81762Y87863D01*
X81858Y87893D01*
X81947Y87938D01*
X82028Y87997D01*
X82097Y88069D01*
X82153Y88152D01*
X82194Y88243D01*
X82220Y88340D01*
X82228Y88440D01*
X83821Y87686D02*
X83841Y87762D01*
X83848Y87840D01*
X83908Y87832D02*
X83862Y87751D01*
X83848Y87658D01*
X83708Y88700D02*
X83764Y88565D01*
X83708Y88700D02*
X83764Y88566D01*
Y89394D02*
X83743Y89370D01*
X83764Y89395D02*
X83743Y89370D01*
X80223Y91570D02*
X80272Y91480D01*
X80335Y91399D01*
X80409Y91329D01*
X80494Y91272D01*
X80587Y91229D01*
X80686Y91202D01*
X80788Y91190D01*
X80890Y91195D01*
X80990Y91217D01*
X81086Y91253D01*
X81174Y91305D01*
X81253Y91370D01*
X81321Y91447D01*
X81376Y91534D01*
X81416Y91628D01*
X81440Y91728D01*
X81448Y91830D01*
Y91830D02*
X81440Y91932D01*
X81416Y92032D01*
X81376Y92126D01*
X81321Y92213D01*
X81253Y92290D01*
X81174Y92355D01*
X81086Y92407D01*
X80990Y92443D01*
X80890Y92465D01*
X80788Y92470D01*
X80686Y92458D01*
X80587Y92431D01*
X80494Y92388D01*
X80409Y92331D01*
X80335Y92261D01*
X80272Y92180D01*
X80223Y92090D01*
X81878Y93230D02*
X81869Y93329D01*
X81844Y93425D01*
X81802Y93515D01*
X81745Y93596D01*
X81674Y93667D01*
X81593Y93724D01*
X81503Y93766D01*
X81407Y93791D01*
X81308Y93800D01*
X81209Y93791D01*
X81113Y93766D01*
X81023Y93724D01*
X80942Y93667D01*
X80871Y93596D01*
X80814Y93515D01*
X80772Y93425D01*
X80747Y93329D01*
X80738Y93230D01*
X80747Y93131D01*
X80772Y93035D01*
X80814Y92945D01*
X80871Y92864D01*
X80942Y92793D01*
X81023Y92736D01*
X81113Y92694D01*
X81209Y92669D01*
X81308Y92660D01*
X81407Y92669D01*
X81503Y92694D01*
X81593Y92736D01*
X81674Y92793D01*
X81745Y92864D01*
X81802Y92945D01*
X81844Y93035D01*
X81869Y93131D01*
X81878Y93230D01*
X80380Y95095D02*
X80321Y95019D01*
X80275Y94934D01*
X80242Y94844D01*
X80223Y94750D01*
Y94590D02*
X80244Y94491D01*
X80280Y94396D01*
X80330Y94308D01*
X80394Y94229D01*
X80470Y94161D01*
X80555Y94106D01*
X80648Y94065D01*
X80746Y94040D01*
X80847Y94030D01*
X80949Y94036D01*
X81048Y94059D01*
X81142Y94096D01*
X81229Y94148D01*
X81307Y94214D01*
X81373Y94290D01*
X81427Y94377D01*
X81466Y94470D01*
X81490Y94569D01*
X81498Y94670D01*
X81491Y94763D01*
X81471Y94853D01*
X81438Y94940D01*
X81393Y95021D01*
X81337Y95095D01*
X83449Y92436D02*
X83373Y92372D01*
X83308Y92297D01*
X83256Y92212D01*
X83218Y92120D01*
X83195Y92023D01*
X83188Y91924D01*
X83197Y91825D01*
X83222Y91729D01*
X83261Y91638D01*
X83315Y91554D01*
X83382Y91480D01*
X83657Y92613D02*
X83591Y92569D01*
X83531Y92517D01*
X83657Y92613D02*
X83591Y92569D01*
X83531Y92517D01*
X84027Y91350D02*
X84123Y91396D01*
X84209Y91457D01*
X84284Y91533D01*
X84345Y91620D01*
X84372Y91294D02*
X84238Y91350D01*
X84373Y91294D02*
X84238Y91350D01*
X84588Y91620D02*
X84665Y91625D01*
X84588Y91620D02*
X84665Y91625D01*
X83503Y93230D02*
X83494Y93331D01*
X83467Y93429D01*
X83423Y93520D01*
X83364Y93602D01*
X83290Y93672D01*
X83206Y93728D01*
X83113Y93767D01*
X83014Y93790D01*
X82913Y93794D01*
X82812Y93781D01*
X82716Y93750D01*
X82627Y93702D01*
X82548Y93638D01*
X82481Y93562D01*
X82429Y93475D01*
X82393Y93380D01*
X82375Y93281D01*
Y93179D01*
X82393Y93080D01*
X82429Y92985D01*
X82481Y92898D01*
X82548Y92822D01*
X82627Y92758D01*
X82716Y92710D01*
X82812Y92679D01*
X82913Y92666D01*
X83014Y92670D01*
X83113Y92693D01*
X83206Y92732D01*
X83290Y92788D01*
X83364Y92858D01*
X83423Y92940D01*
X83467Y93031D01*
X83494Y93129D01*
X83503Y93230D01*
X84078Y92800D02*
X83988Y92791D01*
X83900Y92769D01*
X83817Y92734D01*
X83740Y92686D01*
X83671Y92627D01*
X84078Y92800D02*
X83988Y92791D01*
X83900Y92769D01*
X83817Y92734D01*
X83740Y92686D01*
X83671Y92627D01*
X84251Y93367D02*
X84191Y93297D01*
X84142Y93218D01*
X84107Y93132D01*
X84085Y93042D01*
X84078Y92950D01*
X84251Y93367D02*
X84191Y93297D01*
X84142Y93218D01*
X84107Y93132D01*
X84085Y93042D01*
X84078Y92950D01*
X83634Y95095D02*
X83539Y95059D01*
X83451Y95007D01*
X83373Y94942D01*
X83307Y94865D01*
X83254Y94779D01*
X83216Y94684D01*
X83194Y94585D01*
X83188Y94484D01*
X83199Y94383D01*
X83227Y94285D01*
X83269Y94193D01*
X83327Y94109D01*
X83397Y94036D01*
X83478Y93975D01*
X83568Y93928D01*
X83665Y93897D01*
X83765Y93881D01*
X83867Y93883D01*
X83967Y93901D01*
X84063Y93935D01*
X84151Y93984D01*
X84231Y94047D01*
X84299Y94122D01*
X84355Y94207D01*
X84395Y94300D01*
X84420Y94399D01*
X84428Y94500D01*
Y94500D02*
X84420Y94599D01*
X84396Y94696D01*
X84357Y94788D01*
X84304Y94872D01*
X84238Y94946D01*
X84161Y95009D01*
X84075Y95059D01*
X83982Y95095D01*
X90009Y88389D02*
X90059Y88510D01*
X90009Y88389D02*
X90059Y88510D01*
X85028Y90610D02*
X84982Y90685D01*
X85028Y90610D02*
X84982Y90684D01*
X86326Y91138D02*
X86393Y91145D01*
X90737Y88561D02*
X90667Y88470D01*
X90623Y88364D01*
X90608Y88250D01*
X90737Y88561D02*
X90667Y88470D01*
X90623Y88364D01*
X90608Y88250D01*
X90059Y89073D02*
X90148Y89060D01*
X90059Y89073D02*
X90148Y89060D01*
X91912Y87585D02*
X91968Y87720D01*
X91912Y87586D02*
X91968Y87720D01*
X90787Y91410D02*
X90778Y91340D01*
X91681Y90398D02*
X91795Y90463D01*
X91681Y90398D02*
X91795Y90463D01*
X92208Y90520D02*
X92125Y90509D01*
X92048Y90477D01*
X91982Y90426D01*
X92208Y90520D02*
X92125Y90509D01*
X92048Y90477D01*
X91982Y90426D01*
X91895Y90563D02*
X91949Y90644D01*
X91968Y90740D01*
X84992Y91625D02*
X84973Y91521D01*
X84985Y91417D01*
X85026Y91320D01*
X85094Y91239D01*
X85181Y91180D01*
X85282Y91149D01*
X85387Y91148D01*
X85488Y91177D01*
X85702Y91537D02*
X85679Y91639D01*
X85629Y91731D01*
X85554Y91805D01*
X85461Y91854D01*
X85358Y91874D01*
X85253Y91865D01*
X85883Y91713D02*
X85850Y91684D01*
X85883Y91713D02*
X85850Y91684D01*
X85253Y92213D02*
X85258Y92290D01*
X85253Y92213D02*
X85258Y92290D01*
X85835Y93283D02*
X85895Y93353D01*
X85944Y93432D01*
X85979Y93518D01*
X86001Y93608D01*
X86008Y93700D01*
X85835Y93283D02*
X85895Y93353D01*
X85944Y93432D01*
X85979Y93518D01*
X86001Y93608D01*
X86008Y93700D01*
X86000Y93796D01*
X85977Y93890D01*
X85938Y93979D01*
X86008Y93700D02*
X86000Y93796D01*
X85977Y93890D01*
X85938Y93979D01*
X85697Y94220D02*
X85611Y94258D01*
X85520Y94281D01*
X85426Y94290D01*
X85332Y94284D01*
X85240Y94263D01*
X85153Y94227D01*
X85073Y94178D01*
X85001Y94117D01*
X85697Y94220D02*
X85611Y94258D01*
X85520Y94281D01*
X85426Y94290D01*
X85332Y94284D01*
X85240Y94263D01*
X85153Y94227D01*
X85073Y94178D01*
X85001Y94117D01*
X85968Y94420D02*
X85848Y94371D01*
X85968Y94420D02*
X85848Y94371D01*
X87633Y92305D02*
X87539Y92368D01*
X87428Y92390D01*
X87633Y92305D02*
X87539Y92368D01*
X87428Y92390D01*
X87848Y92920D02*
X87898Y92799D01*
X87848Y92920D02*
X87898Y92799D01*
X87978Y92441D02*
X87928Y92320D01*
X87978Y92441D02*
X87928Y92320D01*
X92059Y92885D02*
X92036Y92914D01*
X92059Y92885D02*
X92036Y92914D01*
X87774Y94080D02*
X87758Y93986D01*
X87766Y93891D01*
X87796Y93801D01*
X87848Y93721D01*
X87908Y94521D02*
X87788Y94471D01*
X87908Y94521D02*
X87788Y94471D01*
X89038Y94650D02*
X89027Y94750D01*
X88993Y94845D01*
X88938Y94929D01*
X88866Y94999D01*
X88779Y95051D01*
X88683Y95082D01*
X88583Y95090D01*
X88483Y95075D01*
X88390Y95038D01*
X88307Y94980D01*
X88240Y94905D01*
X88191Y94817D01*
X88164Y94720D01*
X88159Y94620D01*
X88178Y94521D01*
X89012Y94501D02*
X89031Y94574D01*
X89038Y94650D01*
X90089Y94771D02*
X89989Y94819D01*
X90089Y94771D02*
X89989Y94819D01*
X89942Y94904D01*
X89878Y94977D01*
X89799Y95033D01*
X89710Y95071D01*
X89614Y95089D01*
X89517Y95085D01*
X89424Y95060D01*
X89338Y95015D01*
X89264Y94953D01*
X89205Y94875D01*
X89165Y94787D01*
X89145Y94692D01*
X89147Y94595D01*
X89169Y94501D01*
X90870Y94970D02*
X90786Y95033D01*
X90688Y95073D01*
X90585Y95090D01*
X90480Y95081D01*
X90380Y95048D01*
X90291Y94992D01*
X90218Y94916D01*
X90165Y94826D01*
X90134Y94725D01*
X91218Y95095D02*
X91248Y95098D01*
X91218Y95095D02*
X91248Y95098D01*
X94598Y81195D02*
X94516Y81179D01*
X94446Y81132D01*
X94598Y81195D02*
X94516Y81179D01*
X94446Y81132D01*
X95668Y81425D02*
X95586Y81409D01*
X95516Y81362D01*
X95668Y81425D02*
X95586Y81409D01*
X95516Y81362D01*
X96298Y81401D02*
X96178Y81351D01*
X96298Y81401D02*
X96178Y81351D01*
X96075Y81248D02*
X96042Y81339D01*
X95977Y81411D01*
X95889Y81453D01*
X95792Y81457D01*
X95701Y81425D01*
X95908Y88730D02*
X95901Y88624D01*
X95938Y88525D01*
X96013Y88450D01*
X96112Y88413D01*
X96218Y88420D01*
X96311Y88471D01*
X95084Y88706D02*
X95218Y88650D01*
X95083Y88706D02*
X95218Y88650D01*
X96778Y81541D02*
X96658Y81491D01*
X96778Y81541D02*
X96658Y81491D01*
X97219D02*
X97098Y81541D01*
X96311Y88471D02*
X96343Y88383D01*
X96404Y88313D01*
X96486Y88271D01*
X96578Y88261D01*
X96668Y88285D01*
X96742Y88341D01*
X96791Y88420D01*
X97219Y81491D02*
X97098Y81541D01*
X95546Y88652D02*
X95663Y88665D01*
X95761Y88730D01*
X95799Y89261D02*
X95678Y89311D01*
X95799Y89261D02*
X95678Y89311D01*
X95415D02*
X95338Y89329D01*
X98458Y89320D02*
X98506Y89200D01*
X98458Y89320D02*
X98506Y89200D01*
X99567Y83050D02*
X99446Y83001D01*
X99567Y83050D02*
X99446Y83001D01*
X99548Y87049D02*
X99668Y87000D01*
X99548Y87049D02*
X99668Y87000D01*
X99809Y80877D02*
X99893Y80843D01*
X99983Y80834D01*
X100072Y80851D01*
X100153Y80893D01*
X100218Y80956D01*
X99109Y88540D02*
X99149Y88569D01*
X100218Y88471D02*
X100147Y88538D01*
X100058Y88580D01*
X99961Y88593D01*
X99865Y88576D01*
X99779Y88531D01*
X99710Y88461D01*
X99666Y88373D01*
X99651Y88277D01*
X100218Y80956D02*
X100288Y80890D01*
X100374Y80848D01*
X100468Y80834D01*
X100563Y80848D01*
X100649Y80890D01*
X100718Y80956D01*
X100718Y88471D02*
X100649Y88537D01*
X100563Y88579D01*
X100468Y88594D01*
X100374Y88579D01*
X100288Y88537D01*
X100218Y88471D01*
X100718Y80956D02*
X100788Y80890D01*
X100874Y80848D01*
X100968Y80834D01*
X101063Y80848D01*
X101149Y80890D01*
X101218Y80956D01*
X100813Y88553D02*
X100718Y88471D01*
X99109Y88540D02*
X99149Y88569D01*
X99191Y89094D02*
X99133Y89168D01*
X99052Y89215D01*
X98959Y89230D01*
X99749Y89169D02*
X99799Y89290D01*
X99749Y89169D02*
X99799Y89290D01*
X100788Y88993D02*
X100710Y88919D01*
X100671Y88819D01*
X100677Y88712D01*
X100728Y88618D01*
X100813Y88553D01*
X92886Y89687D02*
X92865Y89790D01*
X92821Y89884D01*
X92914Y89915D01*
X92994Y89974D01*
X92918Y89690D02*
X92886Y89687D01*
X95032Y89634D02*
X94898Y89690D01*
X95033Y89634D02*
X94898Y89690D01*
X92918D02*
X92886Y89687D01*
X92821Y89884D02*
X92915Y89916D01*
X92995Y89974D01*
X94792Y90600D02*
X94719Y90528D01*
X94682Y90432D01*
X94686Y90330D01*
X94730Y90237D01*
X94809Y90170D01*
X94907Y90141D01*
X95009Y90153D01*
X95097Y90206D01*
X95157Y90289D01*
X95178Y90390D01*
X95546Y90042D02*
X95499Y89972D01*
X95483Y89890D01*
X95546Y90042D02*
X95499Y89972D01*
X95483Y89890D01*
Y89868D02*
X95450Y89772D01*
X95458Y89671D01*
X95505Y89581D01*
X95584Y89517D01*
X95682Y89491D01*
X95783Y89505D01*
X95869Y89558D01*
X95928Y89641D01*
X95948Y89740D01*
X95934Y89822D01*
X93804Y90783D02*
X93855Y90850D01*
X94328Y90670D02*
X94406Y90618D01*
X94498Y90600D01*
X94328Y90670D02*
X94406Y90618D01*
X94498Y90600D01*
X93804Y90784D02*
X93855Y90850D01*
X98799Y89524D02*
X98891Y89575D01*
X98970Y89647D01*
X99029Y89735D01*
X99066Y89835D01*
X99078Y89940D01*
X97413Y90335D02*
X97331Y90278D01*
X97264Y90205D01*
X97215Y90118D01*
X97186Y90023D01*
X97178Y89924D01*
X97193Y89825D01*
X97229Y89732D01*
X97284Y89649D01*
X97357Y89581D01*
X97442Y89530D01*
X97537Y89499D01*
X97636Y89490D01*
X97735Y89503D01*
X97829Y89537D01*
X97912Y89591D01*
X97982Y89662D01*
X98035Y89747D01*
X98067Y89841D01*
X98078Y89940D01*
X98068Y90036D01*
X98037Y90127D01*
X97988Y90210D01*
X97922Y90280D01*
X97843Y90335D01*
X99078Y89940D02*
X99066Y90042D01*
X99032Y90138D01*
X98977Y90224D01*
X98904Y90295D01*
X98817Y90348D01*
X98720Y90381D01*
X98618Y90390D01*
X98517Y90376D01*
X98421Y90340D01*
X98337Y90283D01*
X98267Y90208D01*
X98216Y90120D01*
X98186Y90022D01*
X98179Y89920D01*
X98195Y89819D01*
X98233Y89724D01*
X98292Y89641D01*
X98368Y89573D01*
X98458Y89524D01*
X99799Y89524D02*
X99891Y89575D01*
X99970Y89647D01*
X100029Y89735D01*
X100066Y89835D01*
X100078Y89940D01*
X100066Y90042D01*
X100032Y90138D01*
X99977Y90224D01*
X99904Y90295D01*
X99817Y90348D01*
X99720Y90381D01*
X99618Y90390D01*
X99517Y90376D01*
X99421Y90340D01*
X99337Y90283D01*
X99267Y90208D01*
X99216Y90120D01*
X99186Y90022D01*
X99179Y89920D01*
X99195Y89819D01*
X99233Y89724D01*
X99292Y89641D01*
X99368Y89573D01*
X99458Y89524D01*
X100918Y90285D02*
X100835Y90340D01*
X100742Y90375D01*
X100644Y90390D01*
X100545Y90382D01*
X100450Y90353D01*
X100364Y90304D01*
X100290Y90237D01*
X100233Y90156D01*
X100195Y90064D01*
X100179Y89966D01*
X100184Y89867D01*
X100211Y89771D01*
X100258Y89684D01*
X100323Y89609D01*
X100404Y89550D01*
X100495Y89510D01*
X100592Y89491D01*
X100691Y89494D01*
X100788Y89519D01*
X98078Y90435D02*
X98160Y90451D01*
X98230Y90498D01*
X98078Y90435D02*
X98160Y90451D01*
X98230Y90498D01*
X98618Y90605D02*
X98700Y90621D01*
X98770Y90668D01*
X98618Y90605D02*
X98700Y90621D01*
X98770Y90668D01*
X99911Y90815D02*
X100010Y90782D01*
X100114Y90792D01*
X100204Y90843D01*
X100266Y90928D01*
X100288Y91030D01*
X100278Y91100D01*
X100348D02*
X100469Y91149D01*
X100348Y91100D02*
X100469Y91149D01*
X101452Y80005D02*
X101501Y80118D01*
X101518Y80240D01*
X101508Y80337D01*
X101476Y80429D01*
X101426Y80513D01*
X101359Y80584D01*
X101278Y80638D01*
X101187Y80674D01*
X101091Y80689D01*
X100994Y80684D01*
X100900Y80657D01*
X100814Y80611D01*
X100740Y80548D01*
X100681Y80470D01*
X100641Y80381D01*
X100620Y80286D01*
X100621Y80188D01*
X100643Y80093D01*
X100684Y80005D01*
X101218Y80956D02*
X101288Y80890D01*
X101374Y80848D01*
X101468Y80834D01*
X101563Y80848D01*
X101649Y80890D01*
X101718Y80956D01*
X101798Y80600D02*
X101728Y80535D01*
X101674Y80457D01*
X101637Y80370D01*
X101620Y80277D01*
X101622Y80183D01*
X101644Y80090D01*
X101684Y80005D01*
X101718Y80956D02*
X101798Y80883D01*
X103958Y82430D02*
X103968Y82500D01*
X104463Y82301D02*
X104468Y82350D01*
X103968Y82500D02*
X103948Y82598D01*
X103892Y82680D01*
X103808Y82733D01*
X103709Y82750D01*
X104468Y82350D02*
X104448Y82448D01*
X104392Y82530D01*
X104307Y82584D01*
X104209Y82600D01*
X104112Y82576D01*
X104032Y82517D01*
X103981Y82430D01*
X103459Y83001D02*
X103338Y83050D01*
X103459Y83001D02*
X103338Y83050D01*
X103438Y87000D02*
X103559Y87049D01*
X103438Y87000D02*
X103559Y87049D01*
X103848Y87100D02*
X103969Y87149D01*
X103848Y87100D02*
X103969Y87149D01*
X108208Y80395D02*
X108134Y80452D01*
X108048Y80488D01*
X107955Y80500D01*
X107863Y80487D01*
X107513Y80837D02*
X107627Y80876D01*
X107718Y80956D01*
X108608Y80466D02*
X108505Y80497D01*
X108397Y80495D01*
X108295Y80459D01*
X108208Y80395D01*
X107718Y80956D02*
X107788Y80890D01*
X107874Y80848D01*
X107968Y80834D01*
X108063Y80848D01*
X108149Y80890D01*
X108218Y80956D01*
X108218Y81778D02*
X108139Y81851D01*
Y82010D02*
X108089Y82131D01*
X108139Y82010D02*
X108089Y82131D01*
X108298Y81851D02*
X108218Y81778D01*
X108218Y80956D02*
X108288Y80890D01*
X108374Y80848D01*
X108468Y80834D01*
X108563Y80848D01*
X108649Y80890D01*
X108718Y80956D01*
X108718Y81778D02*
X108639Y81851D01*
X108718Y80956D02*
X108794Y80885D01*
X108889Y80843D01*
X108992Y80834D01*
X109093Y80859D01*
Y81875D02*
X108992Y81900D01*
X108889Y81891D01*
X108794Y81849D01*
X108718Y81778D01*
X108639Y81986D02*
X108712Y82041D01*
X108761Y82119D01*
X108778Y82210D01*
X106861Y82292D02*
X106808Y82301D01*
X106861Y82292D02*
X106808Y82301D01*
X107358Y82340D02*
X107333Y82438D01*
X107272Y82519D01*
X107184Y82568D01*
X107084Y82579D01*
X106987Y82549D01*
X106911Y82483D01*
X106866Y82393D01*
X106861Y82292D01*
X107929Y82291D02*
X107808Y82340D01*
X107929Y82291D02*
X107808Y82340D01*
X108778Y82210D02*
X108759Y82306D01*
X108705Y82387D01*
X108623Y82441D01*
X108528Y82460D01*
X108432Y82441D01*
X108351Y82386D01*
X108297Y82305D01*
X108278Y82209D01*
X108298Y82113D01*
X104768Y87220D02*
X104889Y87269D01*
X104768Y87220D02*
X104889Y87269D01*
X102298Y88544D02*
X102218Y88471D01*
X105228Y87350D02*
X105349Y87399D01*
X105228Y87350D02*
X105349Y87399D01*
X105476Y87527D02*
X105568Y87543D01*
X105651Y87584D01*
X105718Y87649D01*
X102218Y88471D02*
X102132Y88548D01*
X102024Y88589D01*
X101908Y88588D01*
X102317Y88820D02*
X102298Y88740D01*
X105718Y87649D02*
X105788Y87583D01*
X105874Y87541D01*
X105968Y87527D01*
X106063Y87541D01*
X106149Y87583D01*
X106218Y87649D01*
X106288Y87583D01*
X106374Y87541D01*
X106468Y87527D01*
X106563Y87541D01*
X106649Y87583D01*
X106718Y87649D01*
X106718D02*
X106788Y87583D01*
X106874Y87541D01*
X106968Y87527D01*
X107063Y87541D01*
X107149Y87583D01*
X107218Y87649D01*
X107288Y87583D01*
X107374Y87541D01*
X107468Y87527D01*
X107563Y87541D01*
X107649Y87583D01*
X107718Y87649D01*
X107788Y87583D01*
X107874Y87541D01*
X107968Y87527D01*
X108063Y87541D01*
X108149Y87583D01*
X108218Y87649D01*
Y88471D02*
X108139Y88543D01*
X108041Y88585D01*
X104228Y88850D02*
X104158Y88843D01*
X103548Y89189D02*
X103658Y89140D01*
X103548Y89189D02*
X103658Y89140D01*
X104158Y89140D02*
X104228Y89155D01*
X104158Y89140D02*
X104228Y89155D01*
X107843Y89330D02*
X107876Y89215D01*
X107843Y89330D02*
X107876Y89215D01*
X108228Y87580D02*
X108246Y87488D01*
X108298Y87410D01*
X108228Y87580D02*
X108246Y87488D01*
X108298Y87410D01*
X108373Y88579D02*
X108287Y88537D01*
X108218Y88471D01*
X108668Y89430D02*
X108588Y89445D01*
X108668Y89430D02*
X108588Y89445D01*
X108399Y87310D02*
X108459Y87238D01*
X108541Y87192D01*
X108634Y87180D01*
X108724Y87204D01*
X108800Y87259D01*
X108851Y87338D01*
X108868Y87430D01*
X108849Y87527D01*
X108757Y90380D02*
X108651Y90360D01*
X108563Y90298D01*
X108510Y90205D01*
X108568Y89957D02*
X108649Y89901D01*
X108745Y89880D01*
X108842Y89898D01*
X108924Y89952D01*
X108979Y90034D01*
X108998Y90130D01*
X94345Y92970D02*
X94302Y93034D01*
X94345Y92970D02*
X94302Y93035D01*
X97778Y91927D02*
X97712Y91986D01*
X97628Y92070D02*
X97550Y92122D01*
X97458Y92140D01*
X97628Y92070D02*
X97550Y92122D01*
X97458Y92140D01*
X97428Y92230D02*
X97522Y92249D01*
X97428Y92230D02*
X97522Y92249D01*
X97617Y92242D01*
X97707Y92271D01*
X97778Y92333D01*
X97844Y92274D01*
X97927Y92243D01*
X98016Y92245D01*
X98098Y92278D01*
X98204Y92004D02*
X98163Y91944D01*
X98204Y92005D02*
X98163Y91944D01*
X99813Y91908D02*
X99780Y91811D01*
X99788Y91710D01*
X98153Y91933D02*
X98069Y91998D01*
X97964Y92020D01*
X97860Y91995D01*
X97778Y91927D01*
X99498Y91890D02*
X99550Y91968D01*
X99568Y92060D01*
X99498Y91890D02*
X99550Y91968D01*
X99568Y92060D01*
X97778Y92927D02*
X97696Y92994D01*
X97592Y93020D01*
X97488Y92998D01*
X98098Y92982D02*
X98016Y93015D01*
X97927Y93017D01*
X97844Y92986D01*
X97778Y92927D01*
X94105Y93891D02*
X94070Y94002D01*
X93977Y94071D01*
X93807Y94241D02*
X93725Y94286D01*
X93807Y94241D02*
X93725Y94286D01*
X93884Y94445D02*
X93978Y94417D01*
X94076Y94410D01*
X94173Y94425D01*
X94265Y94460D01*
X94347Y94515D01*
X94415Y94586D01*
X94466Y94669D01*
X94497Y94762D01*
X94508Y94860D01*
X94491Y94982D01*
X94442Y95095D01*
X98342Y93644D02*
X98208Y93700D01*
X98343Y93644D02*
X98208Y93700D01*
X97616Y93918D02*
X97686Y93871D01*
X97768Y93855D01*
X97616Y93918D02*
X97686Y93871D01*
X97768Y93855D01*
X96998Y94595D02*
X96916Y94579D01*
X96846Y94532D01*
X96998Y94595D02*
X96916Y94579D01*
X96846Y94532D01*
X105608Y91630D02*
X105590Y91723D01*
X105539Y91803D01*
X105462Y91858D01*
X105369Y91880D01*
X105276Y91866D01*
X105194Y91818D01*
X105135Y91744D01*
X105603Y92260D02*
X105589Y92357D01*
X105548Y92447D01*
X105484Y92521D01*
X105401Y92574D01*
X105307Y92601D01*
X105209D01*
X105115Y92574D01*
X105032Y92521D01*
X104968Y92447D01*
X104927Y92357D01*
X104913Y92260D01*
X104927Y92163D01*
X104968Y92073D01*
X105032Y91999D01*
X105115Y91946D01*
X105209Y91919D01*
X105307D01*
X105401Y91946D01*
X105484Y91999D01*
X105548Y92073D01*
X105589Y92163D01*
X105603Y92260D01*
X108077Y91450D02*
X108083Y91500D01*
X108077Y91450D02*
X108083Y91500D01*
X107653Y91589D02*
X107611Y91525D01*
X107593Y91450D01*
X107653Y91589D02*
X107611Y91525D01*
X107593Y91450D01*
X106769Y91551D02*
X106648Y91601D01*
X106769Y91551D02*
X106648Y91601D01*
X107293Y93120D02*
X107309Y93038D01*
X107356Y92968D01*
X107293Y93120D02*
X107309Y93038D01*
X107356Y92968D01*
X108393Y93370D02*
X108338Y93300D01*
X108302Y93219D01*
X108288Y93131D01*
X108297Y93042D01*
X108562Y92778D02*
X108666Y92771D01*
X108767Y92795D01*
X108857Y92847D01*
X108928Y92923D01*
X108973Y93017D01*
X108988Y93120D01*
X108976Y93212D01*
X108940Y93297D01*
X108883Y93370D01*
X103361Y93861D02*
X103464Y93841D01*
X103570Y93849D01*
X103669Y93885D01*
X103755Y93946D01*
X103822Y94028D01*
X103864Y94125D01*
X103878Y94230D01*
X102406Y94122D02*
X102359Y94052D01*
X102343Y93970D01*
X102406Y94122D02*
X102359Y94052D01*
X102343Y93970D01*
X103878Y94230D02*
X103869Y94315D01*
X103841Y94395D01*
X104955D02*
X104921Y94305D01*
X104914Y94209D01*
X104933Y94115D01*
X104978Y94029D01*
X105044Y93959D01*
X105127Y93911D01*
X105220Y93887D01*
X105317Y93890D01*
X105408Y93919D01*
X105488Y93973D01*
X105550Y94047D01*
X105590Y94135D01*
X105603Y94230D01*
X101543Y94401D02*
X101647Y94407D01*
X101747Y94437D01*
X101837Y94489D01*
X101913Y94561D01*
X101970Y94648D01*
X102006Y94746D01*
X102018Y94850D01*
X102010Y94936D01*
X101985Y95019D01*
X101946Y95095D01*
X102191D02*
X102146Y95006D01*
X102122Y94910D01*
X102120Y94810D01*
X102139Y94713D01*
X102180Y94622D01*
X102240Y94543D01*
X102315Y94478D01*
X102403Y94431D01*
X102499Y94405D01*
X102598Y94401D01*
X102997Y94713D02*
X103018Y94850D01*
X103238Y94865D02*
X103156Y94849D01*
X103086Y94802D01*
X103238Y94865D02*
X103156Y94849D01*
X103086Y94802D01*
X103018Y94850D02*
X103010Y94936D01*
X102985Y95019D01*
X102946Y95095D01*
X103803Y94825D02*
X103678Y94865D01*
X103803Y94825D02*
X103678Y94865D01*
X103743Y94950D02*
X103806Y94825D01*
X103743Y94950D02*
X103806Y94825D01*
X105603Y94230D02*
X105592Y94315D01*
X105561Y94395D01*
X106745D02*
X106715Y94301D01*
X106709Y94203D01*
X106728Y94106D01*
X106771Y94018D01*
X106835Y93943D01*
X106915Y93886D01*
X107007Y93851D01*
X107105Y93840D01*
X107202Y93854D01*
X107293Y93892D01*
X108883Y93370D02*
X108940Y93443D01*
X108976Y93528D01*
X108988Y93620D01*
X108976Y93712D01*
X108940Y93797D01*
X108883Y93870D01*
X108940Y93943D01*
X108976Y94028D01*
X108988Y94120D01*
X108980Y94197D01*
X108954Y94270D01*
X107723Y94400D02*
X107707Y94482D01*
X107660Y94552D01*
X107723Y94400D02*
X107707Y94482D01*
X107660Y94552D01*
X106690Y94825D02*
X106753Y94950D01*
X106690Y94825D02*
X106753Y94950D01*
X106988Y94875D02*
X106850Y94825D01*
X106988Y94875D02*
X106850Y94825D01*
X107400Y94812D02*
X107330Y94859D01*
X107248Y94875D01*
X107400Y94812D02*
X107330Y94859D01*
X107248Y94875D01*
X101260Y74392D02*
X102388Y75520D01*
X104994Y76111D02*
X105218D01*
X114164Y82500D02*
X114278D01*
Y82395D02*
Y83480D01*
X114078Y82540D02*
X114278D01*
X110608D02*
X113818D01*
X110608Y82500D02*
X113733D01*
X114218Y82460D02*
X114278D01*
X110608D02*
X113678D01*
X110608Y82420D02*
X113638D01*
X110608Y82380D02*
X113607D01*
X110608Y82340D02*
X113584D01*
X110608Y82300D02*
X113565D01*
X110608Y82260D02*
X113552D01*
X110608Y82220D02*
X113543D01*
X110608Y82180D02*
X113538D01*
X111029Y82020D02*
X113558D01*
X111029Y81980D02*
X113574D01*
X111029Y81940D02*
X113595D01*
X111029Y81900D02*
X113622D01*
X111029Y82140D02*
X113537D01*
X111029Y81900D02*
Y82151D01*
Y82100D02*
X113540D01*
X111029Y82060D02*
X113547D01*
X110608Y83480D02*
X114278D01*
X110608Y83460D02*
X114278D01*
X110608Y83420D02*
X114278D01*
X110608Y83380D02*
X114278D01*
X110608Y83340D02*
X114278D01*
X110608Y83300D02*
X114278D01*
X110608Y83260D02*
X114278D01*
X110608Y83220D02*
X114278D01*
X110608Y83180D02*
X114278D01*
X110608Y83140D02*
X114278D01*
X110608Y83100D02*
X114278D01*
X110608Y83060D02*
X114278D01*
X110608Y83020D02*
X114278D01*
X110608Y82980D02*
X114278D01*
X110608Y82940D02*
X114278D01*
X110608Y82900D02*
X114278D01*
X110608Y82860D02*
X114278D01*
X110608Y82820D02*
X114278D01*
X110608Y82780D02*
X114278D01*
X110608Y82740D02*
X114278D01*
X110608Y82700D02*
X114278D01*
X110608Y82151D02*
Y83480D01*
Y82660D02*
X114278D01*
X110608Y82620D02*
X114278D01*
X110608Y82580D02*
X114278D01*
X110608Y82151D02*
X111029D01*
Y81420D02*
X113638D01*
X111029Y81380D02*
X113607D01*
X111029Y81340D02*
X113584D01*
X114193Y80820D02*
X114268D01*
X114127Y80780D02*
X114268D01*
X113977Y80740D02*
X114268D01*
X111029Y81300D02*
X113565D01*
X111029Y81159D02*
Y81420D01*
Y81260D02*
X113552D01*
X111029Y81220D02*
X113543D01*
X111029Y81180D02*
X113538D01*
X114268Y80561D02*
Y80892D01*
X113537Y80561D02*
X114268D01*
X110608Y80100D02*
X113537D01*
X110608Y80060D02*
X113537D01*
X110608Y80020D02*
X113537D01*
X110608Y79980D02*
X113537D01*
Y79770D02*
Y80561D01*
X110608Y79940D02*
X113537D01*
X110608Y79900D02*
X113537D01*
X110608Y79860D02*
X113537D01*
X110608Y79820D02*
X113537D01*
X110608Y79780D02*
X113537D01*
X110608Y80900D02*
X113622D01*
X110608Y80860D02*
X113657D01*
X110608Y80820D02*
X113703D01*
X110608Y80780D02*
X113769D01*
X110608Y80740D02*
X113919D01*
X110608Y80700D02*
X114268D01*
X110608Y80660D02*
X114268D01*
X110608Y80620D02*
X114268D01*
X110608Y81159D02*
X111029D01*
X110608Y81140D02*
X113537D01*
X110608Y81100D02*
X113540D01*
X110608Y81060D02*
X113547D01*
X110608Y81020D02*
X113558D01*
X110608Y80980D02*
X113574D01*
X110608Y80940D02*
X113595D01*
X110608Y80580D02*
X114268D01*
X110608Y80540D02*
X113537D01*
X110608Y80500D02*
X113537D01*
X110608Y80460D02*
X113537D01*
X110608Y80420D02*
X113537D01*
X110608Y80380D02*
X113537D01*
X110608Y80340D02*
X113537D01*
X110608Y80300D02*
X113537D01*
X110608Y79770D02*
Y81159D01*
Y80260D02*
X113537D01*
X110608Y80220D02*
X113537D01*
X110608Y80180D02*
X113537D01*
X110608Y80140D02*
X113537D01*
X110608Y79770D02*
X113537D01*
X104749Y75441D02*
X104798D01*
Y75480D02*
X104838Y75441D01*
X105408D01*
X102828Y75180D02*
X103053D01*
X102718Y75290D02*
Y75430D01*
X102628Y75520D02*
X102718Y75430D01*
X102388Y75520D02*
X102628D01*
X102718Y75290D02*
X102828Y75180D01*
X102824Y74924D02*
X103053D01*
X102478Y75270D02*
X102824Y74924D01*
X102770Y74668D02*
X103053D01*
X102468Y74970D02*
X102770Y74668D01*
X80223Y80180D02*
X82452D01*
X80223Y80100D02*
X82707D01*
X80223Y80140D02*
X82523D01*
X80223Y80300D02*
X82334D01*
X80223Y80340D02*
X82310D01*
X80223Y80220D02*
X82402D01*
X80223Y80260D02*
X82364D01*
X80223Y80460D02*
X82267D01*
X80223Y80380D02*
X82291D01*
X80223Y80420D02*
X82277D01*
X80223Y80500D02*
X82261D01*
X80223Y80540D02*
X82258D01*
X80223Y80580D02*
X82259D01*
X80223Y80620D02*
X82264D01*
X80223Y80660D02*
X82272D01*
X80223Y80700D02*
X82284D01*
X80223Y80740D02*
X82300D01*
X80223Y80780D02*
X82321D01*
X80223Y80820D02*
X82348D01*
X80223Y80860D02*
X82382D01*
X80223Y80900D02*
X82425D01*
X80223Y80940D02*
X82484D01*
X80223Y80980D02*
X82575D01*
X80223Y81500D02*
X83341D01*
X80223Y81540D02*
X83338D01*
X80223Y81580D02*
X83339D01*
X80223Y81660D02*
X83324D01*
X80223Y80060D02*
X85196D01*
X80223Y80005D02*
X85231D01*
X80223Y80020D02*
X85220D01*
X82964Y80180D02*
X83586D01*
X82991Y80900D02*
X83544D01*
X82709Y80100D02*
X85179D01*
X82894Y80140D02*
X85166D01*
X83082Y80300D02*
X83426D01*
X83014Y80220D02*
X83512D01*
X83052Y80260D02*
X83463D01*
X83106Y80340D02*
X83398D01*
X83116Y80740D02*
X83386D01*
X83068Y80820D02*
X83443D01*
X83034Y80860D02*
X83485D01*
X80223Y81020D02*
X84718D01*
X80223Y81100D02*
X84718D01*
X80223Y81140D02*
X84718D01*
X80223Y81260D02*
X83463D01*
X80223Y81300D02*
X83426D01*
X80223Y81180D02*
X83586D01*
X80223Y81220D02*
X83512D01*
X80223Y81340D02*
X83398D01*
X80223Y81380D02*
X83376D01*
X82933Y80940D02*
X83649D01*
X82841Y80980D02*
X84718D01*
X80223Y81420D02*
X83360D01*
X80223Y81460D02*
X83348D01*
X80223Y81620D02*
X83344D01*
X83086Y81898D02*
X83348Y81636D01*
X80223Y81980D02*
X83035D01*
X80223Y82020D02*
X83025D01*
X80223Y82060D02*
X83023D01*
X80223Y82180D02*
X82452D01*
X80223Y82220D02*
X82402D01*
X80223Y82100D02*
X83023D01*
X80223Y82140D02*
X82523D01*
X80223Y82260D02*
X82364D01*
X82894Y82140D02*
X83023D01*
Y82050D02*
Y82229D01*
X80223Y82380D02*
X82291D01*
X80223Y82420D02*
X82277D01*
X80223Y82300D02*
X82334D01*
X80223Y82340D02*
X82310D01*
X80223Y82460D02*
X82267D01*
X80223Y82500D02*
X82261D01*
X80223Y82540D02*
X82258D01*
X80223Y82580D02*
X82259D01*
X80223Y82620D02*
X82264D01*
X80223Y82660D02*
X82272D01*
X80223Y82700D02*
X82284D01*
X80223Y82740D02*
X82300D01*
X80223Y82780D02*
X82321D01*
X80223Y82820D02*
X82348D01*
X80223Y82860D02*
X82382D01*
X80223Y82900D02*
X82425D01*
X80223Y82940D02*
X82484D01*
X80223Y82980D02*
X82575D01*
X80223Y81780D02*
X83204D01*
X80223Y81700D02*
X83284D01*
X80223Y81740D02*
X83244D01*
X80223Y81900D02*
X83084D01*
X80223Y81940D02*
X83053D01*
X80223Y81820D02*
X83164D01*
X80223Y81860D02*
X83124D01*
X82964Y82180D02*
X83023D01*
X83034Y82860D02*
X83124D01*
X82991Y82900D02*
X83164D01*
X82933Y82940D02*
X83204D01*
X82841Y82980D02*
X83244D01*
X80223Y83020D02*
X83284D01*
X80223Y83060D02*
X83324D01*
X80223Y83100D02*
X83364D01*
X80223Y83140D02*
X83404D01*
X80223Y83180D02*
X83444D01*
X80223Y83220D02*
X83484D01*
X80223Y83260D02*
X83524D01*
X80223Y83300D02*
X83564D01*
X80223Y83340D02*
X83604D01*
X83086Y82822D02*
X83693Y83429D01*
X80223Y83380D02*
X83644D01*
X80223Y83420D02*
X83684D01*
X80223Y83460D02*
X83693D01*
X80223Y83500D02*
X83693D01*
X83139Y80420D02*
X83360D01*
X83125Y80380D02*
X83376D01*
X83149Y80460D02*
X83348D01*
X83155Y80500D02*
X83341D01*
X83158Y80540D02*
X83338D01*
X83144Y80660D02*
X83354D01*
X83132Y80700D02*
X83367D01*
X83157Y80580D02*
X83339D01*
X84138Y80540D02*
X84718D01*
X84137Y80580D02*
X84718D01*
X83153Y80620D02*
X83344D01*
X84132D02*
X84718D01*
X84123Y80660D02*
X84718D01*
X84109Y80700D02*
X84718D01*
X83095Y80780D02*
X83411D01*
X83932Y80900D02*
X84718D01*
X83827Y80940D02*
X84718D01*
X83890Y81180D02*
X84718D01*
Y80520D02*
Y81020D01*
X84090Y80740D02*
X84718D01*
X84065Y80780D02*
X84718D01*
X84033Y80820D02*
X84718D01*
X84075Y81335D02*
X84709D01*
X83991Y80860D02*
X84718D01*
Y81090D02*
Y81326D01*
X83890Y80180D02*
X85158D01*
X83964Y80220D02*
X85154D01*
X84014Y80260D02*
X85154D01*
X84050Y80300D02*
X85158D01*
X84079Y80340D02*
X85166D01*
X84100Y80380D02*
X85179D01*
X84116Y80420D02*
X85196D01*
X84128Y80460D02*
X85220D01*
X84135Y80500D02*
X85251D01*
X84718Y80520D02*
X85269D01*
X83964Y81220D02*
X84718D01*
X84014Y81260D02*
X84718D01*
X84050Y81300D02*
X84718D01*
X84075Y81765D02*
X84798D01*
X83991Y81860D02*
X85038D01*
X84065Y81780D02*
X85140D01*
X84033Y81820D02*
X85076D01*
X85298Y80546D02*
Y81020D01*
X84718D02*
X85298D01*
X84718D02*
X85298D01*
X84950Y81702D02*
X85062Y81590D01*
X83453Y82139D02*
Y82269D01*
Y82139D02*
X83652Y81941D01*
X83453Y82140D02*
X84558D01*
X83453Y82180D02*
X83586D01*
X83453Y82220D02*
X83512D01*
X83890Y82180D02*
X84558D01*
X83964Y82220D02*
X84558D01*
X84014Y82260D02*
X84558D01*
X84050Y82300D02*
X84558D01*
X84079Y82340D02*
X84558D01*
X84100Y82380D02*
X84558D01*
X84116Y82420D02*
X84558D01*
X84128Y82460D02*
X84558D01*
X84135Y82500D02*
X84558D01*
X83815Y82943D02*
X84060Y83188D01*
X84138Y82540D02*
X84558D01*
Y82110D02*
Y82750D01*
X84137Y82580D02*
X84558D01*
X84132Y82620D02*
X84558D01*
X84123Y82660D02*
X84558D01*
X84109Y82700D02*
X84558D01*
X84090Y82740D02*
X84558D01*
X84123Y83380D02*
X84538D01*
X83612Y81980D02*
X84990D01*
X83932Y81900D02*
X85014D01*
X83827Y81940D02*
X84998D01*
X83532Y82060D02*
X84947D01*
X83492Y82100D02*
X84907D01*
X83572Y82020D02*
X84987D01*
X83827Y82940D02*
X85068D01*
X84558Y82110D02*
X84897D01*
X84988Y82019D01*
X84558Y82750D02*
X85068D01*
X84065Y82780D02*
X85068D01*
X84033Y82820D02*
X85068D01*
X83991Y82860D02*
X85068D01*
X83932Y82900D02*
X85068D01*
X83852Y82980D02*
X85068D01*
X83892Y83020D02*
X85068D01*
X83932Y83060D02*
X85068D01*
X83972Y83100D02*
X85068D01*
X84012Y83140D02*
X85068D01*
X84052Y83180D02*
X85068D01*
X84086Y83220D02*
X85068D01*
X84108Y83260D02*
X85068D01*
Y82750D02*
Y83360D01*
X84119Y83300D02*
X85068D01*
X84123Y83340D02*
X85068D01*
X84123Y83420D02*
X84538D01*
X84123Y83460D02*
X84538D01*
Y83360D02*
X85068D01*
X84123Y83500D02*
X84538D01*
X80223Y84460D02*
X81259D01*
X80223Y84380D02*
X81390D01*
X80223Y84420D02*
X81315D01*
X80223Y84580D02*
X81146D01*
X80223Y84620D02*
X81120D01*
X80223Y84500D02*
X81214D01*
X80223Y84540D02*
X81177D01*
X80223Y84700D02*
X81081D01*
X80223Y84660D02*
X81098D01*
X80223Y84740D02*
X81066D01*
X80223Y84820D02*
X81047D01*
X80223Y84860D02*
X81041D01*
X80223Y84780D02*
X81055D01*
X80223Y84900D02*
X81038D01*
X80223Y84940D02*
X81038D01*
X80223Y84980D02*
X81041D01*
X80223Y85020D02*
X81047D01*
X80223Y85060D02*
X81055D01*
X80223Y85100D02*
X81066D01*
X80223Y85140D02*
X81081D01*
X80223Y85180D02*
X81098D01*
X80223Y80005D02*
Y91570D01*
Y85220D02*
X81120D01*
X80223Y85260D02*
X81146D01*
X80223Y85300D02*
X81177D01*
X80223Y85340D02*
X81214D01*
X80223Y85380D02*
X81259D01*
X80223Y85420D02*
X81315D01*
X80223Y83540D02*
X83693D01*
X80223Y83580D02*
X83693D01*
X80223Y83620D02*
X83693D01*
X80223Y83660D02*
X83693D01*
X80223Y83700D02*
X83693D01*
X80223Y83740D02*
X83693D01*
X80223Y83780D02*
X83693D01*
X80223Y83820D02*
X83693D01*
X80223Y83860D02*
X83693D01*
X80223Y83900D02*
X83693D01*
X80223Y83940D02*
X83693D01*
X80223Y83980D02*
X83693D01*
X80223Y84020D02*
X83693D01*
X80223Y84060D02*
X83693D01*
X80223Y84100D02*
X83693D01*
X80223Y84140D02*
X83693D01*
X80223Y84180D02*
X83693D01*
X80223Y84220D02*
X83693D01*
X80223Y84340D02*
X81520D01*
X80223Y84260D02*
X83693D01*
X80223Y84300D02*
X83693D01*
X81941Y84420D02*
X82948D01*
X81736Y84340D02*
X83693D01*
X81866Y84380D02*
X83693D01*
X81998Y84460D02*
X82948D01*
X82042Y84500D02*
X82948D01*
X81998Y85380D02*
X83693D01*
X81941Y85420D02*
X83237D01*
X80223Y85860D02*
X81038D01*
X80223Y85900D02*
X81038D01*
X80223Y85940D02*
X81038D01*
X80223Y85980D02*
X81038D01*
X80223Y86020D02*
X81038D01*
X80223Y86060D02*
X81038D01*
X80223Y86100D02*
X81038D01*
X80223Y86140D02*
X81038D01*
X80223Y86180D02*
X81038D01*
X80223Y86220D02*
X81038D01*
X80223Y86260D02*
X81038D01*
X80223Y86300D02*
X81038D01*
X80223Y86340D02*
X81038D01*
X80223Y86380D02*
X81038D01*
X80223Y86420D02*
X81038D01*
X80223Y86460D02*
X81038D01*
X80223Y86500D02*
X81038D01*
X80223Y86540D02*
X81038D01*
X80223Y86580D02*
X81038D01*
X80223Y86620D02*
X81038D01*
X80223Y86660D02*
X81038D01*
X80223Y86700D02*
X81038D01*
Y85830D02*
Y87010D01*
X80223Y86740D02*
X81038D01*
X80223Y86780D02*
X81038D01*
X80223Y86820D02*
X81038D01*
X80223Y86860D02*
X81038D01*
X80223Y86900D02*
X81038D01*
X80223Y86940D02*
X81038D01*
X80223Y85460D02*
X81390D01*
X80223Y85500D02*
X81520D01*
X80223Y85540D02*
X83063D01*
X80223Y85620D02*
X83006D01*
X80223Y85700D02*
X82970D01*
X80223Y85580D02*
X83031D01*
X80223Y85660D02*
X82986D01*
X80223Y85740D02*
X82959D01*
X81866Y85460D02*
X83157D01*
X81736Y85500D02*
X83103D01*
X81038Y85830D02*
X82218D01*
X80223Y86980D02*
X81038D01*
X80223Y85780D02*
X82952D01*
X80223Y85820D02*
X82949D01*
X80223Y87020D02*
X82986D01*
X80223Y87060D02*
X83006D01*
X80223Y87100D02*
X83031D01*
X80223Y87140D02*
X83063D01*
X80223Y87180D02*
X83103D01*
X80223Y87220D02*
X83157D01*
X80223Y87260D02*
X83237D01*
X81038Y87010D02*
X82218D01*
X80223Y87380D02*
X83589D01*
X80223Y87300D02*
X83669D01*
X80223Y87340D02*
X83629D01*
X80223Y87500D02*
X83103D01*
X80223Y87540D02*
X83063D01*
X80223Y87420D02*
X83237D01*
X80223Y87460D02*
X83157D01*
X83693Y83429D02*
Y84390D01*
X84123Y83540D02*
X84538D01*
X82948Y84390D02*
X83693D01*
X82079Y84540D02*
X82948D01*
X82110Y84580D02*
X82948D01*
X82136Y84620D02*
X82948D01*
X82158Y84660D02*
X82948D01*
X84538Y83360D02*
Y84000D01*
X84123Y83580D02*
X84538D01*
X84123Y83620D02*
X84538D01*
X84123Y83660D02*
X84538D01*
X84123Y83700D02*
X84538D01*
X84123Y83740D02*
X84538D01*
X84123Y83780D02*
X84538D01*
X82176Y84700D02*
X82948D01*
X82190Y84740D02*
X82948D01*
X82201Y84780D02*
X82948D01*
X82210Y84820D02*
X82948D01*
X82215Y84860D02*
X82948D01*
X82218Y84900D02*
X82948D01*
X82218Y84940D02*
X82948D01*
Y84390D02*
Y85290D01*
X84123Y83340D02*
Y84788D01*
Y83820D02*
X84538D01*
X84123Y83860D02*
X84538D01*
X84123Y83900D02*
X84538D01*
X84123Y83940D02*
X84538D01*
X84123Y83980D02*
X84538D01*
X84123Y84020D02*
X84688D01*
X84123Y84060D02*
X84688D01*
X84538Y84000D02*
X84688D01*
X84123Y84100D02*
X84688D01*
X84123Y84140D02*
X84688D01*
X84123Y84180D02*
X84688D01*
X84123Y84220D02*
X84688D01*
X84123Y84260D02*
X84688D01*
X84123Y84300D02*
X84688D01*
X84123Y84340D02*
X84688D01*
X84123Y84380D02*
X84688D01*
X84123Y84420D02*
X84695D01*
X84123Y84460D02*
X84713D01*
X84123Y84500D02*
X84747D01*
X84123Y84540D02*
X84787D01*
X84123Y84580D02*
X84827D01*
X84688Y84000D02*
Y84370D01*
X84738Y84491D02*
X84972Y84725D01*
X84123Y84620D02*
X84867D01*
X84123Y84660D02*
X84907D01*
X84123Y84700D02*
X84947D01*
X84333Y84725D02*
X84972D01*
X82215Y84980D02*
X82948D01*
X82201Y85060D02*
X82948D01*
X82190Y85100D02*
X82948D01*
X82176Y85140D02*
X82948D01*
X82158Y85180D02*
X82948D01*
X82136Y85220D02*
X82948D01*
X82110Y85260D02*
X82948D01*
X82210Y85020D02*
X82948D01*
X82218Y85860D02*
X82949D01*
X82218Y85900D02*
X82952D01*
X82218Y85940D02*
X82959D01*
X82218Y85980D02*
X82970D01*
X82218Y86020D02*
X82986D01*
X82218Y86060D02*
X83006D01*
X82218Y86100D02*
X83031D01*
X82218Y86140D02*
X83063D01*
X82218Y86540D02*
X83063D01*
X82218Y86620D02*
X83006D01*
X82218Y86700D02*
X82970D01*
X82218Y86580D02*
X83031D01*
X82218Y86660D02*
X82986D01*
X82218Y86740D02*
X82959D01*
X82218Y85830D02*
Y87010D01*
Y86780D02*
X82952D01*
X82218Y86820D02*
X82949D01*
X82218Y86860D02*
X82949D01*
X82218Y86900D02*
X82952D01*
X82218Y86940D02*
X82959D01*
X82218Y86980D02*
X82970D01*
X82079Y85300D02*
X83693D01*
X82948Y85290D02*
X83693D01*
X82042Y85340D02*
X83693D01*
X82218Y86180D02*
X83103D01*
X82218Y86220D02*
X83157D01*
X82218Y86260D02*
X83237D01*
X82218Y86300D02*
X83693D01*
Y85290D02*
Y85500D01*
X83560Y85420D02*
X83693D01*
X83639Y85460D02*
X83693D01*
Y86180D02*
Y86352D01*
X83639Y86220D02*
X83693D01*
X83560Y86260D02*
X83693D01*
X82218Y86340D02*
X83693D01*
X82218Y86380D02*
X83679D01*
X82218Y86460D02*
X83157D01*
X82218Y86500D02*
X83103D01*
X82218Y86420D02*
X83237D01*
X83560D02*
X83665D01*
X83560Y87260D02*
X83628D01*
X83552Y87417D02*
X83709Y87260D01*
X83628D02*
X83709D01*
X83628D02*
X83709D01*
X85298Y80580D02*
X85347D01*
X85298Y80620D02*
X85440D01*
X80223Y81060D02*
X85714D01*
X85298Y80900D02*
X86198D01*
X85298Y80940D02*
X86198D01*
X85298Y80980D02*
X85849D01*
X85298Y81020D02*
X85764D01*
X86047Y80980D02*
X86198D01*
Y80895D02*
Y81077D01*
X84718Y81090D02*
X85298D01*
Y81100D02*
X85679D01*
X85298Y81140D02*
X85654D01*
X85298Y81220D02*
X85623D01*
X85298Y81260D02*
X85615D01*
X85298Y81180D02*
X85635D01*
X85298Y81300D02*
X85613D01*
X85298Y81090D02*
Y81590D01*
Y81340D02*
X85615D01*
X85298Y81380D02*
X85623D01*
X85876Y80020D02*
X87980D01*
X85866Y80005D02*
X87991D01*
X85900Y80060D02*
X87956D01*
X85917Y80100D02*
X87939D01*
X85917Y80380D02*
X87939D01*
X85876Y80460D02*
X87980D01*
X85845Y80500D02*
X88011D01*
X85939Y80180D02*
X87918D01*
X85930Y80140D02*
X87926D01*
X85943Y80220D02*
X87914D01*
X85943Y80260D02*
X87914D01*
X85939Y80300D02*
X87918D01*
X85930Y80340D02*
X87926D01*
X85900Y80420D02*
X87956D01*
X85656Y80620D02*
X88200D01*
X85298Y80660D02*
X88518D01*
X85298Y80700D02*
X88518D01*
X85298Y80820D02*
X86427D01*
X85298Y80860D02*
X86387D01*
X85298Y80740D02*
X86565D01*
X85298Y80780D02*
X86468D01*
X85805Y80540D02*
X88051D01*
X85749Y80580D02*
X88107D01*
X86198Y80895D02*
X86352D01*
X86132Y81020D02*
X86198D01*
X86578Y80739D02*
X88218D01*
X86352Y80895D02*
X86458Y80789D01*
X85298Y81420D02*
X85635D01*
X85298Y81460D02*
X85654D01*
X85298Y81500D02*
X85679D01*
X85062Y81590D02*
X85298D01*
X85032Y81620D02*
X85849D01*
X84992Y81660D02*
X85908D01*
X84952Y81700D02*
X85908D01*
X85298Y81540D02*
X85714D01*
X85298Y81580D02*
X85764D01*
X86198Y81523D02*
Y81660D01*
X86132Y81580D02*
X86198D01*
X86047Y81620D02*
X86198D01*
X85908Y81660D02*
X86198D01*
X85908D02*
X86198D01*
X84899Y81740D02*
X85358D01*
Y81730D02*
X85908D01*
X85358D02*
Y81791D01*
X85539Y82490D02*
X85659Y82370D01*
X85569Y82460D02*
X85908D01*
X85539Y82490D02*
X85908D01*
Y81660D02*
Y81730D01*
X85649Y82380D02*
X85908D01*
X85659Y82370D02*
X85908D01*
Y82490D01*
X85609Y82420D02*
X85908D01*
X86408Y81940D02*
X86457D01*
X86408Y81891D02*
X86478Y81961D01*
X86408Y81980D02*
X86478D01*
X86408Y82020D02*
X86478D01*
X86408Y82060D02*
X86478D01*
X86408Y82100D02*
X86478D01*
X86408Y81891D02*
Y82200D01*
Y82140D02*
X86478D01*
Y81961D02*
Y82200D01*
X86408D02*
Y82240D01*
Y82200D02*
Y82240D01*
Y82180D02*
X86478D01*
Y82200D02*
Y82240D01*
X86408Y82220D02*
X86478D01*
X86408Y82260D02*
X86478D01*
X86408Y82300D02*
X86478D01*
X86408Y82340D02*
X86478D01*
X86408Y82380D02*
X86478D01*
X86408Y82420D02*
X86478D01*
Y82200D02*
Y82240D01*
X86408D02*
Y82590D01*
Y82460D02*
X86478D01*
Y82240D02*
Y82590D01*
X86408Y82500D02*
X86478D01*
X86408Y82540D02*
X86478D01*
X86408Y82580D02*
X86478D01*
X86408Y82590D02*
X86478D01*
X88231Y80740D02*
X88518D01*
X88328Y80780D02*
X88518D01*
Y80575D02*
Y80877D01*
X88416Y80620D02*
X88518D01*
X88436Y80820D02*
X88518D01*
X91112Y80900D02*
X94214D01*
X90603Y81409D02*
X91117Y80895D01*
X90603Y81409D02*
Y83770D01*
X87478Y81739D02*
X87531Y81686D01*
X91117Y80895D02*
X94209D01*
X91072Y80940D02*
X94254D01*
X91032Y80980D02*
X94294D01*
X90992Y81020D02*
X94334D01*
X90952Y81060D02*
X94374D01*
X90912Y81100D02*
X94414D01*
X90872Y81140D02*
X94454D01*
X90603Y81420D02*
X95622D01*
X90603Y81460D02*
X95828D01*
X90603Y81500D02*
X96668D01*
X90603Y81540D02*
X96765D01*
X90603Y81580D02*
X98026D01*
X90603Y81620D02*
X98066D01*
X90603Y81660D02*
X98106D01*
X90832Y81180D02*
X94519D01*
X90792Y81220D02*
X95374D01*
X90752Y81260D02*
X95414D01*
X90712Y81300D02*
X95454D01*
X90672Y81340D02*
X95494D01*
X90632Y81380D02*
X95536D01*
X90603Y81700D02*
X98146D01*
X90603Y81740D02*
X98186D01*
X90603Y81780D02*
X98226D01*
X90603Y81820D02*
X98266D01*
X90603Y81860D02*
X98306D01*
X90603Y81900D02*
X98346D01*
X90603Y81940D02*
X98386D01*
X90603Y81980D02*
X98426D01*
X90603Y82020D02*
X98466D01*
X90603Y82060D02*
X98506D01*
X90603Y82100D02*
X98546D01*
X90603Y82140D02*
X98586D01*
X90603Y82180D02*
X98626D01*
X90603Y82220D02*
X98666D01*
X90603Y82260D02*
X98706D01*
X90603Y82300D02*
X98746D01*
X90603Y82340D02*
X98786D01*
X90603Y82380D02*
X98826D01*
X90603Y82420D02*
X98866D01*
X90603Y82460D02*
X98906D01*
X90603Y82500D02*
X98946D01*
X90603Y82540D02*
X98986D01*
X90603Y82580D02*
X99026D01*
X90603Y82620D02*
X99066D01*
X90603Y82660D02*
X99106D01*
X90603Y82700D02*
X99146D01*
X90603Y83460D02*
X91064D01*
X90603Y83500D02*
X91001D01*
X90603Y82740D02*
X99186D01*
X90603Y83420D02*
X91175D01*
X90603Y83540D02*
X90956D01*
X90583Y83860D02*
X90828D01*
X90513Y83949D02*
X90540Y83922D01*
X90559Y83900D02*
X90828D01*
X90522Y83940D02*
X90828D01*
X90603Y83620D02*
X90893D01*
X90603Y83660D02*
X90871D01*
X90603Y83580D02*
X90921D01*
X90603Y83740D02*
X90842D01*
X90603Y83780D02*
X90834D01*
X90603Y83700D02*
X90854D01*
X90597Y83820D02*
X90829D01*
X90603Y82780D02*
X99226D01*
X90603Y82820D02*
X99266D01*
X90603Y82860D02*
X99306D01*
X90603Y82900D02*
X99346D01*
X90603Y82940D02*
X99386D01*
X90603Y82980D02*
X99426D01*
X90603Y83020D02*
X99470D01*
X90603Y83060D02*
X109093D01*
X90603Y83100D02*
X109093D01*
X90603Y83140D02*
X109093D01*
X90603Y83180D02*
X109093D01*
X90603Y83220D02*
X109093D01*
X90603Y83260D02*
X109093D01*
X90603Y83300D02*
X109093D01*
X90603Y83340D02*
X109093D01*
X90603Y83380D02*
X109093D01*
X91361Y83420D02*
X109093D01*
X91472Y83460D02*
X109093D01*
X91535Y83500D02*
X109093D01*
X91580Y83540D02*
X109093D01*
X91615Y83580D02*
X109093D01*
X91643Y83620D02*
X109093D01*
X91665Y83660D02*
X109093D01*
X91682Y83700D02*
X109093D01*
X91694Y83740D02*
X109093D01*
X91702Y83780D02*
X109093D01*
X91707Y83820D02*
X109093D01*
X91708Y83860D02*
X109093D01*
X91708Y83900D02*
X109093D01*
X90273Y84329D02*
X90450Y84152D01*
X90273Y85140D02*
X90634D01*
X90273Y85180D02*
X90622D01*
X90273Y85220D02*
X90614D01*
X90273Y85260D02*
X90609D01*
X90273Y85300D02*
X90608D01*
X90273Y85340D02*
X90608D01*
X90273Y84329D02*
Y85630D01*
Y85380D02*
X90608D01*
X90273Y85420D02*
X90608D01*
X90273Y85460D02*
X90608D01*
X90273Y85500D02*
X90608D01*
X90273Y85540D02*
X90608D01*
X90273Y85580D02*
X90608D01*
X89709Y85951D02*
Y88089D01*
X89759Y85900D02*
X89803D01*
X89709Y85951D02*
X89803Y85856D01*
X89719Y85940D02*
X89803D01*
X89709Y85980D02*
X89803D01*
X89709Y86020D02*
X89803D01*
X89709Y86060D02*
X89803D01*
X90273Y85620D02*
X90608D01*
X89803Y85856D02*
Y86542D01*
X90233Y85755D02*
Y86542D01*
X90271Y85660D02*
X90608D01*
X90261Y85700D02*
X90608D01*
X90273Y84340D02*
X90828D01*
X90273Y84380D02*
X90828D01*
X90273Y84420D02*
X90828D01*
X90273Y84460D02*
X90828D01*
X90273Y84500D02*
X90828D01*
X90273Y84540D02*
X90828D01*
X90273Y84580D02*
X90828D01*
X90273Y84620D02*
X90828D01*
X90273Y84660D02*
X90828D01*
X90273Y84700D02*
X90828D01*
X90273Y84740D02*
X90828D01*
X90273Y84780D02*
X90828D01*
X90273Y84820D02*
X90828D01*
X90273Y84860D02*
X90828D01*
X90243Y85740D02*
X90608D01*
X90233Y85780D02*
X90608D01*
X90233Y85820D02*
X90608D01*
X90233Y85860D02*
X90608D01*
X90233Y85900D02*
X90608D01*
X90233Y85940D02*
X90608D01*
X90233Y85980D02*
X90608D01*
X90273Y84980D02*
X90736D01*
X90273Y85020D02*
X90701D01*
X90273Y84900D02*
X90816D01*
X90273Y84940D02*
X90776D01*
X90233Y86020D02*
X90608D01*
X90233Y86060D02*
X90608D01*
X90273Y85060D02*
X90673D01*
X90273Y85100D02*
X90651D01*
X89709Y86100D02*
X89803D01*
X89709Y86140D02*
X89803D01*
X89709Y86180D02*
X89803D01*
X89709Y86220D02*
X89803D01*
X89709Y86260D02*
X89803D01*
X89709Y86300D02*
X89803D01*
X89709Y86340D02*
X89803D01*
X90233Y86100D02*
X90608D01*
X90233Y86140D02*
X90608D01*
X90233Y86180D02*
X90608D01*
X90233Y86220D02*
X90608D01*
X89709Y86380D02*
X89803D01*
X90233Y86260D02*
X90608D01*
X90233Y86300D02*
X90608D01*
X89709Y86420D02*
X89803D01*
X89709Y86460D02*
X89803D01*
X89709Y86500D02*
X89803D01*
X89709Y86620D02*
X89773D01*
X89709Y86660D02*
X89768D01*
X89709Y86540D02*
X89803D01*
X89709Y86580D02*
X89785D01*
X89709Y86700D02*
X89770D01*
X89709Y86740D02*
X89778D01*
X89709Y86780D02*
X89794D01*
X89709Y86820D02*
X89818D01*
X89709Y86860D02*
X89856D01*
X89709Y86900D02*
X89920D01*
X90233Y86340D02*
X90608D01*
X90233Y86380D02*
X90608D01*
X90233Y86420D02*
X90608D01*
X90233Y86460D02*
X90608D01*
X90218Y86820D02*
X90608D01*
X90181Y86860D02*
X90608D01*
X90116Y86900D02*
X90608D01*
X90233Y86500D02*
X90608D01*
X90233Y86540D02*
X90608D01*
X90251Y86580D02*
X90608D01*
X90263Y86620D02*
X90608D01*
X90268Y86660D02*
X90608D01*
X90258Y86740D02*
X90608D01*
X90243Y86780D02*
X90608D01*
X89709Y86940D02*
X90608D01*
X89709Y86980D02*
X90608D01*
X89709Y87020D02*
X90608D01*
X89709Y87060D02*
X90608D01*
X89709Y87100D02*
X90608D01*
X89709Y87140D02*
X90608D01*
X89709Y87180D02*
X90608D01*
X89709Y87220D02*
X90608D01*
X89709Y87260D02*
X90608D01*
X89709Y87300D02*
X90608D01*
X89709Y87340D02*
X90608D01*
X89709Y87380D02*
X90608D01*
X89709Y87420D02*
X90608D01*
X89709Y87460D02*
X90608D01*
X89709Y87500D02*
X90608D01*
X90513Y83949D02*
Y84000D01*
Y83980D02*
X90828D01*
X90488Y84100D02*
X90828D01*
X90461Y84140D02*
X90828D01*
X90422Y84180D02*
X90828D01*
X90512Y84020D02*
X90828D01*
X91708D02*
X104464D01*
X90505Y84060D02*
X90828D01*
X91708D02*
X104464D01*
X91708Y84100D02*
X104464D01*
X91708Y84140D02*
X104464D01*
X91708Y84180D02*
X104464D01*
X90382Y84220D02*
X90828D01*
X90342Y84260D02*
X90828D01*
X90302Y84300D02*
X90828D01*
X90608Y85290D02*
Y88250D01*
X90737Y84979D02*
X90828Y84888D01*
Y83850D02*
Y84888D01*
X91708Y84220D02*
X104464D01*
X91708Y83850D02*
Y85070D01*
Y84260D02*
X104464D01*
X91708Y84300D02*
X104464D01*
X91708Y84340D02*
X104464D01*
X91708Y83940D02*
X109093D01*
X91708Y83980D02*
X109093D01*
X91708Y84380D02*
X104464D01*
X91708Y84420D02*
X104464D01*
X91708Y84460D02*
X104464D01*
X91708Y84500D02*
X104464D01*
X91708Y84540D02*
X104464D01*
X91708Y84580D02*
X104464D01*
X91708Y84620D02*
X104464D01*
X91708Y84660D02*
X104464D01*
X91708Y84700D02*
X104464D01*
X91708Y84740D02*
X104464D01*
X91708Y84780D02*
X104464D01*
X91708Y84820D02*
X104464D01*
X91708Y84860D02*
X104464D01*
X91682Y85220D02*
X104464D01*
X91665Y85260D02*
X104464D01*
X91643Y85300D02*
X104464D01*
X91615Y85340D02*
X104464D01*
X91580Y85380D02*
X104464D01*
X91708Y84900D02*
X104464D01*
X91708Y84940D02*
X104464D01*
X91708Y84980D02*
X104464D01*
X91708Y85020D02*
X104464D01*
X91708Y85060D02*
X104464D01*
X91707Y85100D02*
X104464D01*
X91702Y85140D02*
X104464D01*
X91694Y85180D02*
X104464D01*
X91488Y85472D02*
X91579Y85381D01*
X91500Y85460D02*
X104464D01*
X91488Y85500D02*
X104464D01*
X91488Y85540D02*
X104464D01*
X90266Y86700D02*
X90608D01*
X91488Y85580D02*
X104464D01*
X91488Y85620D02*
X104464D01*
X91540Y85420D02*
X104464D01*
X91488Y85660D02*
X104464D01*
X91488Y85700D02*
X104464D01*
X91488Y85740D02*
X104464D01*
X91488Y87020D02*
X99587D01*
X91488Y85780D02*
X104464D01*
X91488Y85820D02*
X104464D01*
X91488Y85472D02*
Y87275D01*
Y87060D02*
X99537D01*
X91488Y87100D02*
X99497D01*
X91488Y87220D02*
X99377D01*
X91488Y87260D02*
X99337D01*
X91488Y87140D02*
X99457D01*
X91488Y87180D02*
X99417D01*
X91745Y87380D02*
X99217D01*
X91657Y87300D02*
X99297D01*
X91712Y87340D02*
X99257D01*
X91827Y87500D02*
X99097D01*
X91779Y87452D02*
X91912Y87585D01*
X91767Y87420D02*
X99177D01*
X91787Y87460D02*
X99137D01*
X91488Y85860D02*
X104464D01*
X91488Y85900D02*
X104464D01*
X91488Y85940D02*
X104464D01*
X91488Y85980D02*
X104464D01*
X91488Y86020D02*
X104464D01*
X91488Y86060D02*
X104464D01*
X91488Y86100D02*
X104464D01*
X91488Y86140D02*
X104464D01*
X91488Y86180D02*
X104464D01*
X91488Y86220D02*
X104464D01*
X91488Y86260D02*
X109093D01*
X91488Y86300D02*
X109093D01*
X91488Y86340D02*
X109093D01*
X91488Y86380D02*
X109093D01*
X91488Y86420D02*
X109093D01*
X91488Y86460D02*
X109093D01*
X91488Y86500D02*
X109093D01*
X91488Y86540D02*
X109093D01*
X91488Y86580D02*
X109093D01*
X91488Y86620D02*
X109093D01*
X91488Y86660D02*
X109093D01*
X91488Y86700D02*
X109093D01*
X91488Y86740D02*
X109093D01*
X91488Y86780D02*
X109093D01*
X91488Y86820D02*
X109093D01*
X91488Y86860D02*
X109093D01*
X91488Y86900D02*
X109093D01*
X91488Y86940D02*
X109093D01*
X91488Y86980D02*
X109093D01*
X80223Y87980D02*
X81269D01*
X80223Y87900D02*
X81400D01*
X80223Y87940D02*
X81325D01*
X80223Y88100D02*
X81156D01*
X80223Y88140D02*
X81130D01*
X80223Y88020D02*
X81224D01*
X80223Y88060D02*
X81187D01*
X80223Y88260D02*
X81076D01*
X80223Y88180D02*
X81108D01*
X80223Y88220D02*
X81091D01*
X80223Y88380D02*
X81051D01*
X80223Y88420D02*
X81048D01*
X80223Y88300D02*
X81065D01*
X80223Y88340D02*
X81057D01*
X80223Y88460D02*
X81048D01*
X80223Y88500D02*
X81051D01*
X80223Y88540D02*
X81057D01*
X80223Y88580D02*
X81065D01*
X80223Y88620D02*
X81076D01*
X80223Y88660D02*
X81091D01*
X80223Y88700D02*
X81108D01*
X80223Y88740D02*
X81130D01*
X80223Y88780D02*
X81156D01*
X80223Y88820D02*
X81187D01*
X80223Y88860D02*
X81224D01*
X80223Y88900D02*
X81269D01*
X80223Y88940D02*
X81325D01*
X80223Y88980D02*
X81400D01*
X80223Y87620D02*
X83006D01*
X80223Y87580D02*
X83031D01*
X80223Y87660D02*
X82986D01*
X80223Y87700D02*
X82970D01*
X80223Y87740D02*
X82959D01*
X80223Y87780D02*
X82952D01*
X80223Y87820D02*
X82949D01*
X80223Y87860D02*
X81530D01*
X81746D02*
X82949D01*
X81876Y87900D02*
X82952D01*
X81951Y87940D02*
X82959D01*
X82008Y87980D02*
X82970D01*
X82052Y88020D02*
X82986D01*
X82089Y88060D02*
X83006D01*
X81951Y88940D02*
X83078D01*
X81876Y88980D02*
X83078D01*
X80223Y89020D02*
X81530D01*
X81746D02*
X83078D01*
X80223Y89060D02*
X83078D01*
X80223Y89100D02*
X83078D01*
X82120Y88100D02*
X83031D01*
X82146Y88140D02*
X83063D01*
X82168Y88180D02*
X83103D01*
X82168Y88700D02*
X83708D01*
X82089Y88820D02*
X83078D01*
X82052Y88860D02*
X83078D01*
X82120Y88780D02*
X83708D01*
X82008Y88900D02*
X83078D01*
X80223Y89380D02*
X81048D01*
X80223Y89420D02*
X81048D01*
X80223Y89460D02*
X81048D01*
X80223Y89500D02*
X81048D01*
X80223Y89540D02*
X81048D01*
X80223Y89580D02*
X81048D01*
X80223Y89620D02*
X81048D01*
X80223Y89660D02*
X81048D01*
X80223Y89700D02*
X81048D01*
X80223Y89740D02*
X81048D01*
X80223Y89780D02*
X81048D01*
X80223Y89820D02*
X81048D01*
X80223Y89860D02*
X81048D01*
X80223Y89900D02*
X81048D01*
X80223Y89940D02*
X81048D01*
X80223Y89980D02*
X81048D01*
X80223Y90020D02*
X81048D01*
X80223Y90060D02*
X81048D01*
X80223Y90100D02*
X81048D01*
X80223Y90140D02*
X81048D01*
X80223Y90180D02*
X81048D01*
Y89350D02*
Y90530D01*
X80223Y90220D02*
X81048D01*
X80223Y90260D02*
X81048D01*
X80223Y90300D02*
X81048D01*
X80223Y91220D02*
X80614D01*
X80223Y90340D02*
X81048D01*
X80223Y90380D02*
X81048D01*
X80223Y89140D02*
X83078D01*
X80223Y89180D02*
X83078D01*
X80223Y89220D02*
X83078D01*
X80223Y89260D02*
X83078D01*
X80223Y90420D02*
X81048D01*
X80223Y89300D02*
X83078D01*
X80223Y89340D02*
X83078D01*
X80223Y90460D02*
X81048D01*
Y89350D02*
X82228D01*
X80223Y90500D02*
X81048D01*
Y90530D02*
X82228D01*
X80223Y90540D02*
X82718D01*
X80223Y90580D02*
X82718D01*
X80223Y90620D02*
X82718D01*
X80223Y90660D02*
X82718D01*
X80223Y90700D02*
X83109D01*
X80223Y90740D02*
X83149D01*
X80223Y90860D02*
X83098D01*
X80223Y90900D02*
X83098D01*
X80223Y90780D02*
X83189D01*
X80223Y90820D02*
X83229D01*
X80223Y90940D02*
X83098D01*
X80223Y90980D02*
X83098D01*
X80223Y91020D02*
X83098D01*
X80223Y91060D02*
X83098D01*
X80223Y91100D02*
X83098D01*
X80223Y91140D02*
X83098D01*
X80223Y91180D02*
X83098D01*
X81002Y91220D02*
X83098D01*
X82186Y88220D02*
X83157D01*
X82200Y88260D02*
X83237D01*
X82146Y88740D02*
X83708D01*
X83078Y88790D02*
X83578D01*
Y88820D02*
X83648D01*
X83578Y88860D02*
X83648D01*
X83578Y88900D02*
X83648D01*
X83708Y88700D02*
Y88790D01*
X83648D02*
X83708D01*
X83578Y88940D02*
X83648D01*
X83578Y88980D02*
X83648D01*
X83578Y89020D02*
X83648D01*
X83578Y89060D02*
X83648D01*
X83078Y88790D02*
Y89370D01*
X82228Y89350D02*
Y90530D01*
X83578Y89100D02*
X83648D01*
X83578Y89140D02*
X83648D01*
X83578Y88790D02*
Y89370D01*
Y89180D02*
X83648D01*
Y88790D02*
Y89370D01*
X83578Y89220D02*
X83648D01*
X83578Y89260D02*
X83648D01*
X83578Y89300D02*
X83648D01*
X83578Y89340D02*
X83648D01*
X83821Y87686D02*
X83848Y87658D01*
X83811Y88020D02*
X83908D01*
X83791Y88060D02*
X83908D01*
X83765Y88100D02*
X83908D01*
X83733Y88140D02*
X83908D01*
X83693Y88180D02*
X83908D01*
X83639Y88220D02*
X83908D01*
X83848Y87820D02*
X83898D01*
X83848Y87860D02*
X83908D01*
X83844Y87900D02*
X83908D01*
X83837Y87940D02*
X83908D01*
X83826Y87980D02*
X83908D01*
X82211Y88300D02*
X83908D01*
X82220Y88340D02*
X83908D01*
X82225Y88380D02*
X83908D01*
X82200Y88620D02*
X83726D01*
X82186Y88660D02*
X83712D01*
X82228Y88420D02*
X83908D01*
X82228Y88460D02*
X83869D01*
X83908Y87832D02*
Y88421D01*
X82225Y88500D02*
X83829D01*
X83560Y88260D02*
X83908D01*
X83764Y88565D02*
X83908Y88421D01*
X82211Y88580D02*
X83751D01*
X82220Y88540D02*
X83789D01*
X82228Y90060D02*
X82718D01*
X82228Y90100D02*
X82718D01*
X82228Y90140D02*
X82718D01*
X82228Y90180D02*
X82718D01*
X82228Y90220D02*
X82718D01*
X82228Y90260D02*
X82718D01*
X82228Y90300D02*
X82718D01*
Y90040D02*
X83358D01*
Y90060D02*
X83478D01*
X83358Y90100D02*
X83478D01*
X83358Y90140D02*
X83478D01*
X83358Y90180D02*
X83478D01*
X83358Y90220D02*
X83478D01*
X83358Y90260D02*
X83478D01*
X82718Y90040D02*
Y90680D01*
X82228Y90340D02*
X82718D01*
X82228Y90380D02*
X82718D01*
X82228Y90420D02*
X82718D01*
X82228Y90460D02*
X82718D01*
X82228Y90500D02*
X82718D01*
Y90680D02*
X83089D01*
X83358Y90040D02*
Y90411D01*
X83478Y90040D02*
Y90531D01*
X83358Y90300D02*
X83478D01*
X83358Y90340D02*
X83478D01*
X83089Y90680D02*
X83249Y90840D01*
X83098D02*
X83249D01*
X83358Y90380D02*
X83478D01*
X83358Y90411D02*
X83478Y90531D01*
X82228Y89380D02*
X83751D01*
X82228Y89420D02*
X83789D01*
X82228Y89460D02*
X83829D01*
X82228Y89500D02*
X83869D01*
X82228Y89540D02*
X83909D01*
X82228Y89580D02*
X83949D01*
X82228Y89620D02*
X83989D01*
X83078Y89370D02*
X83578D01*
X83648D02*
X83743D01*
X83764Y89395D02*
X84039Y89670D01*
X82228Y89660D02*
X84029D01*
X82228Y89700D02*
X84028D01*
X82228Y89740D02*
X84028D01*
X82228Y89780D02*
X84028D01*
X82228Y89820D02*
X84028D01*
X82228Y89860D02*
X84028D01*
X82228Y89900D02*
X84028D01*
X82228Y89940D02*
X84028D01*
X82228Y89980D02*
X84028D01*
Y89670D02*
Y90040D01*
X82228Y90020D02*
X84028D01*
X83478Y90040D02*
X84028D01*
X83367Y90420D02*
X83478D01*
X83407Y90460D02*
X83478D01*
X83447Y90500D02*
X83478D01*
X80223Y91340D02*
X80396D01*
X80223Y91260D02*
X80517D01*
X80223Y91300D02*
X80449D01*
X80223Y91460D02*
X80286D01*
X80223Y91500D02*
X80260D01*
X80223Y91380D02*
X80353D01*
X80223Y91420D02*
X80317D01*
X80223Y92180D02*
X80272D01*
X80223Y92220D02*
X80301D01*
X80223Y92260D02*
X80334D01*
X80223Y92300D02*
X80374D01*
X80223Y92340D02*
X80421D01*
X80223Y92380D02*
X80481D01*
X80223Y92420D02*
X80560D01*
X80223Y92460D02*
X80695D01*
X80223Y92700D02*
X81098D01*
X80223Y92820D02*
X80912D01*
X80223Y92860D02*
X80874D01*
X80223Y92740D02*
X81017D01*
X80223Y92780D02*
X80958D01*
X80223Y92090D02*
Y94590D01*
Y92900D02*
X80843D01*
X80223Y93020D02*
X80778D01*
X80223Y93060D02*
X80764D01*
X80223Y92940D02*
X80817D01*
X80223Y92980D02*
X80796D01*
X81099Y91260D02*
X83098D01*
X81167Y91300D02*
X83098D01*
X81220Y91340D02*
X83098D01*
X81263Y91380D02*
X83098D01*
X81300Y91420D02*
X83098D01*
X81330Y91460D02*
X83098D01*
X81356Y91500D02*
X83361D01*
X81379Y91540D02*
X83326D01*
X81405Y92060D02*
X83202D01*
X81388Y92100D02*
X83212D01*
X81397Y91580D02*
X83296D01*
X81368Y92140D02*
X83225D01*
X80921Y92460D02*
X83474D01*
X80223Y92500D02*
X83514D01*
X80223Y92660D02*
X81308D01*
X80223Y92540D02*
X83555D01*
X80223Y92580D02*
X83605D01*
X81344Y92180D02*
X83241D01*
X81316Y92220D02*
X83260D01*
X81282Y92260D02*
X83283D01*
X81242Y92300D02*
X83311D01*
X81195Y92340D02*
X83343D01*
X81135Y92380D02*
X83382D01*
X81056Y92420D02*
X83428D01*
X81308Y92660D02*
X83707D01*
X80223Y93140D02*
X80745D01*
X80223Y93100D02*
X80753D01*
X80223Y93180D02*
X80740D01*
X80223Y93220D02*
X80738D01*
X80223Y93260D02*
X80739D01*
X80223Y93300D02*
X80742D01*
X80223Y93340D02*
X80749D01*
X80223Y93380D02*
X80758D01*
X80223Y93420D02*
X80771D01*
X80223Y93460D02*
X80787D01*
X80223Y94140D02*
X80499D01*
X80223Y94180D02*
X80446D01*
X80223Y94060D02*
X80664D01*
X80223Y94100D02*
X80567D01*
X80223Y94300D02*
X80336D01*
X80223Y94220D02*
X80403D01*
X80223Y94260D02*
X80367D01*
X80223Y94380D02*
X80288D01*
X80223Y94460D02*
X80254D01*
X80223Y94340D02*
X80310D01*
X80223Y94420D02*
X80269D01*
X80223Y94900D02*
X80261D01*
X80223Y94750D02*
Y95095D01*
Y94940D02*
X80278D01*
X80223Y94980D02*
X80298D01*
X80223Y95020D02*
X80322D01*
X80223Y95060D02*
X80351D01*
X80223Y95095D02*
X80380D01*
X80223Y93500D02*
X80806D01*
X80223Y93540D02*
X80830D01*
X80223Y93580D02*
X80858D01*
X80223Y93620D02*
X80892D01*
X80223Y93660D02*
X80934D01*
X80223Y93700D02*
X80986D01*
X80223Y93740D02*
X81054D01*
X80223Y93780D02*
X81158D01*
X80223Y93820D02*
X84704D01*
X80223Y93860D02*
X84744D01*
X80223Y93980D02*
X83470D01*
X80223Y94020D02*
X83416D01*
X80223Y93900D02*
X83652D01*
X80223Y93940D02*
X83542D01*
X81052Y94060D02*
X83371D01*
X81149Y94100D02*
X83334D01*
X81217Y94140D02*
X83303D01*
X81350Y94260D02*
X83236D01*
X81380Y94300D02*
X83221D01*
X81270Y94180D02*
X83277D01*
X81313Y94220D02*
X83255D01*
X81406Y94340D02*
X83209D01*
X81366Y95060D02*
X83542D01*
X81337Y95095D02*
X83634D01*
X81425Y91660D02*
X83250D01*
X81413Y91620D02*
X83271D01*
X81435Y91700D02*
X83232D01*
X81439Y91940D02*
X83188D01*
X81430Y91980D02*
X83190D01*
X81442Y91740D02*
X83218D01*
X81419Y92020D02*
X83195D01*
X83098Y90840D02*
Y91480D01*
X83382D01*
X81446Y91780D02*
X83207D01*
X81444Y91900D02*
X83189D01*
X81448Y91820D02*
X83198D01*
X81447Y91860D02*
X83192D01*
X81658Y92780D02*
X82596D01*
X81518Y92700D02*
X82742D01*
X81599Y92740D02*
X82657D01*
X81773Y92900D02*
X82479D01*
X81799Y92940D02*
X82453D01*
X81704Y92820D02*
X82549D01*
X81742Y92860D02*
X82511D01*
X81838Y93020D02*
X82414D01*
X81820Y92980D02*
X82431D01*
X81863Y93100D02*
X82388D01*
X81871Y93140D02*
X82380D01*
X81852Y93060D02*
X82399D01*
X81876Y93180D02*
X82375D01*
X83449Y92436D02*
X83531Y92517D01*
X84027Y91350D02*
X84238D01*
X83134Y92700D02*
X83759D01*
X83219Y92740D02*
X83829D01*
X83280Y92780D02*
X83936D01*
X84345Y91620D02*
X84588D01*
X84345D02*
X84588D01*
X83327Y92820D02*
X84078D01*
X83365Y92860D02*
X84078D01*
X83397Y92900D02*
X84078D01*
X83423Y92940D02*
X84078D01*
X83445Y92980D02*
X84079D01*
X83463Y93020D02*
X84082D01*
X84078Y92800D02*
Y92950D01*
X83477Y93060D02*
X84088D01*
X83488Y93100D02*
X84097D01*
X83496Y93140D02*
X84110D01*
X81830Y93460D02*
X82422D01*
X81810Y93500D02*
X82442D01*
X81786Y93540D02*
X82466D01*
X81758Y93580D02*
X82495D01*
X81724Y93620D02*
X82529D01*
X81682Y93660D02*
X82572D01*
X81631Y93700D02*
X82625D01*
X81878Y93220D02*
X82373D01*
X81877Y93260D02*
X82374D01*
X81874Y93300D02*
X82377D01*
X81867Y93340D02*
X82384D01*
X81858Y93380D02*
X82393D01*
X81845Y93420D02*
X82406D01*
X81458Y93780D02*
X82809D01*
X81429Y94380D02*
X83200D01*
X81447Y94420D02*
X83193D01*
X81463Y94460D02*
X83189D01*
X81475Y94500D02*
X83188D01*
X81485Y94540D02*
X83189D01*
X81492Y94580D02*
X83193D01*
X81563Y93740D02*
X82695D01*
X81496Y94620D02*
X83200D01*
X81498Y94660D02*
X83209D01*
X81497Y94700D02*
X83221D01*
X81494Y94740D02*
X83236D01*
X81489Y94780D02*
X83255D01*
X81480Y94820D02*
X83277D01*
X83483Y93380D02*
X84264D01*
X83434Y93500D02*
X84384D01*
X83410Y93540D02*
X84424D01*
X83382Y93580D02*
X84464D01*
X83347Y93620D02*
X84504D01*
X83305Y93660D02*
X84544D01*
X83501Y93180D02*
X84125D01*
X83503Y93220D02*
X84143D01*
X83502Y93260D02*
X84166D01*
X83499Y93300D02*
X84193D01*
X83492Y93340D02*
X84225D01*
X83470Y93420D02*
X84304D01*
X83454Y93460D02*
X84344D01*
X81469Y94860D02*
X83303D01*
X83181Y93740D02*
X84624D01*
X83067Y93780D02*
X84664D01*
X81455Y94900D02*
X83334D01*
X81438Y94940D02*
X83371D01*
X81418Y94980D02*
X83416D01*
X81394Y95020D02*
X83470D01*
X83252Y93700D02*
X84584D01*
X83964Y93900D02*
X84784D01*
X84074Y93940D02*
X84824D01*
X84146Y93980D02*
X84864D01*
X84201Y94020D02*
X84904D01*
X84245Y94060D02*
X84944D01*
X85748Y89989D02*
X85857Y89880D01*
X85757Y89980D02*
X85868D01*
X85748Y90020D02*
X85868D01*
X85748Y90060D02*
X85868D01*
X85748Y90100D02*
X85868D01*
X85748Y90140D02*
X85868D01*
X85748Y90180D02*
X85868D01*
Y89880D02*
Y90040D01*
X85837Y89900D02*
X85868D01*
X85797Y89940D02*
X85868D01*
Y90040D02*
Y90130D01*
Y90040D02*
Y90130D01*
X85748Y90220D02*
X85868D01*
X85748Y90260D02*
X85868D01*
X85138Y90360D02*
Y90610D01*
Y90360D02*
X85748D01*
X85138Y90380D02*
X85986D01*
X85138Y90420D02*
X86026D01*
X85488Y90520D02*
X85808D01*
X85138Y90460D02*
X86066D01*
X85138Y90500D02*
X86106D01*
X85748Y89989D02*
Y90360D01*
Y90300D02*
X85868D01*
Y90130D02*
Y90360D01*
X85748Y90340D02*
X85868D01*
X85488Y90520D02*
Y90840D01*
X85868Y90360D02*
X85966D01*
X86126Y90520D01*
X89709Y87540D02*
X90608D01*
X89709Y87580D02*
X90608D01*
X89709Y87620D02*
X90608D01*
X89709Y87660D02*
X90608D01*
X89709Y87700D02*
X90608D01*
X89709Y87740D02*
X90608D01*
X89709Y87780D02*
X90608D01*
X89709Y87820D02*
X90608D01*
X89709Y87860D02*
X90608D01*
X89709Y87900D02*
X90608D01*
X89709Y87940D02*
X90608D01*
X89709Y87980D02*
X90608D01*
X89709Y88020D02*
X90608D01*
X89709Y88060D02*
X90608D01*
X89709Y88089D02*
X90009Y88389D01*
X89719Y88100D02*
X90608D01*
X89759Y88140D02*
X90608D01*
X85808Y90520D02*
X86126D01*
X86128Y90523D02*
Y91057D01*
X89799Y88180D02*
X90608D01*
X86128Y90523D02*
X86393Y90788D01*
X89839Y88220D02*
X90608D01*
X89879Y88260D02*
X90608D01*
X89919Y88300D02*
X90611D01*
X89959Y88340D02*
X90617D01*
X89999Y88380D02*
X90628D01*
X90033Y88420D02*
X90642D01*
X85003Y90660D02*
X85488D01*
X84967Y90700D02*
X85488D01*
X84927Y90740D02*
X85488D01*
X84487Y91180D02*
X85182D01*
X84887Y90780D02*
X85488D01*
X84847Y90820D02*
X85488D01*
X85138Y90540D02*
X85488D01*
X85138Y90580D02*
X85488D01*
X85028Y90610D02*
X85138D01*
X85025Y90620D02*
X85488D01*
Y90840D02*
Y91160D01*
Y90840D02*
Y91160D01*
X84161Y91420D02*
X84984D01*
X84299Y91340D02*
X85015D01*
X84094Y91380D02*
X84997D01*
X84212Y91460D02*
X84977D01*
X84255Y91500D02*
X84973D01*
X84290Y91540D02*
X84974D01*
X84320Y91580D02*
X84980D01*
X84407Y91260D02*
X85072D01*
X84373Y91294D02*
X84982Y90685D01*
X84447Y91220D02*
X85116D01*
X84588Y91620D02*
X84990D01*
X84665Y91625D02*
X84992D01*
X84367Y91300D02*
X85040D01*
X86128Y90580D02*
X86186D01*
X86128Y90620D02*
X86226D01*
X86128Y90660D02*
X86266D01*
X84807Y90860D02*
X85488D01*
X84767Y90900D02*
X85488D01*
X84727Y90940D02*
X85488D01*
X84687Y90980D02*
X85488D01*
X86128Y90700D02*
X86306D01*
X86128Y90740D02*
X86346D01*
X86128Y90780D02*
X86386D01*
X86128Y90820D02*
X86393D01*
X86128Y90860D02*
X86393D01*
X86128Y90900D02*
X86393D01*
X86128Y90940D02*
X86393D01*
X84647Y91020D02*
X85488D01*
X86128Y90980D02*
X86393D01*
X86128Y91020D02*
X86393D01*
X84607Y91060D02*
X85488D01*
X84567Y91100D02*
X85488D01*
X84527Y91140D02*
X85488D01*
X85696Y91580D02*
X85746D01*
X86128Y90840D02*
Y91057D01*
X86209Y91138D01*
X86131Y91060D02*
X86393D01*
Y90788D02*
Y91145D01*
X86171Y91100D02*
X86393D01*
X86209Y91138D02*
X86326D01*
X86361Y91140D02*
X86393D01*
X90051Y88460D02*
X90661D01*
X90058Y88500D02*
X90686D01*
X90059Y88540D02*
X90717D01*
X90059Y88580D02*
X90756D01*
X90059Y88620D02*
X90796D01*
X90059Y88660D02*
X90836D01*
X90059Y88700D02*
X90876D01*
X90059Y88740D02*
X90916D01*
X90059Y88780D02*
X90956D01*
X90059Y88820D02*
X90996D01*
X90059Y88860D02*
X91036D01*
X90059Y88900D02*
X91076D01*
X90059Y88510D02*
Y89073D01*
Y88940D02*
X91116D01*
X90059Y88980D02*
X91156D01*
X90059Y89060D02*
X90148D01*
X90081Y89900D02*
X90281Y89700D01*
X90241Y89760D02*
Y89900D01*
Y89760D02*
X90866D01*
Y89994D01*
X90201Y89780D02*
X90241D01*
X90161Y89820D02*
X90241D01*
X90866Y89780D02*
X91056D01*
Y89760D02*
Y90184D01*
X91867Y87540D02*
X99057D01*
X91907Y87580D02*
X99017D01*
X91967Y87700D02*
X98897D01*
X91940Y87620D02*
X98977D01*
X91958Y87660D02*
X98937D01*
X91968Y87820D02*
X98777D01*
X91968Y87740D02*
X98857D01*
X91968Y87780D02*
X98817D01*
X91968Y87940D02*
X98657D01*
X91968Y87980D02*
X98617D01*
X91968Y87860D02*
X98737D01*
X91968Y87900D02*
X98697D01*
X90059Y89020D02*
X91196D01*
X90737Y88561D02*
X91236Y89060D01*
X90148D02*
X91236D01*
X90148D02*
X91236D01*
X90281Y89700D02*
X91256D01*
X90281D02*
X91256D01*
X90241Y89740D02*
X91296D01*
X91968Y87720D02*
Y88041D01*
X93057Y89130D01*
X91968Y88020D02*
X98577D01*
X91987Y88060D02*
X98537D01*
X91256Y89700D02*
X91316Y89760D01*
X91056D02*
X91316D01*
X92027Y88100D02*
X98497D01*
X92067Y88140D02*
X98457D01*
X90121Y89860D02*
X90241D01*
X90866Y89820D02*
X91056D01*
X90866Y89860D02*
X91056D01*
X90081Y89900D02*
X90241D01*
X90866Y89900D02*
X91056D01*
X90866Y89940D02*
X91056D01*
X90866Y89980D02*
X91056D01*
X90892Y90020D02*
X91056D01*
X90932Y90060D02*
X91056D01*
X90972Y90100D02*
X91056D01*
X91012Y90140D02*
X91056D01*
X91681Y90180D02*
X91736D01*
X90488Y91080D02*
X90538D01*
X90488Y91100D02*
X90558D01*
X90488Y91140D02*
X90598D01*
X90488Y91180D02*
X90638D01*
X90488Y91220D02*
X90678D01*
X90488Y91260D02*
X90718D01*
X90488Y91300D02*
X90758D01*
X90538Y91080D02*
X90778Y91320D01*
X90488Y91080D02*
Y91410D01*
X90866Y89994D02*
X91056Y90184D01*
X91681Y90125D02*
Y90398D01*
X90488Y91340D02*
X90778D01*
X90488Y91380D02*
X90781D01*
X90488Y91410D02*
X90787D01*
X91681Y90220D02*
X91776D01*
X91681Y90260D02*
X91816D01*
X91681Y90125D02*
X91982Y90426D01*
X91681Y90300D02*
X91856D01*
X91681Y90340D02*
X91896D01*
X91681Y90380D02*
X91936D01*
X91737Y90420D02*
X91976D01*
X91792Y90460D02*
X92022D01*
X91832Y90500D02*
X92097D01*
X91872Y90540D02*
X92656D01*
X91795Y90463D02*
X91895Y90563D01*
X91910Y90580D02*
X92696D01*
X91937Y90620D02*
X92736D01*
X91968Y90750D02*
X92088D01*
X91955Y90660D02*
X92776D01*
X91965Y90700D02*
X92816D01*
X92088Y90750D02*
X92238D01*
X92088D02*
X92238D01*
X92105Y91330D02*
X92238D01*
X92105D02*
X92238D01*
X92105Y91340D02*
X93268D01*
X92105Y91446D02*
X92568D01*
X92105Y91380D02*
X93268D01*
X92105Y91420D02*
X93268D01*
X85584Y91780D02*
X85883D01*
X85531Y91820D02*
X85883D01*
X85442Y91860D02*
X85883D01*
X85253Y91900D02*
X85883D01*
X85686Y91620D02*
X85786D01*
X85671Y91660D02*
X85826D01*
X85702Y91537D02*
X85850Y91684D01*
X85650Y91700D02*
X85867D01*
X85622Y91740D02*
X85883D01*
X85253Y91940D02*
X85883D01*
X85253Y91980D02*
X85883D01*
X85253Y92020D02*
X85883D01*
X85253Y92060D02*
X85883D01*
X85253Y92100D02*
X85883D01*
X85253Y92140D02*
X85883D01*
X85253Y92180D02*
X85883D01*
X85253Y91865D02*
Y92213D01*
X85883Y91713D02*
Y92575D01*
X85258Y92290D02*
Y92706D01*
X85254Y92220D02*
X85883D01*
X85258Y92706D02*
X85835Y93283D01*
X85257Y92260D02*
X85883D01*
X85258Y92300D02*
X85883D01*
X85258Y92340D02*
X85883D01*
X85258Y92380D02*
X85883D01*
X85258Y92420D02*
X85883D01*
X85258Y92460D02*
X85883D01*
X85258Y92500D02*
X85883D01*
X85258Y92540D02*
X85883D01*
Y92575D02*
X86793D01*
X85258Y92580D02*
X88117D01*
X85258Y92700D02*
X87997D01*
X85292Y92740D02*
X87957D01*
X85258Y92620D02*
X88077D01*
X85258Y92660D02*
X88037D01*
X85412Y92860D02*
X87858D01*
X85332Y92780D02*
X87917D01*
X85372Y92820D02*
X87880D01*
X85452Y92900D02*
X87849D01*
X85492Y92940D02*
X87848D01*
X85532Y92980D02*
X87848D01*
X85572Y93020D02*
X87848D01*
X85692Y93140D02*
X86328D01*
X85732Y93180D02*
X86328D01*
X85612Y93060D02*
X87848D01*
X85652Y93100D02*
X87848D01*
X85772Y93220D02*
X86328D01*
X85812Y93260D02*
X86328D01*
X85852Y93300D02*
X86328D01*
X85886Y93340D02*
X86328D01*
X85914Y93380D02*
X86328D01*
X84282Y94100D02*
X84984D01*
X85937Y93420D02*
X86328D01*
X85957Y93460D02*
X86328D01*
X85973Y93500D02*
X86328D01*
X85986Y93540D02*
X86328D01*
X85996Y93580D02*
X86328D01*
X85938Y93979D02*
X86039Y94080D01*
X86003Y93620D02*
X86328D01*
X86007Y93660D02*
X86328D01*
X84251Y93367D02*
X85001Y94117D01*
X84313Y94140D02*
X85025D01*
X84339Y94180D02*
X85075D01*
X84361Y94220D02*
X85139D01*
X84380Y94260D02*
X85232D01*
X84395Y94300D02*
X85777D01*
X84407Y94340D02*
X85817D01*
X85604Y94260D02*
X85737D01*
X85697Y94220D02*
X85848Y94371D01*
X84416Y94380D02*
X85858D01*
X84423Y94420D02*
X85955D01*
X85986Y93860D02*
X86328D01*
X85973Y93900D02*
X86328D01*
X85957Y93940D02*
X86328D01*
X85939Y93980D02*
X86328D01*
X85979Y94020D02*
X86328D01*
X84427Y94460D02*
X87777D01*
X84428Y94500D02*
X87827D01*
X86008Y93700D02*
X86328D01*
X86007Y93740D02*
X86328D01*
X86003Y93780D02*
X86328D01*
X85996Y93820D02*
X86328D01*
X86019Y94060D02*
X86328D01*
X86039Y94080D02*
X86328D01*
X85968Y94420D02*
X87737D01*
X84313Y94860D02*
X88211D01*
X84282Y94900D02*
X88236D01*
X84245Y94940D02*
X88267D01*
X84201Y94980D02*
X88307D01*
X84146Y95020D02*
X88360D01*
X84074Y95060D02*
X88438D01*
X83982Y95095D02*
X91218D01*
X84423Y94580D02*
X88164D01*
X84416Y94620D02*
X88159D01*
X84427Y94540D02*
X88172D01*
X84407Y94660D02*
X88158D01*
X84395Y94700D02*
X88161D01*
X84380Y94740D02*
X88167D01*
X84361Y94780D02*
X88178D01*
X84339Y94820D02*
X88192D01*
X86793Y92390D02*
X87428D01*
X86793D02*
Y92575D01*
X86328Y93110D02*
X87508D01*
Y93140D02*
X87848D01*
X87508Y93180D02*
X87848D01*
X87633Y92305D02*
X87928Y92011D01*
X87878Y92060D02*
X87928D01*
Y92011D02*
Y92320D01*
X87508Y93220D02*
X87848D01*
X87838Y92100D02*
X87928D01*
X86328Y93110D02*
Y94080D01*
X87508Y93260D02*
X87848D01*
X87508Y93300D02*
X87848D01*
X87508Y93340D02*
X87848D01*
X87508Y93380D02*
X87848D01*
X87508Y93420D02*
X87848D01*
X87508Y93110D02*
Y94080D01*
Y93460D02*
X87848D01*
Y92920D02*
Y93721D01*
X87508Y93500D02*
X87848D01*
X87508Y93540D02*
X87848D01*
X87508Y93580D02*
X87848D01*
X87508Y93620D02*
X87848D01*
X87638Y92300D02*
X87928D01*
X87591Y92340D02*
X87929D01*
X87504Y92380D02*
X87938D01*
X86793Y92420D02*
X87960D01*
X86793Y92460D02*
X87997D01*
X86793Y92500D02*
X88037D01*
X86793Y92540D02*
X88077D01*
X87798Y92140D02*
X87928D01*
X87758Y92180D02*
X87928D01*
X87718Y92220D02*
X87928D01*
X87678Y92260D02*
X87928D01*
X87978Y92441D02*
X88117Y92580D01*
X87898Y92799D02*
X88117Y92580D01*
X92059Y92885D02*
X92105D01*
X92048Y92900D02*
X93268D01*
X92019Y92930D02*
X92351D01*
X92105Y92614D02*
X92568D01*
X92105D02*
Y92885D01*
Y92620D02*
X93268D01*
X92105Y92660D02*
X93268D01*
X92105Y92700D02*
X93268D01*
X92105Y92740D02*
X93268D01*
X92105Y92780D02*
X93268D01*
X92105Y92820D02*
X93268D01*
X87508Y93660D02*
X87848D01*
X87508Y93780D02*
X87808D01*
X87508Y93820D02*
X87788D01*
X87508Y93700D02*
X87848D01*
X87508Y93740D02*
X87833D01*
X87508Y93900D02*
X87764D01*
X87508Y93860D02*
X87774D01*
X87508Y93940D02*
X87759D01*
X87508Y93980D02*
X87758D01*
X87508Y94020D02*
X87761D01*
X87508Y94060D02*
X87769D01*
X87508Y94080D02*
X87774D01*
X87737Y94420D02*
X87788Y94471D01*
X87908Y94521D02*
X88178D01*
X89012Y94501D02*
X89169D01*
X89024Y94540D02*
X89157D01*
X89032Y94580D02*
X89149D01*
X89037Y94620D02*
X89144D01*
X89038Y94660D02*
X89143D01*
X89035Y94700D02*
X89146D01*
X89029Y94740D02*
X89152D01*
X89018Y94780D02*
X89163D01*
X89004Y94820D02*
X89177D01*
X88985Y94860D02*
X89196D01*
X88960Y94900D02*
X89221D01*
X88929Y94940D02*
X89252D01*
X88889Y94980D02*
X89292D01*
X89945Y94900D02*
X90206D01*
X89914Y94940D02*
X90237D01*
X90089Y94771D02*
X90134Y94725D01*
X90078Y94780D02*
X90148D01*
X89989Y94820D02*
X90162D01*
X89970Y94860D02*
X90181D01*
X90870Y94970D02*
X91248D01*
X89874Y94980D02*
X90277D01*
X88836Y95020D02*
X89345D01*
X88758Y95060D02*
X89423D01*
X89821Y95020D02*
X90330D01*
X89743Y95060D02*
X90408D01*
X90859Y94980D02*
X91248D01*
Y94970D02*
Y95045D01*
X90806Y95020D02*
X91248D01*
Y94970D02*
Y95045D01*
X90728Y95060D02*
X91248D01*
Y95045D02*
Y95098D01*
X94209Y80895D02*
X94446Y81132D01*
X94598Y81195D02*
X95349D01*
X95516Y81362D01*
X96061Y81300D02*
X96127D01*
X96075Y81248D02*
X96178Y81351D01*
X96042Y81340D02*
X96167D01*
X96011Y81380D02*
X96217D01*
X95668Y81425D02*
X95701D01*
X92387Y88460D02*
X95998D01*
X92307Y88380D02*
X96345D01*
X92347Y88420D02*
X96078D01*
X92507Y88580D02*
X95911D01*
X92547Y88620D02*
X95901D01*
X92427Y88500D02*
X95956D01*
X92467Y88540D02*
X95929D01*
X96218Y88420D02*
X96325D01*
X92587Y88660D02*
X95157D01*
X95218Y88650D02*
X95518D01*
X96298Y81401D02*
X96567D01*
X95964Y81420D02*
X96587D01*
X96567Y81401D02*
X96658Y81491D01*
X95828Y81460D02*
X96627D01*
X96778Y81541D02*
X97098D01*
X97219Y81491D02*
X97359Y81351D01*
X97796D01*
X97329Y81380D02*
X97826D01*
X97289Y81420D02*
X97866D01*
X97249Y81460D02*
X97906D01*
X97208Y81500D02*
X97946D01*
X92187Y88260D02*
X96558D01*
X92107Y88180D02*
X98417D01*
X92147Y88220D02*
X98377D01*
X92227Y88300D02*
X96422D01*
X92267Y88340D02*
X96375D01*
X96558Y88260D02*
X98337D01*
X97111Y81540D02*
X97986D01*
X97796Y81351D02*
X99446Y83001D01*
X98177Y88420D02*
X99548Y87049D01*
X96772Y88380D02*
X98217D01*
X96791Y88420D02*
X98177D01*
X96694Y88300D02*
X98297D01*
X96741Y88340D02*
X98257D01*
X92707Y88780D02*
X95009D01*
X92627Y88700D02*
X95090D01*
X92667Y88740D02*
X95049D01*
X92827Y88900D02*
X94889D01*
X92867Y88940D02*
X94849D01*
X92747Y88820D02*
X94969D01*
X92787Y88860D02*
X94929D01*
X95648Y88660D02*
X95898D01*
X95728Y88700D02*
X95901D01*
X92947Y89020D02*
X94769D01*
X92987Y89060D02*
X94729D01*
X95761Y88730D02*
X95908D01*
X92907Y88980D02*
X94809D01*
X93057Y89130D02*
X94659D01*
X93027Y89100D02*
X94689D01*
X94659Y89130D02*
X95083Y88706D01*
X95047Y89620D02*
X95479D01*
X95033Y89634D02*
X95338Y89329D01*
X95087Y89580D02*
X95506D01*
X95001Y89660D02*
X95461D01*
X95799Y89261D02*
X95859Y89200D01*
X95127Y89540D02*
X95548D01*
X95415Y89311D02*
X95678D01*
X95167Y89500D02*
X95628D01*
X95799Y89260D02*
X98468D01*
X95737Y89300D02*
X98459D01*
X95327Y89340D02*
X98458D01*
X95287Y89380D02*
X98458D01*
X95768Y89500D02*
X96178D01*
X95247Y89420D02*
X98458D01*
X95207Y89460D02*
X98458D01*
X95839Y89220D02*
X98490D01*
X95859Y89200D02*
X98506D01*
X96178Y89490D02*
X97078D01*
X98799Y89391D02*
X98959Y89230D01*
X98799Y89420D02*
X99458D01*
X95848Y89540D02*
X96178D01*
X97078Y89500D02*
X97534D01*
X97078Y89540D02*
X97422D01*
X95890Y89580D02*
X96178D01*
X95917Y89620D02*
X96178D01*
X97078Y89580D02*
X97358D01*
X95935Y89660D02*
X96178D01*
X97834Y89540D02*
X98422D01*
X97898Y89580D02*
X98358D01*
X97722Y89500D02*
X98458D01*
Y89320D02*
Y89524D01*
X97078Y89620D02*
X97312D01*
X97078Y89660D02*
X97276D01*
X97944Y89620D02*
X98312D01*
X97980Y89660D02*
X98276D01*
X99579Y88060D02*
X99651D01*
X99539Y88100D02*
X99651D01*
X99499Y88140D02*
X99651D01*
X99809Y80690D02*
Y80877D01*
Y80860D02*
X99841D01*
X99619Y88020D02*
X99651D01*
X100095Y80860D02*
X100341D01*
X100162Y80900D02*
X100274D01*
X99109Y88531D02*
X99651Y87988D01*
X99299Y88340D02*
X99658D01*
X99259Y88380D02*
X99668D01*
X99219Y88420D02*
X99685D01*
X99179Y88460D02*
X99710D01*
X99139Y88500D02*
X99743D01*
X99651Y87988D02*
Y88277D01*
X99459Y88180D02*
X99651D01*
X99419Y88220D02*
X99651D01*
X99379Y88260D02*
X99651D01*
X99339Y88300D02*
X99652D01*
X100193Y88500D02*
X100243D01*
X100518Y80020D02*
X100676D01*
X100518Y80005D02*
X100684D01*
X100518Y80060D02*
X100656D01*
X100518Y80100D02*
X100640D01*
X100518Y80140D02*
X100629D01*
X100518Y80180D02*
X100622D01*
X100518Y80220D02*
X100619D01*
X100518Y80260D02*
X100619D01*
X100518Y80300D02*
X100622D01*
X100518Y80340D02*
X100629D01*
X100518Y80380D02*
X100640D01*
X100518Y80420D02*
X100656D01*
X100518Y80460D02*
X100676D01*
X100518Y80500D02*
X100701D01*
X100518Y80540D02*
X100733D01*
X100518Y80580D02*
X100773D01*
X99809Y80690D02*
X100518D01*
Y80620D02*
X100827D01*
X100518Y80005D02*
Y80690D01*
X100595Y80860D02*
X100841D01*
X100518Y80660D02*
X100907D01*
X100662Y80900D02*
X100774D01*
X100693Y88500D02*
X100743D01*
X101162Y80900D02*
X101274D01*
X99109Y88540D02*
X99792D01*
X99118Y89180D02*
X99277D01*
X99038Y89220D02*
X99317D01*
X98929Y89260D02*
X99357D01*
X98889Y89300D02*
X99397D01*
X99149Y88569D02*
X99749Y89169D01*
X100144Y88540D02*
X100292D01*
X99159Y88580D02*
X99877D01*
X99160Y89140D02*
X99237D01*
X100060Y88580D02*
X100377D01*
X98799Y89391D02*
Y89524D01*
X98849Y89340D02*
X99437D01*
X98809Y89380D02*
X99458D01*
X98834Y89540D02*
X99422D01*
X98898Y89580D02*
X99358D01*
X98799Y89460D02*
X99458D01*
X98799Y89500D02*
X99458D01*
X99191Y89094D02*
X99458Y89361D01*
Y89524D01*
X99799Y89290D02*
Y89524D01*
X99898Y89580D02*
X100358D01*
X98944Y89620D02*
X99312D01*
X98980Y89660D02*
X99276D01*
X99944Y89620D02*
X100312D01*
X99980Y89660D02*
X100276D01*
X99239Y88660D02*
X100699D01*
X99199Y88620D02*
X100726D01*
X99279Y88700D02*
X100681D01*
X99319Y88740D02*
X100671D01*
X99359Y88780D02*
X100668D01*
X99399Y88820D02*
X100671D01*
X99439Y88860D02*
X100681D01*
X100560Y88580D02*
X100768D01*
X100644Y88540D02*
X100792D01*
X99479Y88900D02*
X100699D01*
X99519Y88940D02*
X100726D01*
X99559Y88980D02*
X100768D01*
X99599Y89020D02*
X100788D01*
X99639Y89060D02*
X100788D01*
X99679Y89100D02*
X100788D01*
X99719Y89140D02*
X100788D01*
X99758Y89180D02*
X100788D01*
X99784Y89220D02*
X100788D01*
X99796Y89260D02*
X100788D01*
X99799Y89300D02*
X100788D01*
X99799Y89340D02*
X100788D01*
Y88993D02*
Y89519D01*
X99799Y89380D02*
X100788D01*
X99799Y89420D02*
X100788D01*
X99799Y89500D02*
X100534D01*
X99834Y89540D02*
X100422D01*
X99799Y89460D02*
X100788D01*
X100722Y89500D02*
X100788D01*
X92879Y89740D02*
X95448D01*
X92868Y89780D02*
X95451D01*
X92854Y89820D02*
X95461D01*
X92835Y89860D02*
X95479D01*
X92879Y89900D02*
X95483D01*
X92918Y89690D02*
X94898D01*
X92885Y89700D02*
X95451D01*
X92955Y89940D02*
X95489D01*
X93001Y89980D02*
X95503D01*
X92995Y89974D02*
X93804Y90783D01*
X93041Y90020D02*
X95527D01*
X93161Y90140D02*
X94928D01*
X93081Y90060D02*
X95564D01*
X93121Y90100D02*
X95604D01*
X93281Y90260D02*
X94715D01*
X93321Y90300D02*
X94695D01*
X93201Y90180D02*
X94792D01*
X93241Y90220D02*
X94745D01*
X95945Y89700D02*
X96178D01*
X95948Y89740D02*
X96178D01*
X95945Y89780D02*
X96178D01*
X95935Y89820D02*
X96178D01*
X95972Y89860D02*
X96178D01*
X97078Y89740D02*
X97225D01*
X97078Y89700D02*
X97247D01*
X97078Y89780D02*
X97207D01*
X97078Y89820D02*
X97194D01*
X96012Y89900D02*
X96178D01*
X97078Y89860D02*
X97185D01*
X97078Y89900D02*
X97180D01*
X94928Y90140D02*
X95644D01*
X95934Y89822D02*
X96178Y90066D01*
X95546Y90042D02*
X95974Y90470D01*
X95064Y90180D02*
X95684D01*
X95111Y90220D02*
X95724D01*
X95142Y90260D02*
X95764D01*
X95161Y90300D02*
X95804D01*
X96052Y89940D02*
X96178D01*
Y89490D02*
Y90066D01*
X96092Y89980D02*
X96178D01*
X96132Y90020D02*
X96178D01*
X97078Y89940D02*
X97178D01*
X92238Y90750D02*
X92588D01*
X92208Y90520D02*
X92636D01*
X92588Y90780D02*
X92658D01*
X92588Y90820D02*
X92658D01*
X92588Y90860D02*
X92658D01*
X92588Y90900D02*
X92658D01*
X92588Y90940D02*
X92658D01*
X92636Y90520D02*
X92866Y90750D01*
X92658D02*
X92866D01*
X92588Y90980D02*
X92658D01*
X92588Y91020D02*
X92658D01*
X92588Y91060D02*
X92658D01*
X92588Y90750D02*
Y91330D01*
X92658Y90750D02*
Y91330D01*
X92588Y91100D02*
X92658D01*
X92588Y91140D02*
X92658D01*
X92588Y91180D02*
X92658D01*
X92588Y91220D02*
X92658D01*
X93158Y91043D02*
Y91330D01*
Y91100D02*
X93216D01*
X93158Y91043D02*
X93263Y91148D01*
X93158Y91140D02*
X93256D01*
X93268Y91169D02*
Y93520D01*
X93158Y91180D02*
X93268D01*
X93158Y91220D02*
X93268D01*
X93361Y90340D02*
X94683D01*
X95173D02*
X95844D01*
X93401Y90380D02*
X94678D01*
X93441Y90420D02*
X94680D01*
X93481Y90460D02*
X94688D01*
X95178Y90380D02*
X95884D01*
X95199Y90420D02*
X95924D01*
X95178Y90399D02*
X95249Y90470D01*
X96852Y90390D02*
X97078D01*
X96852D02*
X96897Y90435D01*
X95239Y90460D02*
X95964D01*
X95249Y90470D02*
X95974D01*
X96882Y90420D02*
X97413D01*
X96897Y90435D02*
X97413D01*
X93521Y90500D02*
X94704D01*
X93561Y90540D02*
X94728D01*
X93601Y90580D02*
X94766D01*
X93721Y90700D02*
X94299D01*
X93761Y90740D02*
X94259D01*
X93641Y90620D02*
X94402D01*
X93681Y90660D02*
X94339D01*
X94149Y90850D02*
X94328Y90670D01*
X94498Y90600D02*
X94792D01*
X93855Y90850D02*
X94149D01*
X93801Y90780D02*
X94219D01*
X93836Y90820D02*
X94179D01*
X98031Y89740D02*
X98225D01*
X98009Y89700D02*
X98247D01*
X98049Y89780D02*
X98207D01*
X97078Y89980D02*
X97180D01*
X97078Y90020D02*
X97185D01*
X98062Y89820D02*
X98194D01*
X98071Y89860D02*
X98185D01*
X98076Y89900D02*
X98180D01*
X99076D02*
X99180D01*
X98078Y89940D02*
X98178D01*
X98076Y89980D02*
X98180D01*
X99078Y89940D02*
X99178D01*
X98071Y90020D02*
X98185D01*
X97078Y89490D02*
Y90390D01*
Y90060D02*
X97194D01*
X97078Y90100D02*
X97207D01*
X97078Y90140D02*
X97225D01*
X97078Y90180D02*
X97247D01*
X97078Y90220D02*
X97276D01*
X98062Y90060D02*
X98194D01*
X98049Y90100D02*
X98207D01*
X98031Y90140D02*
X98225D01*
X98009Y90180D02*
X98247D01*
X97980Y90220D02*
X98276D01*
X99031Y89740D02*
X99225D01*
X99009Y89700D02*
X99247D01*
X99049Y89780D02*
X99207D01*
X99076Y89980D02*
X99180D01*
X99062Y89820D02*
X99194D01*
X99071Y89860D02*
X99185D01*
X100049Y89780D02*
X100207D01*
X100009Y89700D02*
X100247D01*
X100031Y89740D02*
X100225D01*
X100071Y89860D02*
X100185D01*
X100076Y89900D02*
X100180D01*
X100062Y89820D02*
X100194D01*
X100078Y89940D02*
X100178D01*
X99071Y90020D02*
X99185D01*
X99062Y90060D02*
X99194D01*
X99049Y90100D02*
X99207D01*
X99031Y90140D02*
X99225D01*
X99009Y90180D02*
X99247D01*
X98980Y90220D02*
X99276D01*
X100076Y89980D02*
X100180D01*
X100071Y90020D02*
X100185D01*
X100062Y90060D02*
X100194D01*
X100049Y90100D02*
X100207D01*
X100031Y90140D02*
X100225D01*
X100009Y90180D02*
X100247D01*
X99980Y90220D02*
X100276D01*
X97078Y90260D02*
X97312D01*
X97078Y90300D02*
X97358D01*
X97898D02*
X98358D01*
X97078Y90340D02*
X97413D01*
X97078Y90380D02*
X97413D01*
X97843Y90340D02*
X98422D01*
X97843Y90380D02*
X98534D01*
X97944Y90260D02*
X98312D01*
X98944D02*
X99312D01*
X99944D02*
X100312D01*
X98898Y90300D02*
X99358D01*
X98834Y90340D02*
X99422D01*
X99898Y90300D02*
X100358D01*
X98722Y90380D02*
X99534D01*
X97413Y90335D02*
Y90435D01*
X97843Y90335D02*
Y90435D01*
X98078D01*
X98230Y90498D02*
X98337Y90605D01*
X98618D01*
X98882Y90780D02*
X100038D01*
X98770Y90668D02*
X98917Y90815D01*
X99911D01*
X100278Y91100D02*
X100348D01*
X97843Y90420D02*
X100918D01*
X98179Y90460D02*
X100918D01*
X98232Y90500D02*
X100918D01*
X98272Y90540D02*
X100918D01*
X98312Y90580D02*
X100918D01*
X98697Y90620D02*
X100918D01*
X98762Y90660D02*
X100918D01*
X99834Y90340D02*
X100422D01*
X100834D02*
X100918D01*
X99722Y90380D02*
X100534D01*
X100722D02*
X100918D01*
X98802Y90700D02*
X100918D01*
X98842Y90740D02*
X100918D01*
X100038Y90780D02*
X100918D01*
X100174Y90820D02*
X100918D01*
X100221Y90860D02*
X100918D01*
X100252Y90900D02*
X100918D01*
X100271Y90940D02*
X100918D01*
X100283Y90980D02*
X100918D01*
X100288Y91020D02*
X100918D01*
X100286Y91060D02*
X100897D01*
X100918Y90285D02*
Y91039D01*
X100638Y91319D02*
X100918Y91039D01*
X100499Y91180D02*
X100777D01*
X100469Y91149D02*
X100638Y91319D01*
X100361Y91100D02*
X100857D01*
X100458Y91140D02*
X100817D01*
X101461Y80020D02*
X101676D01*
X101452Y80005D02*
X101684D01*
X101481Y80060D02*
X101656D01*
X101496Y80100D02*
X101640D01*
X101481Y80420D02*
X101656D01*
X101461Y80460D02*
X101676D01*
X101514Y80180D02*
X101622D01*
X101507Y80140D02*
X101629D01*
X101518Y80220D02*
X101619D01*
X101518Y80260D02*
X101619D01*
X101514Y80300D02*
X101622D01*
X101507Y80340D02*
X101629D01*
X101496Y80380D02*
X101640D01*
X101230Y80660D02*
X101798D01*
X99809Y80700D02*
X101798D01*
X101095Y80860D02*
X101341D01*
X99809Y80740D02*
X101798D01*
X99809Y80780D02*
X101798D01*
X101435Y80500D02*
X101701D01*
X101403Y80540D02*
X101733D01*
X101363Y80580D02*
X101773D01*
X101662Y80900D02*
X101774D01*
X101309Y80620D02*
X101798D01*
Y80600D02*
Y80883D01*
X99809Y80820D02*
X101798D01*
X101595Y80860D02*
X101798D01*
X103968Y82500D02*
X104018D01*
X103965Y82540D02*
X104056D01*
X104381D02*
X106972D01*
X104463Y82301D02*
X106808D01*
X104468Y82340D02*
X106858D01*
X104466Y82380D02*
X106863D01*
X104458Y82420D02*
X106875D01*
X104443Y82460D02*
X106895D01*
X104418Y82500D02*
X106925D01*
X103459Y83001D02*
X103709Y82750D01*
X103679Y82780D02*
X109093D01*
X103639Y82820D02*
X109093D01*
X103599Y82860D02*
X109093D01*
X103559Y82900D02*
X109093D01*
X103519Y82940D02*
X109093D01*
X103479Y82980D02*
X109093D01*
X103955Y82580D02*
X104120D01*
X104316D02*
X107108D01*
X103937Y82620D02*
X109093D01*
X103910Y82660D02*
X109093D01*
X103868Y82700D02*
X109093D01*
X103788Y82740D02*
X109093D01*
X103435Y83020D02*
X109093D01*
X99567Y83050D02*
X103338D01*
X104464Y83986D02*
X106712D01*
Y84020D02*
X109093D01*
X106712Y84060D02*
X109093D01*
X106712Y84100D02*
X109093D01*
X106712Y84140D02*
X109093D01*
X106712Y84180D02*
X109093D01*
X106712Y84220D02*
X109093D01*
X106712Y84260D02*
X109093D01*
X106712Y84300D02*
X109093D01*
X99668Y87000D02*
X103438D01*
X103559Y87049D02*
X103609Y87100D01*
X103848D01*
X104464Y83986D02*
Y86234D01*
X103969Y87149D02*
X104039Y87220D01*
X104768D01*
X104464Y86234D02*
X106712D01*
X103999Y87180D02*
X108618D01*
X106712Y84340D02*
X109093D01*
X106712Y84380D02*
X109093D01*
X106712Y84420D02*
X109093D01*
X106712Y84460D02*
X109093D01*
X106712Y84500D02*
X109093D01*
X106712Y84540D02*
X109093D01*
X106712Y84580D02*
X109093D01*
X106712Y84620D02*
X109093D01*
X106712Y84660D02*
X109093D01*
X106712Y84700D02*
X109093D01*
X106712Y84740D02*
X109093D01*
X106712Y84780D02*
X109093D01*
X106712Y84820D02*
X109093D01*
X106712Y84860D02*
X109093D01*
X106712Y84900D02*
X109093D01*
X106712Y84940D02*
X109093D01*
X106712Y84980D02*
X109093D01*
X103519Y87020D02*
X109093D01*
X103569Y87060D02*
X109093D01*
X103861Y87100D02*
X109093D01*
X103958Y87140D02*
X109093D01*
X106712Y85020D02*
X109093D01*
X106712Y85060D02*
X109093D01*
X106712Y85100D02*
X109093D01*
X106712Y85140D02*
X109093D01*
X106712Y85180D02*
X109093D01*
X106712Y85220D02*
X109093D01*
X106712Y85260D02*
X109093D01*
X106712Y85300D02*
X109093D01*
X107513Y80837D02*
X107863Y80487D01*
X107849Y80500D02*
X107958D01*
X107662Y80900D02*
X107774D01*
X107958Y80500D02*
X108458D01*
X107595Y80860D02*
X107841D01*
X108181Y80420D02*
X108235D01*
X108121Y80460D02*
X108296D01*
X108095Y80860D02*
X108341D01*
X108162Y80900D02*
X108274D01*
X108608Y80466D02*
Y80500D01*
X108458D02*
X108608D01*
X108139Y81860D02*
X108298D01*
X108139Y81900D02*
X108298D01*
X108139Y81940D02*
X108298D01*
X108139Y81851D02*
Y82010D01*
X108179Y81820D02*
X108257D01*
X108139Y81980D02*
X108298D01*
Y81851D02*
Y82113D01*
X108138Y82020D02*
X108298D01*
X108131Y82060D02*
X108298D01*
X107769Y80580D02*
X109093D01*
X107729Y80620D02*
X109093D01*
X107689Y80660D02*
X109093D01*
X107649Y80700D02*
X109093D01*
X107609Y80740D02*
X109093D01*
X107569Y80780D02*
X109093D01*
X107529Y80820D02*
X109093D01*
X108608Y80500D02*
X109093D01*
X108608D02*
X109093D01*
X108595Y80860D02*
X108841D01*
X108662Y80900D02*
X108774D01*
X107809Y80540D02*
X109093D01*
Y80500D02*
Y80859D01*
X108639Y81860D02*
X108813D01*
X108639Y81900D02*
X108950D01*
X108639Y81851D02*
Y81986D01*
Y81940D02*
X109093D01*
X108639Y81980D02*
X109093D01*
X108679Y81820D02*
X108757D01*
X108986Y81900D02*
X109093D01*
X108691Y82020D02*
X109093D01*
X108079Y82140D02*
X108288D01*
X108039Y82180D02*
X108280D01*
X107999Y82220D02*
X108278D01*
X107959Y82260D02*
X108283D01*
X106821Y82300D02*
X106860D01*
X108113Y82100D02*
X108298D01*
X108728Y82060D02*
X109093D01*
X108753Y82100D02*
X109093D01*
X108768Y82140D02*
X109093D01*
X108776Y82180D02*
X109093D01*
X108778Y82220D02*
X109093D01*
X108773Y82260D02*
X109093D01*
X107821Y82340D02*
X108315D01*
X107358Y82340D02*
X107808D01*
X107353Y82380D02*
X108345D01*
X106712Y83986D02*
Y86234D01*
X107341Y82420D02*
X108392D01*
X107322Y82460D02*
X108528D01*
X107929Y82291D02*
X108089Y82131D01*
X107918Y82300D02*
X108295D01*
X108761D02*
X109093D01*
X108742Y82340D02*
X109093D01*
X108711Y82380D02*
X109093D01*
X106712Y85340D02*
X109093D01*
X106712Y85380D02*
X109093D01*
X106712Y85420D02*
X109093D01*
X106712Y85460D02*
X109093D01*
X106712Y85500D02*
X109093D01*
X106712Y85540D02*
X109093D01*
X106712Y85580D02*
X109093D01*
X108664Y82420D02*
X109093D01*
X108528Y82460D02*
X109093D01*
X107291Y82500D02*
X109093D01*
X107244Y82540D02*
X109093D01*
X107108Y82580D02*
X109093D01*
X106712Y85620D02*
X109093D01*
X106712Y85660D02*
X109093D01*
X106712Y85700D02*
X109093D01*
X106712Y85740D02*
X109093D01*
X106712Y85780D02*
X109093D01*
X106712Y85820D02*
X109093D01*
X106712Y85860D02*
X109093D01*
X106712Y85900D02*
X109093D01*
X106712Y85940D02*
X109093D01*
X106712Y85980D02*
X109093D01*
X106712Y86020D02*
X109093D01*
X106712Y86060D02*
X109093D01*
X106712Y86100D02*
X109093D01*
X106712Y86140D02*
X109093D01*
X106712Y86180D02*
X109093D01*
X106712Y86220D02*
X109093D01*
X108618Y87180D02*
X109093D01*
X104889Y87269D02*
X104969Y87350D01*
X102193Y88500D02*
X102243D01*
X102144Y88540D02*
X102292D01*
X104969Y87350D02*
X105228D01*
X105349Y87399D02*
X105476Y87527D01*
X105644Y87580D02*
X105792D01*
X105693Y87620D02*
X105743D01*
X101908Y88620D02*
X102298D01*
X101908Y88660D02*
X102298D01*
X101908Y88700D02*
X102298D01*
X101908Y88740D02*
X102298D01*
X101908Y88780D02*
X102302D01*
X101908Y88820D02*
X102317D01*
X101908Y88588D02*
Y88880D01*
X102060Y88580D02*
X102298D01*
Y88544D02*
Y88740D01*
X102257Y88880D02*
X102317Y88820D01*
X103449Y89021D02*
X103634Y88835D01*
X103658Y88843D02*
Y89140D01*
X104919Y87300D02*
X108405D01*
X104781Y87220D02*
X108482D01*
X104878Y87260D02*
X108435D01*
X105369Y87420D02*
X108289D01*
X105409Y87460D02*
X108260D01*
X104959Y87340D02*
X108369D01*
X105325Y87380D02*
X108329D01*
X105560Y87540D02*
X105877D01*
X105449Y87500D02*
X108242D01*
X106060Y87540D02*
X106377D01*
X106560D02*
X106877D01*
X107060D02*
X107377D01*
X107560D02*
X107877D01*
X108060D02*
X108231D01*
X106144Y87580D02*
X106292D01*
X106193Y87620D02*
X106243D01*
X106644Y87580D02*
X106792D01*
X106693Y87620D02*
X106743D01*
X107144Y87580D02*
X107292D01*
X107644D02*
X107792D01*
X107193Y87620D02*
X107243D01*
X107693D02*
X107743D01*
X108041Y88585D02*
X108379D01*
X101908Y88880D02*
X102257D01*
X101908Y88860D02*
X102277D01*
X103609D02*
X103658D01*
X103569Y88900D02*
X103658D01*
X103529Y88940D02*
X103658D01*
X103489Y88980D02*
X103658D01*
X103449Y89020D02*
X103658D01*
X104158Y88860D02*
X104228D01*
X104158Y88900D02*
X104228D01*
X104158Y88940D02*
X104228D01*
X104158Y88980D02*
X104228D01*
X103449Y89021D02*
Y89249D01*
Y89060D02*
X103658D01*
X103449Y89100D02*
X103658D01*
X103449Y89180D02*
X103558D01*
X103449Y89220D02*
X103517D01*
X103449Y89140D02*
X103655D01*
X103468Y89269D02*
X103548Y89189D01*
X104158Y88843D02*
Y89140D01*
X104228Y88850D02*
Y89155D01*
X104158Y89020D02*
X104228D01*
X104158Y89060D02*
X104228D01*
X104158Y89100D02*
X104228D01*
X104171Y89140D02*
X104228D01*
X107719Y89215D02*
X107753D01*
X107719Y89300D02*
X107845D01*
X107719Y89340D02*
X107843D01*
X107719Y89220D02*
X107873D01*
X107719Y89260D02*
X107855D01*
X107773Y89215D02*
X107876D01*
X107719Y89380D02*
X107843D01*
X107719Y89420D02*
X107843D01*
X107719Y89460D02*
X107843D01*
X107719Y89500D02*
X107843D01*
X107719Y89540D02*
X107843D01*
X107719Y89580D02*
X107843D01*
X107719Y89620D02*
X107843D01*
X107719Y89660D02*
X107843D01*
X107719Y89700D02*
X107843D01*
X107719Y89740D02*
X107843D01*
X107719Y89780D02*
X107843D01*
Y89330D02*
Y89921D01*
X107719Y89215D02*
Y90045D01*
Y89820D02*
X107843D01*
X107719Y89860D02*
X107843D01*
X107719Y89900D02*
X107843D01*
X107719Y89980D02*
X107784D01*
X107719Y89940D02*
X107824D01*
X107719Y90045D02*
X107843Y89921D01*
X108144Y87580D02*
X108228D01*
Y87580D02*
Y87636D01*
X108193Y87620D02*
X108228D01*
X108193Y88500D02*
X108243D01*
X108144Y88540D02*
X108292D01*
X108298Y87410D02*
X108399Y87310D01*
X108379Y88585D02*
X108423Y88629D01*
Y88660D02*
X108454D01*
X108423Y88700D02*
X108494D01*
X108423Y88740D02*
X108534D01*
X108423Y88780D02*
X108574D01*
X108423Y88820D02*
X108614D01*
X108423Y88629D02*
X108654Y88860D01*
X108423Y88940D02*
X108574D01*
X108423Y88860D02*
X108654D01*
X108423Y88900D02*
X108614D01*
X108423Y88629D02*
Y89015D01*
Y88980D02*
X108534D01*
X108499Y89015D02*
X108654Y88860D01*
X108423Y89015D02*
X108499D01*
X108568Y89445D02*
Y89957D01*
X108754Y87220D02*
X109093D01*
X108801Y87260D02*
X109093D01*
X108832Y87300D02*
X109093D01*
X108851Y87340D02*
X109093D01*
X108863Y87380D02*
X109093D01*
X108868Y87420D02*
X109093D01*
X108866Y87460D02*
X109093D01*
Y81875D02*
Y87527D01*
X108858Y87500D02*
X109093D01*
X108849Y87527D02*
X109093D01*
X109012Y89110D02*
X109093D01*
X108668Y89430D02*
Y89680D01*
X108568Y89460D02*
X108668D01*
X108568Y89500D02*
X108668D01*
X108568Y89540D02*
X108668D01*
X108568Y89580D02*
X108668D01*
X108568Y89620D02*
X108668D01*
X108568Y89660D02*
X108668D01*
X108942Y89180D02*
X109012Y89110D01*
X109093D02*
Y89180D01*
X108982Y89140D02*
X109093D01*
X108942Y89180D02*
X109093D01*
X108942D02*
X109093D01*
X108107Y90265D02*
X108167Y90205D01*
X108510D01*
X108107Y90265D02*
X108423D01*
X108152Y90220D02*
X108515D01*
X108112Y90260D02*
X108535D01*
X108423Y90300D02*
X108565D01*
X108568Y89900D02*
X108650D01*
X108423Y90340D02*
X108612D01*
X108423Y90380D02*
X108748D01*
X108423Y90420D02*
X108797D01*
X108423Y90460D02*
X108837D01*
X108423Y90500D02*
X108868D01*
X108338Y90895D02*
X108423D01*
X108338D02*
Y91450D01*
X108757Y90380D02*
X108868Y90491D01*
X108423Y90265D02*
Y90895D01*
Y90540D02*
X108868D01*
Y90491D02*
Y91990D01*
X108423Y90580D02*
X108868D01*
X108423Y90620D02*
X108868D01*
X108423Y90660D02*
X108868D01*
X108423Y90700D02*
X108868D01*
X108668Y89680D02*
X109093D01*
X108568Y89700D02*
X109093D01*
X108568Y89740D02*
X109093D01*
X108568Y89780D02*
X109093D01*
X108568Y89820D02*
X109093D01*
X108568Y89860D02*
X109093D01*
X108846Y89900D02*
X109093D01*
X108911Y89940D02*
X109093D01*
X108948Y89980D02*
X109093D01*
X108973Y90020D02*
X109093D01*
X108988Y90060D02*
X109093D01*
X108996Y90100D02*
X109093D01*
X108999Y90140D02*
X109093D01*
X108338Y90900D02*
X108868D01*
X108338Y90940D02*
X108868D01*
X108338Y90980D02*
X108868D01*
X108338Y91020D02*
X108868D01*
X108338Y91060D02*
X108868D01*
X108338Y91100D02*
X108868D01*
X108338Y91140D02*
X108868D01*
X109093Y89680D02*
Y90234D01*
X108423Y90740D02*
X108868D01*
X109039Y90180D02*
X109093D01*
X108998Y90139D02*
X109093Y90234D01*
X108423Y90780D02*
X108868D01*
X108423Y90820D02*
X108868D01*
X108423Y90860D02*
X108868D01*
X108338Y91180D02*
X108868D01*
X92105Y91330D02*
Y91446D01*
X92588Y91260D02*
X92658D01*
X92588Y91300D02*
X92658D01*
X92238Y91330D02*
X92588D01*
X92568Y91450D02*
X93028D01*
X92658Y91330D02*
X93158D01*
X93028Y91460D02*
X93268D01*
X93158Y91260D02*
X93268D01*
X93158Y91300D02*
X93268D01*
X93028Y91500D02*
X93268D01*
X93028Y91540D02*
X93268D01*
X93028Y91580D02*
X93268D01*
X93028Y91620D02*
X93268D01*
X93028Y91660D02*
X93268D01*
X92687Y91950D02*
X93028D01*
X92687D02*
X92757Y92020D01*
X93028D01*
X92757D02*
X93028D01*
Y91450D02*
Y91950D01*
Y91700D02*
X93268D01*
X93028Y91740D02*
X93268D01*
X93028Y91780D02*
X93268D01*
X93028Y92020D02*
Y92520D01*
Y91820D02*
X93268D01*
X93028Y91860D02*
X93268D01*
X93028Y91900D02*
X93268D01*
X94247Y91860D02*
X94538D01*
X94207Y91900D02*
X94538Y91569D01*
X93028Y91940D02*
X93268D01*
X92717Y91980D02*
X93268D01*
X94207Y91900D02*
X94458D01*
X94207D02*
X94458D01*
X94447Y91660D02*
X94538D01*
X94407Y91700D02*
X94538D01*
X94367Y91740D02*
X94538D01*
X94327Y91780D02*
X94538D01*
X94287Y91820D02*
X94538D01*
X94458Y91900D02*
X94538D01*
X94458Y91940D02*
X94538D01*
X93028Y92020D02*
X93268D01*
X93028Y92060D02*
X93268D01*
X93028Y92100D02*
X93268D01*
X93028Y92140D02*
X93268D01*
X93028Y92180D02*
X93268D01*
X93028Y92220D02*
X93268D01*
X94458Y91980D02*
X96209D01*
X94458Y91900D02*
Y92400D01*
Y92020D02*
X96249D01*
X94458Y92060D02*
X96289D01*
X94458Y92100D02*
X96329D01*
X94458Y92140D02*
X96369D01*
X94458Y92180D02*
X96409D01*
X92568Y92520D02*
Y92614D01*
Y92520D02*
X93028D01*
X92568Y92540D02*
X93268D01*
X92351Y92940D02*
X92541D01*
Y92930D02*
X93166D01*
X92568Y92580D02*
X93268D01*
X92105Y92860D02*
X93268D01*
X93028Y92260D02*
X93268D01*
X93028Y92300D02*
X93268D01*
X93028Y92340D02*
X93268D01*
X93028Y92380D02*
X93268D01*
X93028Y92420D02*
X93268D01*
X93028Y92460D02*
X93268D01*
X93028Y92500D02*
X93268D01*
X92351Y92930D02*
Y93180D01*
Y92980D02*
X92541D01*
X92351Y93020D02*
X92541D01*
X92351Y93060D02*
X92541D01*
X92351Y93100D02*
X92541D01*
X92351Y93140D02*
X92541D01*
X92351Y93180D02*
X92541D01*
X93166Y92940D02*
X93268D01*
X93166Y92980D02*
X93268D01*
X93166Y93020D02*
X93268D01*
X93166Y93060D02*
X93268D01*
X92391Y93220D02*
X92541D01*
X93166Y93100D02*
X93268D01*
X93166Y93140D02*
X93268D01*
X94117Y92400D02*
X94458D01*
Y92220D02*
X96449D01*
X94458Y92260D02*
X96489D01*
X94117Y92400D02*
X94187Y92470D01*
X94458D01*
X94137Y92420D02*
X96649D01*
X94177Y92460D02*
X96689D01*
X94458Y92300D02*
X96529D01*
X94458Y92340D02*
X96569D01*
X94458Y92380D02*
X96609D01*
X94458Y92500D02*
X94538D01*
X94458Y92540D02*
X94538D01*
X94458Y92580D02*
X94538D01*
X94458Y92620D02*
X94538D01*
X94105Y93231D02*
X94302Y93035D01*
X94237Y93100D02*
X94538D01*
X94197Y93140D02*
X94538D01*
X93166Y93180D02*
X93268D01*
X93166Y93220D02*
X93268D01*
X94157Y93180D02*
X94538D01*
X94117Y93220D02*
X94538D01*
X94458Y92660D02*
X94538D01*
X94458Y92700D02*
X94538D01*
X94345Y92970D02*
X94458D01*
X94340Y92980D02*
X94538D01*
X94315Y93020D02*
X94538D01*
X94277Y93060D02*
X94538D01*
Y91569D02*
Y91960D01*
X94487Y91620D02*
X94538D01*
Y91960D02*
X96189D01*
X97058Y92150D02*
X97358D01*
X97058D02*
X97128Y92220D01*
X97358Y92140D02*
X97458D01*
X97128Y92220D02*
X97358D01*
X97628Y92070D02*
X97712Y91986D01*
X97721Y91980D02*
X97835D01*
X97358Y92230D02*
X97428D01*
X97677Y92020D02*
X97967D01*
X96189Y91960D02*
X96778Y92549D01*
X94538Y92500D02*
X96418D01*
X94458Y92470D02*
Y92970D01*
X94538Y92500D02*
X96418D01*
X96729D01*
X98098Y92240D02*
Y92278D01*
X97684Y92260D02*
X97872D01*
X97747Y92300D02*
X97809D01*
X98064Y92260D02*
X98098D01*
X99362Y91755D02*
X99408Y91710D01*
X99788D01*
X99377Y91740D02*
X99781D01*
X99362Y91755D02*
X99498Y91890D01*
X98101Y91980D02*
X98183D01*
X99388Y91780D02*
X99778D01*
X99427Y91820D02*
X99781D01*
X99467Y91860D02*
X99791D01*
X99507Y91900D02*
X99809D01*
X99536Y91940D02*
X99813D01*
X99554Y91980D02*
X99813D01*
X97969Y92020D02*
X98219D01*
X97638Y92060D02*
X98259D01*
X97591Y92100D02*
X98299D01*
X97459Y92140D02*
X98339D01*
X97087Y92180D02*
X98379D01*
X97128Y92220D02*
X98419D01*
X98204Y92005D02*
X98439Y92240D01*
X99813Y91908D02*
Y92260D01*
X98098Y92240D02*
X98439D01*
X99568Y92060D02*
Y92370D01*
X99618D01*
Y92870D01*
X96418Y92500D02*
Y92670D01*
Y92540D02*
X96769D01*
X96418Y92580D02*
X96778D01*
X94458Y92740D02*
X94538D01*
X94458Y92780D02*
X94538D01*
X96418Y92620D02*
X96778D01*
X94458Y92820D02*
X94538D01*
X96778Y92549D02*
Y92670D01*
X96418D02*
X96778D01*
X96418Y92660D02*
X96778D01*
X96918Y92720D02*
X96988D01*
X96918Y92740D02*
X96988D01*
X96918Y92780D02*
X96988D01*
X96918Y92820D02*
X96988D01*
X94458Y92860D02*
X94538D01*
X96918D02*
X96988D01*
X94458Y92900D02*
X94538D01*
X94458Y92940D02*
X94538D01*
X96918Y92900D02*
X96988D01*
X96918Y92720D02*
Y93220D01*
Y92940D02*
X96988D01*
X96918Y92980D02*
X96988D01*
X96918Y93020D02*
X96988D01*
X96918Y93060D02*
X96988D01*
X96918Y93100D02*
X96988D01*
X96918Y93140D02*
X96988D01*
X97721Y92980D02*
X97835D01*
X97488Y93020D02*
X97588D01*
X98098D01*
X97488Y93060D02*
X98389D01*
X99098Y92870D02*
Y92940D01*
Y92870D02*
X99618D01*
X99098Y92940D02*
X99618D01*
X98098Y92982D02*
Y93020D01*
X98429D01*
X99098Y92940D02*
X99618D01*
X98098Y93020D02*
X98429D01*
X97488Y92998D02*
Y93220D01*
Y93100D02*
X98349D01*
X97488Y93140D02*
X98309D01*
X96918Y93180D02*
X96988D01*
X96928Y93220D02*
X96988D01*
X97488Y93180D02*
X98269D01*
X97438Y93220D02*
X97488D01*
X98827Y93160D02*
X99038D01*
X98807Y93180D02*
X99038D01*
X97498Y93220D02*
X98229D01*
X98767D02*
X99038D01*
X99618Y93180D02*
X99784D01*
X92541Y92930D02*
Y93370D01*
X92351Y93180D02*
X92541Y93370D01*
X92431Y93260D02*
X92541D01*
X92471Y93300D02*
X92541D01*
X93166Y93260D02*
X93268D01*
X94105D02*
X94538D01*
X93166Y93300D02*
X93268D01*
X93166Y93340D02*
X93268D01*
X93166Y93380D02*
X93268D01*
X94105Y93300D02*
X94538D01*
X94105Y93340D02*
X94538D01*
X93166Y92930D02*
Y93520D01*
X94105Y93380D02*
X94538D01*
X93166Y93420D02*
X93268D01*
X93166Y93460D02*
X93268D01*
X93166Y93500D02*
X93268D01*
X93166Y93520D02*
X93268D01*
X94105Y93231D02*
Y93891D01*
X94538Y92500D02*
Y93380D01*
X94888D01*
X94538D02*
X94888D01*
Y93730D01*
X94105Y93420D02*
X94888D01*
X94105Y93460D02*
X94888D01*
X94105Y93500D02*
X94888D01*
X94105Y93540D02*
X94888D01*
X94105Y93580D02*
X94888D01*
X94105Y93620D02*
X94888D01*
X94105Y93660D02*
X94888D01*
X94105Y93700D02*
X94888D01*
X94105Y93740D02*
X96054D01*
X94888Y93730D02*
X95178D01*
X95468Y93380D02*
Y93730D01*
X95488Y93380D02*
Y93730D01*
X95178D02*
X95468D01*
X94888Y93800D02*
X95468D01*
X95488Y93730D02*
X95778D01*
X94105Y93780D02*
X96094D01*
X94888Y93800D02*
Y94300D01*
X94105Y93820D02*
X94888D01*
X94105Y93860D02*
X94888D01*
X94105Y93900D02*
X94888D01*
X94099Y93940D02*
X94888D01*
X94083Y93980D02*
X94888D01*
X94055Y94020D02*
X94888D01*
X95468Y93800D02*
Y94300D01*
X95488Y93800D02*
X96068D01*
X95488D02*
Y94300D01*
X93807Y94241D02*
X93977Y94071D01*
X93948Y94100D02*
X94888D01*
X93908Y94140D02*
X94888D01*
X93859Y94420D02*
X93964D01*
X93725Y94286D02*
X93884Y94445D01*
X94152Y94420D02*
X94608D01*
X94003Y94060D02*
X94888D01*
X94264Y94460D02*
X94608D01*
X94328Y94500D02*
X94608D01*
X94374Y94540D02*
X94608D01*
X94410Y94580D02*
X94608D01*
X94439Y94620D02*
X94608D01*
X94461Y94660D02*
X94608D01*
X94479Y94700D02*
X94608D01*
X94492Y94740D02*
X94608D01*
X94461Y95060D02*
X94608D01*
X94442Y95095D02*
X94608D01*
X94501Y94780D02*
X94608D01*
Y94410D02*
Y95095D01*
X94506Y94820D02*
X94608D01*
X94508Y94860D02*
X94608D01*
X94506Y94900D02*
X94608D01*
X94501Y94940D02*
X94608D01*
X94492Y94980D02*
X94608D01*
X94479Y95020D02*
X94608D01*
X93868Y94180D02*
X94888D01*
X93828Y94220D02*
X94888D01*
X93784Y94260D02*
X94888D01*
X93739Y94300D02*
X94888D01*
X94608Y94410D02*
X95508D01*
X93779Y94340D02*
X96428D01*
X93819Y94380D02*
X96694D01*
X94888Y94300D02*
X95468D01*
X94888D02*
X95468D01*
X95488D02*
X96068D01*
X95488D02*
X96068D01*
X95508Y94420D02*
X96734D01*
X95508Y94460D02*
X96774D01*
X95508Y94500D02*
X96814D01*
X95508Y94540D02*
X96854D01*
X95508Y94580D02*
X96919D01*
X95508Y94620D02*
X97118D01*
X95508Y94660D02*
X97118D01*
X95508Y94700D02*
X97118D01*
X95508Y94740D02*
X97118D01*
X95508Y94780D02*
X97118D01*
X95508Y94820D02*
X97118D01*
X95508Y94860D02*
X97118D01*
X95508Y94900D02*
X97118D01*
X95508Y94940D02*
X97118D01*
X95508Y94980D02*
X97118D01*
X96418Y92670D02*
Y93250D01*
Y92670D02*
Y93250D01*
Y93380D01*
X96302D02*
X96418D01*
X96302D02*
X96418D01*
X96342Y93420D02*
X96428D01*
X96382Y93460D02*
X96428D01*
X96988Y92720D02*
Y93250D01*
X96928Y93260D02*
X96998D01*
X97498Y93220D02*
Y93320D01*
X96928Y93300D02*
X96998D01*
X96928Y93340D02*
X96998D01*
X96928Y93380D02*
X96998D01*
X96928Y93420D02*
X96998D01*
X96428Y93250D02*
Y93506D01*
X96928Y93460D02*
X96998D01*
X96302Y93380D02*
X96428Y93506D01*
X95778Y93730D02*
X96044D01*
X96428Y94114D01*
X96928Y93500D02*
X96998D01*
X96928Y93540D02*
X96998D01*
X96928Y93220D02*
Y93760D01*
Y93580D02*
X96998D01*
Y93250D02*
Y93760D01*
X96928Y93620D02*
X96998D01*
X96928Y93660D02*
X96998D01*
X96928Y93700D02*
X96998D01*
X97498D02*
Y93760D01*
Y93300D02*
X98149D01*
X97498Y93260D02*
X98189D01*
X98129Y93320D02*
X98429Y93020D01*
X97498Y93320D02*
X98129D01*
X98687Y93300D02*
X99038D01*
X98647Y93340D02*
X99038D01*
X98607Y93380D02*
X99038D01*
Y93160D02*
Y93440D01*
X99618Y92940D02*
Y93346D01*
X98727Y93260D02*
X99038D01*
X99618Y93300D02*
X99664D01*
X99618Y93220D02*
X99744D01*
X99618Y93260D02*
X99704D01*
X98343Y93644D02*
X98827Y93160D01*
X97498Y93700D02*
X98208D01*
X97498D02*
X98208D01*
X98325Y93660D02*
X99304D01*
X98208Y93700D02*
X99264D01*
X98567Y93420D02*
X99038D01*
X98527Y93460D02*
X99504D01*
X99038Y93440D02*
X99524D01*
X99109Y93855D02*
X99524Y93440D01*
X98407Y93580D02*
X99384D01*
X98367Y93620D02*
X99344D01*
X98487Y93500D02*
X99464D01*
X98447Y93540D02*
X99424D01*
X96068Y93820D02*
X96134D01*
X96068Y93860D02*
X96174D01*
X96068Y93900D02*
X96214D01*
X96068Y93940D02*
X96254D01*
X96068Y93980D02*
X96294D01*
X96068Y94020D02*
X96334D01*
X96928Y93760D02*
Y93800D01*
Y93740D02*
X96998D01*
X96928Y93760D02*
Y93800D01*
X96998Y93760D02*
Y93800D01*
X96928D02*
Y94006D01*
Y93780D02*
X96998D01*
Y93760D02*
Y93800D01*
X96068Y94060D02*
X96374D01*
X96068Y94100D02*
X96414D01*
X95508Y94410D02*
Y95095D01*
X96068Y94140D02*
X96428D01*
X96068Y94180D02*
X96428D01*
X96068Y93800D02*
Y94300D01*
X96428Y94114D02*
Y94340D01*
X96068Y94220D02*
X96428D01*
X96068Y94260D02*
X96428D01*
X96068Y94300D02*
X96428D01*
Y94340D02*
X96654D01*
X96428D02*
X96654D01*
X96846Y94532D01*
X97498Y93760D02*
Y93800D01*
Y93740D02*
X99224D01*
X97498Y93780D02*
X99184D01*
X96928Y93820D02*
X96998D01*
X96928Y93860D02*
X96998D01*
X96928Y93900D02*
X96998D01*
X96928Y93940D02*
X96998D01*
X97498Y93760D02*
Y93800D01*
Y93820D02*
X99144D01*
X97498Y93860D02*
X97722D01*
X97498Y93900D02*
X97636D01*
X97768Y93855D02*
X99109D01*
X96928Y93980D02*
X96998D01*
X96942Y94020D02*
X96998D01*
X95508Y95020D02*
X97118D01*
X95508Y95060D02*
X97118D01*
X95508Y95095D02*
X97118D01*
X97498Y93800D02*
Y94036D01*
X96998Y93800D02*
Y94076D01*
X97498Y93940D02*
X97594D01*
X97498Y94036D02*
X97616Y93918D01*
X96928Y94006D02*
X96998Y94076D01*
Y94595D02*
X97118D01*
X97498Y93980D02*
X97554D01*
X97118Y94595D02*
Y95095D01*
X99565Y92020D02*
X99813D01*
X99568Y92060D02*
X99813D01*
X99568Y92100D02*
X99813D01*
X99568Y92140D02*
X99813D01*
X99568Y92180D02*
X99813D01*
X99568Y92220D02*
X99813D01*
X99568Y92260D02*
X99813D01*
X100619Y91300D02*
X100657D01*
X100539Y91220D02*
X100737D01*
X100579Y91260D02*
X100697D01*
X104659Y92220D02*
X104915D01*
X104619Y92260D02*
X104913D01*
X104739Y92140D02*
X104935D01*
X104699Y92180D02*
X104922D01*
X99568Y92300D02*
X99813D01*
X99568Y92340D02*
X99813D01*
X99618Y92380D02*
X99813D01*
X99618Y92420D02*
X99813D01*
X99618Y92460D02*
X99813D01*
X99618Y92500D02*
X99813D01*
X99618Y92540D02*
X99813D01*
Y92260D02*
Y93151D01*
X104579Y92300D02*
X104915D01*
X101543Y92475D02*
X102289D01*
X101543Y92500D02*
X102314D01*
X99618Y92580D02*
X99813D01*
X102289Y92475D02*
X102343Y92529D01*
X101543Y92540D02*
X102343D01*
X105099Y91780D02*
X105158D01*
X105059Y91820D02*
X105196D01*
X105019Y91860D02*
X105260D01*
X104899Y91980D02*
X105057D01*
X104859Y92020D02*
X105010D01*
X104979Y91900D02*
X107653D01*
X104939Y91940D02*
X105129D01*
X105558Y91780D02*
X107653D01*
X105521Y91820D02*
X107653D01*
X105456Y91860D02*
X107653D01*
X105387Y91940D02*
X107653D01*
X105460Y91980D02*
X107653D01*
X105506Y92020D02*
X107653D01*
X104539Y92340D02*
X104922D01*
X104779Y92100D02*
X104952D01*
X104499Y92380D02*
X104935D01*
X104459Y92420D02*
X104952D01*
X104419Y92460D02*
X104977D01*
X104379Y92500D02*
X105010D01*
X104339Y92540D02*
X105057D01*
X104819Y92060D02*
X104977D01*
X105539D02*
X107653D01*
X105564Y92100D02*
X107653D01*
X105564Y92420D02*
X107653D01*
X105539Y92460D02*
X107653D01*
X105506Y92500D02*
X107653D01*
X105460Y92540D02*
X107653D01*
X99618Y92620D02*
X99813D01*
X99618Y92660D02*
X99813D01*
X99618Y92700D02*
X99813D01*
X99618Y92740D02*
X99813D01*
X99618Y92780D02*
X99813D01*
X99618Y92820D02*
X99813D01*
X99618Y92860D02*
X99813D01*
X101543Y92580D02*
X102343D01*
X101543Y92620D02*
X102343D01*
X101543Y92660D02*
X102343D01*
X101543Y92700D02*
X102343D01*
X101543Y92740D02*
X102343D01*
X101543Y92780D02*
X102343D01*
X101543Y92820D02*
X102343D01*
X99098Y92900D02*
X99813D01*
X99618Y92940D02*
X99813D01*
X99618Y92980D02*
X99813D01*
X99618Y93020D02*
X99813D01*
X99618Y93060D02*
X99813D01*
X99618Y93100D02*
X99813D01*
X99618Y93140D02*
X99813D01*
X101543Y92860D02*
X102343D01*
X101543Y92900D02*
X102343D01*
X101543Y92940D02*
X102343D01*
X101543Y92980D02*
X102343D01*
X101543Y93020D02*
X102343D01*
X99618Y93346D02*
X99813Y93151D01*
X101543Y93060D02*
X102343D01*
X101543Y93100D02*
X102343D01*
X103979Y92900D02*
X107424D01*
X104059Y92820D02*
X107504D01*
X104019Y92860D02*
X107464D01*
X103859Y93020D02*
X107318D01*
X103819Y93060D02*
X107302D01*
X103939Y92940D02*
X107384D01*
X103899Y92980D02*
X107345D01*
X104299Y92580D02*
X105129D01*
X105387D02*
X107653D01*
X104259Y92620D02*
X107653D01*
X104139Y92740D02*
X107584D01*
X104099Y92780D02*
X107544D01*
X104219Y92660D02*
X107653D01*
X104179Y92700D02*
X107624D01*
X101543Y93140D02*
X102343D01*
X101543Y93180D02*
X102343D01*
X101543Y93220D02*
X102343D01*
X101543Y93260D02*
X102343D01*
X101543Y93300D02*
X102343D01*
X101543Y93340D02*
X102343D01*
X101543Y93380D02*
X102343D01*
X103779Y93100D02*
X107294D01*
X103739Y93140D02*
X107293D01*
X103699Y93180D02*
X107293D01*
X103659Y93220D02*
X107293D01*
X103619Y93260D02*
X107293D01*
X103579Y93300D02*
X107293D01*
X103539Y93340D02*
X107293D01*
X103499Y93380D02*
X107293D01*
X106769Y91551D02*
X106989Y91330D01*
X106939Y91380D02*
X107268D01*
X106899Y91420D02*
X107268D01*
X106859Y91460D02*
X107594D01*
X106819Y91500D02*
X107602D01*
X106779Y91540D02*
X107618D01*
X106729Y91580D02*
X107645D01*
X106989Y91330D02*
X107268D01*
X106979Y91340D02*
X107268D01*
Y91330D02*
Y91450D01*
X107593D01*
X108077D02*
X108338D01*
X105606Y91660D02*
X107653D01*
X105598Y91700D02*
X107653D01*
X105583Y91740D02*
X107653D01*
X105582Y92140D02*
X107653D01*
X105594Y92180D02*
X107653D01*
X105601Y92220D02*
X107653D01*
X105603Y92260D02*
X107653D01*
X108083Y91500D02*
Y92760D01*
X105629Y91601D02*
X106648D01*
X107653Y91589D02*
Y92671D01*
X108079Y91460D02*
X108868D01*
X108083Y91500D02*
X108868D01*
X108083Y91540D02*
X108868D01*
X108083Y91580D02*
X108868D01*
X108083Y91620D02*
X108868D01*
X108083Y91660D02*
X108868D01*
X108083Y91700D02*
X108868D01*
X108338Y91220D02*
X108868D01*
X108338Y91260D02*
X108868D01*
X108338Y91300D02*
X108868D01*
X108338Y91340D02*
X108868D01*
X108338Y91380D02*
X108868D01*
X108338Y91420D02*
X108868D01*
X108083Y91740D02*
X108868D01*
X108083Y91780D02*
X108868D01*
X108083Y91820D02*
X108868D01*
X108083Y91860D02*
X108868D01*
X108083Y91900D02*
X108868D01*
X108083Y92020D02*
X108838D01*
X108083Y91940D02*
X108868D01*
X108083Y91980D02*
X108868D01*
X108083Y92100D02*
X108758D01*
X108083Y92140D02*
X108718D01*
X108083Y92060D02*
X108798D01*
X108090Y92768D02*
X108868Y91990D01*
X108083Y92220D02*
X108638D01*
X108083Y92260D02*
X108598D01*
X108083Y92180D02*
X108678D01*
X108562Y92778D02*
X109093Y92247D01*
X105601Y92300D02*
X107653D01*
X108083D02*
X108558D01*
X105594Y92340D02*
X107653D01*
X105582Y92380D02*
X107653D01*
X108083Y92420D02*
X108438D01*
X108083Y92340D02*
X108518D01*
X108083Y92380D02*
X108478D01*
X108083Y92540D02*
X108318D01*
X108083Y92460D02*
X108398D01*
X108083Y92500D02*
X108358D01*
X108083Y92660D02*
X108198D01*
X108083Y92700D02*
X108158D01*
X108083Y92580D02*
X108278D01*
X108083Y92620D02*
X108238D01*
X108083Y92740D02*
X108118D01*
X107356Y92968D02*
X107653Y92671D01*
X108269Y93071D02*
Y93259D01*
Y93071D02*
X108297Y93042D01*
X108269Y93220D02*
X108303D01*
X108269Y93260D02*
X108317D01*
X108269Y93259D02*
X108386Y93377D01*
X108800Y92540D02*
X109093D01*
X108760Y92580D02*
X109093D01*
X108720Y92620D02*
X109093D01*
X108680Y92660D02*
X109093D01*
X108640Y92700D02*
X109093D01*
X108600Y92740D02*
X109093D01*
X108721Y92780D02*
X109093D01*
X109040Y92300D02*
X109093D01*
X109000Y92340D02*
X109093D01*
X108960Y92380D02*
X109093D01*
X108920Y92420D02*
X109093D01*
X108880Y92460D02*
X109093D01*
X108840Y92500D02*
X109093D01*
X108818Y92820D02*
X109093D01*
X108872Y92860D02*
X109093D01*
X108910Y92900D02*
X109093D01*
X108938Y92940D02*
X109093D01*
X108959Y92980D02*
X109093D01*
X108959Y93260D02*
X109093D01*
X108910Y93340D02*
X109093D01*
X108893Y93380D02*
X109093D01*
Y92247D02*
Y92860D01*
X108973Y93020D02*
X109093D01*
X108983Y93060D02*
X109093D01*
X108988Y93100D02*
X109093D01*
X108988Y93140D02*
X109093D01*
X108983Y93180D02*
X109093D01*
X108973Y93220D02*
X109093D01*
X108938Y93300D02*
X109093D01*
X101543Y93420D02*
X102343D01*
X101543Y93460D02*
X102343D01*
X101543Y93500D02*
X102343D01*
X101543Y93540D02*
X102343D01*
X101543Y93580D02*
X102343D01*
X101543Y93620D02*
X102343D01*
X101543Y93660D02*
X102343D01*
X101543Y93700D02*
X102343D01*
X101543Y93740D02*
X102343D01*
X103189Y93690D02*
X103361Y93861D01*
X101543Y93780D02*
X102343D01*
X101543Y93820D02*
X102343D01*
X101543Y93860D02*
X102343D01*
X101543Y93900D02*
X102343D01*
X101543Y93940D02*
X102343D01*
X101543Y93980D02*
X102343D01*
X101543Y94020D02*
X102349D01*
X101543Y94060D02*
X102363D01*
X101543Y94100D02*
X102387D01*
X101543Y94140D02*
X102424D01*
X101543Y94180D02*
X102464D01*
X101543Y92475D02*
Y94401D01*
X102343Y92529D02*
Y93970D01*
X101543Y94220D02*
X102504D01*
X102406Y94122D02*
X102598Y94314D01*
X103189Y93690D02*
X105135Y91744D01*
X103299Y93580D02*
X107293D01*
X103259Y93620D02*
X107293D01*
X103219Y93660D02*
X107293D01*
X103199Y93700D02*
X107293D01*
X103239Y93740D02*
X107293D01*
X103279Y93780D02*
X107293D01*
X103459Y93420D02*
X107293D01*
X103419Y93460D02*
X107293D01*
X103379Y93500D02*
X107293D01*
X103611Y93860D02*
X106975D01*
X103696Y93900D02*
X105157D01*
X103339Y93540D02*
X107293D01*
X103319Y93820D02*
X107293D01*
X103817Y94020D02*
X104984D01*
X103749Y93940D02*
X105071D01*
X103787Y93980D02*
X105020D01*
X103856Y94100D02*
X104939D01*
X103839Y94060D02*
X104958D01*
X103868Y94140D02*
X104925D01*
X105496Y93980D02*
X106799D01*
X105359Y93900D02*
X106890D01*
X105445Y93940D02*
X106837D01*
X105558Y94060D02*
X106747D01*
X103875Y94180D02*
X104917D01*
X105532Y94020D02*
X106769D01*
X105578Y94100D02*
X106730D01*
X101543Y94260D02*
X102544D01*
X101543Y94300D02*
X102584D01*
X101543Y94340D02*
X102598D01*
X101793Y94460D02*
X102344D01*
X101851Y94500D02*
X102285D01*
X101543Y94380D02*
X102598D01*
X101701Y94420D02*
X102435D01*
X101928Y94580D02*
X102208D01*
X102598Y94314D02*
Y94401D01*
X101894Y94540D02*
X102242D01*
X101976Y94660D02*
X102160D01*
X102004Y94740D02*
X102132D01*
X101955Y94620D02*
X102181D01*
X101992Y94700D02*
X102144D01*
X101999Y94980D02*
X102137D01*
X101985Y95020D02*
X102151D01*
X101966Y95060D02*
X102170D01*
X101946Y95095D02*
X102191D01*
X101946D02*
X102191D01*
X102013Y94780D02*
X102124D01*
X102017Y94820D02*
X102119D01*
X102018Y94860D02*
X102118D01*
X102015Y94900D02*
X102121D01*
X102009Y94940D02*
X102127D01*
X103013Y94780D02*
X103064D01*
X102997Y94713D02*
X103086Y94802D01*
X103017Y94820D02*
X103106D01*
X103018Y94860D02*
X103192D01*
X103878Y94220D02*
X104913D01*
X103877Y94260D02*
X104914D01*
X103872Y94300D02*
X104920D01*
X103862Y94340D02*
X104931D01*
X103848Y94380D02*
X104947D01*
X103841Y94395D02*
X104955D01*
X103015Y94900D02*
X103751D01*
X103009Y94940D02*
X103743D01*
X102985Y95020D02*
X103743D01*
X102966Y95060D02*
X103743D01*
X102946Y95095D02*
X103743D01*
X102946D02*
X103743D01*
X103238Y94865D02*
X103678D01*
X103743Y94950D02*
Y95095D01*
X103724Y94860D02*
X103772D01*
X102999Y94980D02*
X103743D01*
X107293Y93120D02*
Y93570D01*
X107723Y93820D02*
X107829D01*
X107293Y93570D02*
Y93892D01*
X105591Y94140D02*
X106719D01*
X105599Y94180D02*
X106711D01*
X107723Y93820D02*
X107829D01*
X107221Y93860D02*
X107293D01*
X107723Y93820D02*
Y93890D01*
Y93860D02*
X107869D01*
X107829Y93820D02*
X107899Y93890D01*
X107723D02*
X107899D01*
X108138Y94180D02*
X108189D01*
X105603Y94220D02*
X106708D01*
X105602Y94260D02*
X106709D01*
X105596Y94300D02*
X106714D01*
X108138Y94129D02*
X108288Y94279D01*
X108138Y94129D02*
Y94390D01*
Y94220D02*
X108229D01*
X108138Y94260D02*
X108269D01*
X108138Y94300D02*
X108288D01*
Y94279D02*
Y94970D01*
X108925Y93420D02*
X109093D01*
X108949Y93460D02*
X109093D01*
X108949Y93780D02*
X109093D01*
X108925Y93820D02*
X109093D01*
X108893Y93860D02*
X109093D01*
X108967Y93500D02*
X109093D01*
X108979Y93540D02*
X109093D01*
X108986Y93580D02*
X109093D01*
X108988Y93620D02*
X109093D01*
X108986Y93660D02*
X109093D01*
X108979Y93700D02*
X109093D01*
X108967Y93740D02*
X109093D01*
X108910Y93900D02*
X109093D01*
X108938Y93940D02*
X109093D01*
X108954Y94270D02*
X108988D01*
X108959Y93980D02*
X109093D01*
X108959Y94260D02*
X109093D01*
X108973Y94020D02*
X109093D01*
Y92860D02*
Y95095D01*
X108983Y94060D02*
X109093D01*
X108988Y94100D02*
X109093D01*
X108988Y94140D02*
X109093D01*
X108988Y94270D02*
Y94970D01*
X108983Y94180D02*
X109093D01*
X108973Y94220D02*
X109093D01*
X105585Y94340D02*
X106724D01*
X105569Y94380D02*
X106738D01*
X105561Y94395D02*
X106745D01*
X107671Y94540D02*
X108288D01*
X107632Y94580D02*
X108288D01*
X107592Y94620D02*
X108288D01*
X108138Y94340D02*
X108288D01*
X108138Y94380D02*
X108288D01*
X107723Y94390D02*
X108138D01*
X107722Y94420D02*
X108288D01*
X107715Y94460D02*
X108288D01*
X107698Y94500D02*
X108288D01*
X106690Y94825D02*
X106850D01*
X106724Y94860D02*
X106909D01*
X106753Y94950D02*
Y95095D01*
X107552Y94660D02*
X108288D01*
X107400Y94812D02*
X107660Y94552D01*
X107512Y94700D02*
X108288D01*
X107472Y94740D02*
X108288D01*
X106988Y94875D02*
X107248D01*
X107432Y94780D02*
X108288D01*
X108988Y94300D02*
X109093D01*
X108988Y94340D02*
X109093D01*
X108988Y94380D02*
X109093D01*
X108988Y94420D02*
X109093D01*
X108988Y94460D02*
X109093D01*
X108988Y94500D02*
X109093D01*
X108988Y94540D02*
X109093D01*
X108988Y94580D02*
X109093D01*
X108988Y94620D02*
X109093D01*
X108988Y94660D02*
X109093D01*
X108988Y94700D02*
X109093D01*
X108988Y94740D02*
X109093D01*
X107327Y94860D02*
X108288D01*
X106745Y94900D02*
X108288D01*
X106753Y94940D02*
X108288D01*
X106753Y94980D02*
X109093D01*
X106753Y95020D02*
X109093D01*
X106753Y95060D02*
X109093D01*
X106753Y95095D02*
X109093D01*
X107392Y94820D02*
X108288D01*
X108988Y94780D02*
X109093D01*
X108988Y94820D02*
X109093D01*
X108988Y94860D02*
X109093D01*
X108288Y94970D02*
X108988D01*
Y94900D02*
X109093D01*
X108988Y94940D02*
X109093D01*
D11*
X106578Y74130D02*
D03*
Y73530D02*
D03*
X106028Y74130D02*
D03*
Y73530D02*
D03*
X101618Y88750D02*
D03*
Y89350D02*
D03*
X89388Y82830D02*
D03*
Y82230D02*
D03*
X89378Y80220D02*
D03*
Y80820D02*
D03*
X102638Y88740D02*
D03*
Y89340D02*
D03*
D12*
X106578Y75080D02*
D03*
X106578Y74510D02*
D03*
X106028Y75080D02*
D03*
Y74510D02*
D03*
X102568Y76950D02*
D03*
X86693Y76495D02*
D03*
X86703Y74605D02*
D03*
X107683Y75165D02*
D03*
Y75630D02*
D03*
Y74235D02*
D03*
Y74595D02*
D03*
X107678Y76560D02*
D03*
X107683Y76200D02*
D03*
X86693Y77425D02*
D03*
Y77065D02*
D03*
X86713Y73685D02*
D03*
X86703Y74035D02*
D03*
X108293Y77105D02*
D03*
X107678Y77130D02*
D03*
X108283Y74015D02*
D03*
X107683Y73665D02*
D03*
X86093Y77435D02*
D03*
X86693Y77995D02*
D03*
X86113Y73695D02*
D03*
X86713Y73115D02*
D03*
X99190Y74258D02*
D03*
X87978Y74250D02*
D03*
Y74820D02*
D03*
X99190Y74828D02*
D03*
X80393Y73415D02*
D03*
X86113Y73125D02*
D03*
X113988Y75820D02*
D03*
X108293Y77675D02*
D03*
X86093Y78005D02*
D03*
X108283Y73445D02*
D03*
X102568Y76380D02*
D03*
X80393Y73985D02*
D03*
X113988Y75250D02*
D03*
X113928Y92040D02*
D03*
Y91470D02*
D03*
X110828Y88990D02*
D03*
Y89560D02*
D03*
X113608Y91100D02*
D03*
Y90530D02*
D03*
X110778Y81370D02*
D03*
Y81940D02*
D03*
X112848Y93310D02*
D03*
Y92740D02*
D03*
X113418Y91470D02*
D03*
Y92040D02*
D03*
X93548Y74690D02*
D03*
Y74120D02*
D03*
X92308Y95050D02*
D03*
Y94480D02*
D03*
X94168Y92150D02*
D03*
Y92720D02*
D03*
X90198Y90750D02*
D03*
Y91320D02*
D03*
X99328Y93190D02*
D03*
Y92620D02*
D03*
X85008Y81340D02*
D03*
Y80770D02*
D03*
X86398Y83740D02*
D03*
Y83170D02*
D03*
X95778Y94050D02*
D03*
Y93480D02*
D03*
X95178D02*
D03*
Y94050D02*
D03*
X90198Y91660D02*
D03*
X90198Y92230D02*
D03*
X108958Y89430D02*
D03*
Y88860D02*
D03*
X86938Y83740D02*
D03*
Y83170D02*
D03*
X107848Y93570D02*
D03*
Y94140D02*
D03*
X84848Y90360D02*
D03*
Y89790D02*
D03*
X102888Y93730D02*
D03*
Y94300D02*
D03*
X89388Y83780D02*
D03*
Y83210D02*
D03*
X98808Y92910D02*
D03*
Y92340D02*
D03*
X92738Y91700D02*
D03*
Y92270D02*
D03*
X84318Y89920D02*
D03*
Y90490D02*
D03*
X88808Y81700D02*
D03*
Y82270D02*
D03*
X89378Y81780D02*
D03*
Y81210D02*
D03*
X88808Y81340D02*
D03*
Y80770D02*
D03*
X90668Y91660D02*
D03*
Y92230D02*
D03*
X97068Y92470D02*
D03*
X97068Y91900D02*
D03*
D13*
X103053Y74412D02*
D03*
Y75180D02*
D03*
Y74924D02*
D03*
X105418Y75180D02*
D03*
X103053Y74668D02*
D03*
Y74156D02*
D03*
X105418Y74924D02*
D03*
Y74668D02*
D03*
Y74412D02*
D03*
X103053Y75436D02*
D03*
Y75692D02*
D03*
X105418Y75692D02*
D03*
Y75436D02*
D03*
D14*
X113268Y86670D02*
D03*
X112768Y86670D02*
D03*
X112268D02*
D03*
D15*
X111768D02*
D03*
D16*
X112338Y85620D02*
D03*
X111768D02*
D03*
X104178Y78230D02*
D03*
X104748D02*
D03*
X106528Y75750D02*
D03*
X105798Y76960D02*
D03*
X103048Y76770D02*
D03*
X103618Y76770D02*
D03*
X105228Y76960D02*
D03*
X105958Y75750D02*
D03*
X113478Y94050D02*
D03*
X114048D02*
D03*
X111668Y90150D02*
D03*
X112238D02*
D03*
X111668Y89630D02*
D03*
X112238D02*
D03*
X113198D02*
D03*
X112628D02*
D03*
X113578Y90150D02*
D03*
X114148D02*
D03*
X113198D02*
D03*
X112628D02*
D03*
X113578Y89630D02*
D03*
X114148D02*
D03*
X83898Y89080D02*
D03*
X83328D02*
D03*
X86728Y82490D02*
D03*
X86158D02*
D03*
X108088Y91160D02*
D03*
X107518D02*
D03*
X92338Y91040D02*
D03*
X92908D02*
D03*
X96678Y94050D02*
D03*
X97248D02*
D03*
X86728Y81950D02*
D03*
X86158D02*
D03*
X90218Y93970D02*
D03*
X89648D02*
D03*
X91418Y91040D02*
D03*
X91988D02*
D03*
X102018Y91250D02*
D03*
X102588D02*
D03*
X103908Y88980D02*
D03*
X104478D02*
D03*
X91928Y94350D02*
D03*
X91358D02*
D03*
X87278Y89960D02*
D03*
X86708D02*
D03*
X103918Y90180D02*
D03*
X104488D02*
D03*
X96678Y93510D02*
D03*
X97248D02*
D03*
X97238Y92960D02*
D03*
X96668D02*
D03*
X87598Y82160D02*
D03*
X88168D02*
D03*
X102018Y90050D02*
D03*
X102588D02*
D03*
X102018Y90690D02*
D03*
X102588D02*
D03*
X104488Y89580D02*
D03*
X103918D02*
D03*
D17*
X103980Y73742D02*
D03*
X103724D02*
D03*
X103467Y76106D02*
D03*
X103980D02*
D03*
X104236Y76106D02*
D03*
X105004Y73742D02*
D03*
X104748D02*
D03*
X104492D02*
D03*
X104236D02*
D03*
X103467Y73742D02*
D03*
X103724Y76106D02*
D03*
X104492D02*
D03*
X104748D02*
D03*
X105004D02*
D03*
D18*
X105418Y74156D02*
D03*
D19*
X104098Y76720D02*
D03*
X104728D02*
D03*
X104728Y77050D02*
D03*
X104098Y77050D02*
D03*
X91638Y95110D02*
D03*
Y94780D02*
D03*
D20*
X112358Y90630D02*
D03*
X113118D02*
D03*
X112738Y91430D02*
D03*
X110938Y91590D02*
D03*
X110938Y90830D02*
D03*
X111738Y91210D02*
D03*
X85658Y83300D02*
D03*
Y84060D02*
D03*
X84858Y83680D02*
D03*
X84878Y82430D02*
D03*
X85678Y82810D02*
D03*
Y82050D02*
D03*
X83038Y90360D02*
D03*
X83798D02*
D03*
X83418Y91160D02*
D03*
X85428Y90040D02*
D03*
X86188D02*
D03*
X85808Y90840D02*
D03*
D21*
X114028Y92520D02*
D03*
X113278D02*
D03*
X113658D02*
D03*
Y93520D02*
D03*
X113278D02*
D03*
X97588Y92630D02*
D03*
X97968Y92630D02*
D03*
Y91630D02*
D03*
X97588Y91630D02*
D03*
X98338D02*
D03*
D22*
X114028Y93520D02*
D03*
X98338Y92630D02*
D03*
D23*
X111548Y92210D02*
D03*
Y93630D02*
D03*
X89018Y91880D02*
D03*
X89018Y93300D02*
D03*
X95478Y92940D02*
D03*
Y91520D02*
D03*
D24*
X104238Y74926D02*
D03*
D25*
X88808Y89930D02*
D03*
X87863D02*
D03*
D26*
X87438Y88390D02*
D03*
X89008D02*
D03*
X86458D02*
D03*
X84888D02*
D03*
X87438Y85990D02*
D03*
X89008D02*
D03*
X86458D02*
D03*
X84888D02*
D03*
D27*
X91368Y90150D02*
D03*
X90553Y90150D02*
D03*
X92038Y93320D02*
D03*
X92853D02*
D03*
X91563Y93360D02*
D03*
X90748Y93360D02*
D03*
D28*
X86848Y90740D02*
D03*
X88388Y90740D02*
D03*
X84798Y92100D02*
D03*
X86338D02*
D03*
D29*
X87442Y81300D02*
D03*
X87186D02*
D03*
X86930D02*
D03*
X86674D02*
D03*
D30*
X86418D02*
D03*
D31*
X107438Y90580D02*
D03*
X107438Y88900D02*
D03*
X108088Y90580D02*
D03*
Y88900D02*
D03*
D32*
X108318Y89730D02*
D03*
D33*
X106468Y81367D02*
D03*
X105468D02*
D03*
X107968D02*
D03*
X101468D02*
D03*
X102468D02*
D03*
X103468Y81367D02*
D03*
X103968Y81367D02*
D03*
X105968Y81367D02*
D03*
X106968Y81367D02*
D03*
X107468D02*
D03*
X108468Y81367D02*
D03*
X108968Y81367D02*
D03*
X101468Y88060D02*
D03*
X101968Y88060D02*
D03*
X102468Y88060D02*
D03*
X102968D02*
D03*
X103468D02*
D03*
X103968D02*
D03*
X104468D02*
D03*
X104968D02*
D03*
X105468Y88060D02*
D03*
X105968Y88060D02*
D03*
X106468D02*
D03*
X106968D02*
D03*
X107468D02*
D03*
X107968Y88060D02*
D03*
X108468Y88060D02*
D03*
X100468Y81367D02*
D03*
X100968Y88060D02*
D03*
X100968Y81367D02*
D03*
X99968Y81367D02*
D03*
X100468Y88060D02*
D03*
X99968D02*
D03*
X101968Y81367D02*
D03*
X104468D02*
D03*
X102968D02*
D03*
X104968D02*
D03*
D34*
X105588Y85110D02*
D03*
D35*
X108968Y88060D02*
D03*
D36*
X91148Y91640D02*
D03*
Y91837D02*
D03*
Y92034D02*
D03*
Y92231D02*
D03*
Y92428D02*
D03*
X92288Y92424D02*
D03*
Y92227D02*
D03*
Y92030D02*
D03*
Y91636D02*
D03*
Y91833D02*
D03*
D37*
X91521Y92490D02*
D03*
X91718D02*
D03*
X91915D02*
D03*
Y91590D02*
D03*
X91718Y91590D02*
D03*
D38*
X91521D02*
D03*
D39*
X88128Y83360D02*
D03*
D40*
X87388Y83850D02*
D03*
D41*
Y83653D02*
D03*
Y83456D02*
D03*
X87388Y83259D02*
D03*
X87388Y83062D02*
D03*
X87388Y82865D02*
D03*
X88883Y82865D02*
D03*
X88883Y83062D02*
D03*
Y83259D02*
D03*
Y83456D02*
D03*
Y83653D02*
D03*
Y83850D02*
D03*
D42*
X87637Y82610D02*
D03*
X87834Y82610D02*
D03*
X88031D02*
D03*
X88228D02*
D03*
X88425D02*
D03*
X88622D02*
D03*
X88633Y84090D02*
D03*
X88436D02*
D03*
X88239D02*
D03*
X88042D02*
D03*
X87845D02*
D03*
X87648D02*
D03*
D43*
X106978Y73430D02*
Y75135D01*
X105418Y73560D02*
Y74156D01*
X106798Y73250D02*
X106978Y73430D01*
X105728Y73250D02*
X106798D01*
X105418Y73560D02*
X105728Y73250D01*
X105748Y73900D02*
Y74240D01*
X106768Y73830D02*
X106848Y73910D01*
Y75177D01*
X105818Y73830D02*
X106768D01*
X105748Y73900D02*
X105818Y73830D01*
X105758Y73530D02*
X106578D01*
X105638Y73650D02*
X105758Y73530D01*
X106578Y74130D02*
Y74510D01*
X106028Y74130D02*
Y74510D01*
X105638Y74672D02*
X105766Y74800D01*
X106298D01*
X105408Y74928D02*
X105736Y74928D01*
X105888Y75080D01*
X106028D01*
X106278Y75330D01*
X105408Y74672D02*
X105638D01*
X108293Y77675D02*
X108673D01*
X104988Y76720D02*
X105228Y76960D01*
X104728Y76720D02*
X104988D01*
X104468Y76460D02*
X104728Y76720D01*
X104278Y76460D02*
X104468D01*
X104226Y76408D02*
X104278Y76460D01*
X104226Y76111D02*
Y76408D01*
X103618Y76770D02*
X103668Y76720D01*
X104098D01*
X103970Y76592D02*
X104098Y76720D01*
X103970Y76111D02*
Y76592D01*
X103457Y76111D02*
Y76361D01*
X105408Y74416D02*
X105572D01*
X105748Y74240D01*
X106278Y75330D02*
X106568D01*
X103043Y75441D02*
Y75692D01*
X103135Y76683D02*
X103457Y76361D01*
X106568Y75330D02*
X106748Y75510D01*
Y77500D01*
X106088Y78160D02*
X106748Y77500D01*
X106672Y75174D02*
X106878Y75380D01*
X106588Y78160D02*
X106878Y77870D01*
X106298Y74800D02*
X106578Y75080D01*
X106672Y75174D01*
X106878Y75380D02*
Y77870D01*
X106848Y75177D02*
X107008Y75337D01*
Y78080D02*
X107088Y78160D01*
X107008Y75337D02*
Y78080D01*
X106978Y75135D02*
X107138Y75295D01*
Y77710D01*
X107588Y78160D01*
X105982Y78554D02*
X107865D01*
X107938Y78480D01*
Y77840D02*
Y78480D01*
X107348Y77250D02*
X107938Y77840D01*
X107348Y75910D02*
Y77250D01*
Y75910D02*
X107628Y75630D01*
X105588Y78160D02*
X105982Y78554D01*
X99974Y74254D02*
X100615Y73613D01*
X103688Y75480D02*
X103714Y75505D01*
Y75395D02*
Y75480D01*
Y75505D02*
Y76111D01*
X106008Y80670D02*
X106438D01*
X106958Y80150D01*
X108468Y81367D02*
Y82150D01*
X108528Y82210D01*
X88238Y92460D02*
X90440D01*
X89978Y90520D02*
X90748D01*
X90938Y90710D01*
X90208Y81120D02*
Y83710D01*
X90128Y83790D02*
X90208Y83710D01*
X89718Y84167D02*
X90006Y83879D01*
Y83732D02*
Y83879D01*
X89888Y84170D02*
X90128Y83930D01*
Y83790D02*
Y83930D01*
X89888Y84170D02*
Y85530D01*
X89538Y85880D02*
X89888Y85530D01*
X89718Y84167D02*
Y84410D01*
X90006Y83732D02*
X90078Y83660D01*
Y80950D02*
Y83660D01*
X89408Y84720D02*
X89718Y84410D01*
X89596Y84129D02*
X89598Y84127D01*
X89596Y84129D02*
Y84352D01*
X89598Y84120D02*
Y84127D01*
X89358Y84590D02*
X89596Y84352D01*
X89478Y84000D02*
X89598Y84120D01*
X90208Y81120D02*
X90608Y80720D01*
X89948Y80900D02*
Y83610D01*
X89768Y83790D02*
X89948Y83610D01*
X90078Y80950D02*
X90528Y80500D01*
X89948Y80900D02*
X90488Y80360D01*
X89648Y80490D02*
Y81970D01*
X89778Y80890D02*
Y83450D01*
X89728Y83500D02*
X89778Y83450D01*
X101608Y91690D02*
X102618D01*
X103908Y90400D01*
X97978Y80920D02*
X99678Y82620D01*
X102708D01*
X102658Y82498D02*
X103026Y82130D01*
X99754Y82498D02*
X102658D01*
X103026Y82130D02*
X106808D01*
X98576Y81321D02*
X99754Y82498D01*
X102708Y82620D02*
X103068Y82260D01*
X99798Y82370D02*
X102546D01*
X102908Y82008D01*
X99848Y82240D02*
X102464D01*
X102818Y81886D01*
X101998Y82110D02*
X102468Y81640D01*
X99898Y82110D02*
X101998D01*
X99098Y81670D02*
X99798Y82370D01*
X99228Y81620D02*
X99848Y82240D01*
X99448Y81660D02*
X99898Y82110D01*
X97928Y81050D02*
X99628Y82750D01*
X97867Y81180D02*
X99567Y82880D01*
X101468Y81367D02*
Y81640D01*
X99638Y81660D02*
X99836Y81858D01*
X99638Y80090D02*
Y81660D01*
X99448Y80210D02*
Y81660D01*
X102468Y81110D02*
Y81640D01*
X99228Y80320D02*
Y81620D01*
X99098Y80450D02*
Y81670D01*
X99836Y81858D02*
X101110D01*
X99628Y82750D02*
X102948D01*
X103218Y82480D01*
X103338Y82880D02*
X103718Y82500D01*
X99567Y82880D02*
X103338D01*
X102818Y81886D02*
X106682D01*
X102908Y82008D02*
X106750D01*
X103068Y82260D02*
X104128D01*
X90488Y80360D02*
X99008D01*
X99098Y80450D01*
X90438Y80230D02*
X99138D01*
X99228Y80320D01*
X90188Y80100D02*
X99338D01*
X99448Y80210D01*
X89128Y79960D02*
X99508D01*
X99638Y80090D01*
X95378Y89140D02*
X95678D01*
X95318Y89080D02*
X95378Y89140D01*
X101968Y80340D02*
X102068Y80240D01*
X101968Y80340D02*
Y81367D01*
X102968Y80340D02*
X103068Y80240D01*
X102968Y80340D02*
Y81367D01*
X104468Y80840D02*
X105068Y80240D01*
X104468Y80840D02*
Y81367D01*
X105838Y80240D02*
X106068D01*
X104968Y81110D02*
X105838Y80240D01*
X104968Y81110D02*
Y81367D01*
X88798Y80290D02*
X89128Y79960D01*
X88798Y80290D02*
Y80420D01*
X89098Y80610D02*
Y81030D01*
Y80610D02*
X89378Y80330D01*
Y80220D02*
Y80330D01*
X89538Y85880D02*
Y88160D01*
X89888Y88510D01*
Y89210D01*
X89498Y89600D02*
X89888Y89210D01*
X89378Y82240D02*
X89648Y81970D01*
X89778Y80890D02*
X90438Y80230D01*
X87108Y82640D02*
Y82820D01*
Y82640D02*
X87178Y82570D01*
X86978Y82950D02*
X87108Y82820D01*
X86958Y82340D02*
Y82720D01*
X86058Y82760D02*
X86918D01*
X86958Y82720D01*
X88168Y82180D02*
Y82350D01*
X88031Y82487D02*
Y82720D01*
Y82487D02*
X88168Y82350D01*
X87940Y81908D02*
Y82398D01*
X87834Y82504D02*
Y82720D01*
Y82504D02*
X87940Y82398D01*
X87756Y82410D02*
X87818Y82347D01*
Y81820D02*
Y82347D01*
X87688Y82410D02*
X87756D01*
X87637Y82461D02*
Y82720D01*
X87818Y81820D02*
X87858Y81780D01*
X87637Y82461D02*
X87688Y82410D01*
X88448Y81910D02*
X88808Y82270D01*
X87942Y81910D02*
X88448D01*
X87940Y81908D02*
X87942Y81910D01*
X87808Y81658D02*
X88060D01*
X88618Y81100D01*
X87858Y81780D02*
X88148D01*
X88298Y81630D01*
X87806Y81660D02*
X87808Y81658D01*
X87798Y81660D02*
X87806D01*
X87458Y82320D02*
Y82795D01*
X87388Y82865D02*
Y83062D01*
Y82865D02*
X87458Y82795D01*
X86400Y83172D02*
X86938D01*
X87216Y83062D02*
X87388D01*
X87108Y83170D02*
X87216Y83062D01*
X86938Y83170D02*
X87108D01*
X86168Y83400D02*
X87138D01*
X87279Y83259D01*
X87388D01*
X86028Y83530D02*
X87188D01*
X87262Y83456D02*
X87388D01*
X87188Y83530D02*
X87262Y83456D01*
X86398Y83740D02*
X87118D01*
X87835Y83653D02*
X88128Y83360D01*
X87388Y83653D02*
X87835D01*
X87205D02*
X87388D01*
X87118Y83740D02*
X87205Y83653D01*
X87488Y84420D02*
X87758D01*
X87068Y84000D02*
X87488Y84420D01*
X87758D02*
X87845Y84333D01*
X88298Y84440D02*
X89008D01*
X89088Y84360D01*
X88239Y84381D02*
X88298Y84440D01*
X88738Y84310D02*
X88908Y84140D01*
X88518Y84310D02*
X88738D01*
X88436Y84228D02*
X88518Y84310D01*
X89278Y84140D02*
X89358Y84220D01*
X88908Y84140D02*
X89278D01*
X89038Y84010D02*
X89048Y84000D01*
X88713Y84010D02*
X89038D01*
X88436Y84090D02*
Y84228D01*
X89048Y84000D02*
X89478D01*
X88633Y84090D02*
X88713Y84010D01*
X89068Y82050D02*
Y82680D01*
X88883Y82865D02*
X89068Y82680D01*
X89128Y83100D02*
Y83540D01*
X88883Y83062D02*
X89090D01*
X89128Y83100D01*
X89338Y81780D02*
X89378D01*
X88946Y81999D02*
X89058Y81887D01*
X88946Y81999D02*
Y82002D01*
X89058Y81500D02*
Y81887D01*
X88808Y82140D02*
X88946Y82002D01*
X89068Y82050D02*
X89338Y81780D01*
X88808Y82140D02*
Y82270D01*
X87458Y82320D02*
X87598Y82180D01*
X89128Y83540D02*
X89388Y83800D01*
Y82230D02*
Y82240D01*
X85238Y82550D02*
Y83640D01*
X86178Y84000D02*
X87068D01*
X85728Y83550D02*
X86178Y84000D01*
X87598Y81860D02*
X87798Y81660D01*
X87598Y81860D02*
Y82180D01*
X85958Y82860D02*
X86058Y82760D01*
X86118Y83033D02*
X86201Y82950D01*
X86978D01*
X86118Y83033D02*
Y83350D01*
X85728Y82820D02*
Y83550D01*
X88808Y81340D02*
X88898D01*
X89058Y81500D01*
X88468Y81700D02*
X88808D01*
X88398Y81630D02*
X88468Y81700D01*
X88618Y81100D02*
X89028D01*
X89098Y81030D01*
X88298Y81630D02*
X88398D01*
X86958Y82340D02*
X87318Y81980D01*
X88239Y84200D02*
Y84381D01*
X91915Y91113D02*
Y91797D01*
X91951Y91833D01*
X92288Y91833D01*
X90528Y80500D02*
X94368D01*
X104198Y90470D02*
X105028Y91300D01*
X106918Y91160D02*
X107598D01*
X105358Y91630D02*
X105558Y91430D01*
X106648D01*
X106918Y91160D01*
X88398Y81630D02*
Y81640D01*
X95658Y80950D02*
X96018D01*
X95498Y80790D02*
X95658Y80950D01*
X96018D02*
X96298Y81230D01*
X95718Y80820D02*
X95918D01*
X95468Y80570D02*
X95718Y80820D01*
X95918D02*
X95958Y80780D01*
X94658Y80790D02*
X95498D01*
X96298Y81230D02*
X96638D01*
X96778Y81370D01*
X97098D01*
X96838Y81240D02*
X97038D01*
X96588Y80990D02*
X96838Y81240D01*
X97098Y81370D02*
X97288Y81180D01*
X97038Y81240D02*
X97228Y81050D01*
X96388Y80990D02*
X96588D01*
X96928Y81000D02*
X97008Y80920D01*
X94758Y80570D02*
X95468D01*
X94368Y80500D02*
X94658Y80790D01*
X101468Y81640D02*
X101728Y81900D01*
X101258Y92190D02*
X101328Y92260D01*
X89378Y80820D02*
Y81210D01*
Y80220D02*
X89648Y80490D01*
X103278Y88950D02*
X103628Y88600D01*
X103718D01*
X103278Y88950D02*
Y89320D01*
X103468Y89510D01*
X102308Y89690D02*
Y90410D01*
X85238Y82550D02*
X85728Y82060D01*
X84878Y82370D02*
X85238Y82010D01*
X84878Y82370D02*
Y82430D01*
X95678Y89140D02*
X95788Y89030D01*
X95578Y88900D02*
X98308D01*
X99778Y87430D01*
X96228Y88740D02*
X98278D01*
X99718Y87300D01*
X96638Y88590D02*
X98248D01*
X99668Y87170D01*
X96148Y88660D02*
X96228Y88740D01*
X96558Y88510D02*
X96638Y88590D01*
X86728Y81970D02*
Y82540D01*
X88218Y80910D02*
X88268Y80960D01*
X86578Y80910D02*
X88218D01*
X86398Y83170D02*
X86400Y83172D01*
X87845Y84200D02*
Y84333D01*
X86418Y81660D02*
X86728Y81970D01*
X86418Y81070D02*
X86578Y80910D01*
X86418Y81070D02*
Y81660D01*
X85958Y83460D02*
X86028Y83530D01*
X86118Y83350D02*
X86168Y83400D01*
X85958Y82860D02*
Y83460D01*
X85948Y81560D02*
X86158Y81770D01*
X85948Y81300D02*
Y81560D01*
X86158Y81770D02*
Y82540D01*
X86674Y81300D02*
Y81586D01*
X86768Y81680D01*
X87148Y81720D02*
X87198D01*
X86930Y81300D02*
Y81502D01*
X87148Y81720D01*
X86768Y81680D02*
X86888D01*
X87078Y81870D02*
Y81920D01*
X86888Y81680D02*
X87078Y81870D01*
X87198Y81720D02*
X87318Y81840D01*
Y81980D01*
X88778Y80710D02*
Y80860D01*
X88308Y80240D02*
X88778Y80710D01*
X107518Y90630D02*
Y91160D01*
X107498Y90630D02*
X107548Y90580D01*
Y88900D02*
Y90580D01*
X107548Y88900D02*
X107548Y88900D01*
X107548Y88760D02*
Y88900D01*
Y88760D02*
X107968Y88340D01*
Y88060D02*
Y88340D01*
X108428Y89730D02*
Y90350D01*
X108198Y90580D02*
X108428Y90350D01*
X108198Y90580D02*
Y91130D01*
X108168Y91160D02*
X108198Y91130D01*
X108088Y88900D02*
Y88980D01*
X107718Y89350D02*
X108088Y88980D01*
X108428Y93660D02*
X108668D01*
X106968Y81367D02*
Y81600D01*
X107468Y81367D02*
Y81630D01*
Y88060D02*
Y88340D01*
X106468Y88060D02*
Y88440D01*
X102468Y88060D02*
Y88740D01*
X102308Y90410D02*
X102588Y90690D01*
X105968Y88060D02*
Y88250D01*
X104878Y88580D02*
X105638D01*
X104478Y88970D02*
X104488D01*
X105638Y88580D02*
X105968Y88250D01*
X104478Y88980D02*
X104878Y88580D01*
X104478Y88970D02*
Y89560D01*
X105468Y87760D02*
Y88060D01*
X105228Y87520D02*
X105468Y87760D01*
X104968Y87770D02*
Y88060D01*
X104718Y87520D02*
X104968Y87770D01*
X103968Y87780D02*
Y88060D01*
X103718Y87530D02*
X103968Y87780D01*
X103468D02*
Y88060D01*
X104468D02*
Y88280D01*
X104168Y88580D02*
X104468Y88280D01*
X103428Y87530D02*
X103718D01*
X103248Y87560D02*
X103468Y87780D01*
X103908Y87520D02*
X104718D01*
X103788Y87400D02*
X103908Y87520D01*
X103478Y87400D02*
X103788D01*
X103328Y87430D02*
X103428Y87530D01*
X99838Y87560D02*
X103248D01*
X99778Y87430D02*
X103328D01*
X104898Y87520D02*
X105228D01*
X104768Y87390D02*
X104898Y87520D01*
X103968Y87390D02*
X104768D01*
X103848Y87270D02*
X103968Y87390D01*
X103538Y87270D02*
X103848D01*
X103378Y87300D02*
X103478Y87400D01*
X103438Y87170D02*
X103538Y87270D01*
X99718Y87300D02*
X103378D01*
X99668Y87170D02*
X103438D01*
X102968Y88350D02*
X103218Y88600D01*
X102328Y89050D02*
X102638Y88740D01*
X89388Y82840D02*
Y83230D01*
X106682Y81886D02*
X106968Y81600D01*
X104128Y82260D02*
X104218Y82350D01*
X89858Y80430D02*
X90188Y80100D01*
X101438Y89050D02*
X102328D01*
X101558Y88750D02*
X101638D01*
X101468Y88580D02*
X101638Y88750D01*
X101468Y88060D02*
Y88580D01*
X101345Y89143D02*
X101438Y89050D01*
X101218Y89090D02*
X101558Y88750D01*
X101088Y89010D02*
X101218Y88880D01*
Y88590D02*
Y88880D01*
X102588Y91250D02*
X103468Y90370D01*
X102928Y89780D02*
X102968Y89740D01*
Y88060D02*
Y89740D01*
X102018Y90050D02*
Y91250D01*
X101698D02*
X102018D01*
X101668Y89780D02*
Y91090D01*
X101258Y91690D02*
Y92190D01*
Y91690D02*
X101698Y91250D01*
X101108Y91650D02*
X101668Y91090D01*
X101345Y89143D02*
Y91233D01*
X100978Y91600D02*
X101345Y91233D01*
X100856Y91522D02*
X101218Y91160D01*
Y89090D02*
Y91160D01*
X100718Y91480D02*
X101088Y91110D01*
Y89010D02*
Y91110D01*
X101638Y89350D02*
X101968D01*
X102308Y89690D01*
X102638Y89340D02*
Y89620D01*
X102588Y89670D02*
X102638Y89620D01*
X102588Y89670D02*
Y90050D01*
X98938Y88460D02*
X99838Y87560D01*
X98938Y88460D02*
Y88690D01*
X98598Y89030D02*
X98938Y88690D01*
X95788Y89030D02*
X98598D01*
X89583Y94650D02*
X89968D01*
X89148Y93970D02*
X89648D01*
X97288Y81180D02*
X97867D01*
X97228Y81050D02*
X97928D01*
X97008Y80920D02*
X97978D01*
X95958Y80780D02*
X98038D01*
X98576Y81318D01*
Y81321D01*
X101110Y81858D02*
X101468Y81500D01*
X100568Y94850D02*
X101108Y94310D01*
Y91650D02*
Y94310D01*
X100978Y91600D02*
Y93440D01*
X98568Y94850D02*
X99018Y94400D01*
X99828D01*
X100856Y91522D02*
Y93372D01*
X99568Y94850D02*
X100978Y93440D01*
X99828Y94400D02*
X100856Y93372D01*
X99768Y94250D02*
X100718Y93300D01*
Y91480D02*
Y93300D01*
X97568Y94850D02*
X97918D01*
X98518Y94250D01*
X99768D01*
X84858Y84370D02*
X85208Y84720D01*
X84858Y83680D02*
Y84370D01*
X85208Y84720D02*
X89408D01*
X85238Y83640D02*
X86188Y84590D01*
X89358D01*
X85418Y93700D02*
X85968Y94250D01*
X87908Y94350D02*
X88318D01*
X88458Y94210D02*
X88788D01*
X88908Y94330D02*
X89308D01*
X89958Y94230D02*
X90218Y93970D01*
X87808Y94250D02*
X87908Y94350D01*
X85968Y94250D02*
X87808D01*
X88318Y94350D02*
X88458Y94210D01*
X89408Y94230D02*
X89958D01*
X88788Y94210D02*
X88908Y94330D01*
X89308D02*
X89408Y94230D01*
X105468Y81210D02*
Y81367D01*
Y81210D02*
X106008Y80670D01*
X106468Y81190D02*
Y81367D01*
Y81190D02*
X106838Y80820D01*
X107288D01*
X107958Y80150D01*
X107218Y81880D02*
X107468Y81630D01*
X106878Y81880D02*
X107218D01*
X106750Y82008D02*
X106878Y81880D01*
X107648Y82010D02*
X107728Y81930D01*
X106928Y82010D02*
X107648D01*
X106808Y82130D02*
X106928Y82010D01*
X107968Y81367D02*
Y82010D01*
X107808Y82170D02*
X107968Y82010D01*
X107259Y82170D02*
X107808D01*
X107128Y82301D02*
X107259Y82170D01*
Y82180D01*
X107108Y82330D02*
X107259Y82180D01*
X99628Y89290D02*
Y89940D01*
X99028Y88690D02*
X99628Y89290D01*
X98938Y88690D02*
X99028D01*
X98628Y89320D02*
Y89940D01*
Y89320D02*
X98968Y88980D01*
X100918Y88780D02*
X100958Y88820D01*
Y89610D01*
X100628Y89940D02*
X100958Y89610D01*
X108098Y93000D02*
Y93330D01*
Y93000D02*
X108198Y92900D01*
X108098Y93330D02*
X108428Y93660D01*
X108748Y90130D02*
X109038Y90420D01*
Y92061D01*
X108199Y92901D02*
X109038Y92061D01*
X105138Y88840D02*
Y90310D01*
Y88840D02*
X105198Y88780D01*
X106128D02*
X106468Y88440D01*
X105198Y88780D02*
X106128D01*
X105138Y90310D02*
X105238Y90410D01*
Y91400D01*
X106968Y88060D02*
Y88220D01*
X105568Y89240D02*
X105948D01*
X106968Y88220D01*
X106568Y89090D02*
X107468Y88190D01*
X106568Y89090D02*
Y89240D01*
X106998Y88960D02*
Y89860D01*
X105818Y91040D02*
X106998Y89860D01*
X101478Y91820D02*
X101608Y91690D01*
X102888Y93730D02*
X102908D01*
X102988D02*
X103488Y94230D01*
X102908Y93730D02*
X105238Y91400D01*
X89498Y89600D02*
Y89640D01*
X88808Y89930D02*
X89208D01*
X89498Y89640D01*
X90669Y92231D02*
X91148Y92231D01*
X90931Y91837D02*
X91148D01*
X91718Y92490D02*
Y92800D01*
X91658Y92860D02*
X91718Y92800D01*
X91915Y92490D02*
Y92793D01*
X90932Y92034D02*
X91148Y92034D01*
X90888Y91880D02*
X90931Y91837D01*
X89928Y91820D02*
X89988Y91880D01*
X90888D01*
X90908Y92010D02*
X90932Y92034D01*
X90418Y92010D02*
X90908D01*
X90198Y92230D02*
X90418Y92010D01*
X91988Y91040D02*
X92368D01*
X91915Y91113D02*
X91988Y91040D01*
X90008Y91320D02*
X90198Y91320D01*
X89928Y91400D02*
X90008Y91320D01*
X89928Y91400D02*
Y91820D01*
X91268Y91040D02*
X91418D01*
X90938Y90710D02*
X91268Y91040D01*
X88098Y92320D02*
X88238Y92460D01*
X88098Y91530D02*
Y92320D01*
Y91530D02*
X88158Y91470D01*
X89028D01*
X89978Y90520D01*
X90448Y93840D02*
X90558Y93730D01*
X90448Y93840D02*
Y94170D01*
X89968Y94650D02*
X90448Y94170D01*
X88018Y93840D02*
X88148Y93970D01*
X88018Y92920D02*
Y93840D01*
X92058Y93730D02*
X92448Y94120D01*
X93687D01*
X93915Y93891D01*
X92058Y93940D02*
X92368Y94250D01*
X93448D02*
X94058Y94860D01*
X92368Y94250D02*
X93448D01*
X91308Y93360D02*
X91563D01*
X90748Y93360D02*
X91008D01*
X91361Y92650D02*
X91521Y92490D01*
X91008Y93360D02*
X91068Y93300D01*
X91228Y93280D02*
X91308Y93360D01*
X91718Y92990D02*
X91915Y92793D01*
X91228Y93050D02*
X91288Y92990D01*
X91228Y93050D02*
Y93280D01*
X91288Y92990D02*
X91718D01*
X91098Y93610D02*
X91228D01*
X90978Y93730D02*
X91098Y93610D01*
X91228D02*
X91348Y93730D01*
X90558D02*
X90978D01*
X91348D02*
X92058D01*
X91158Y93840D02*
X91258Y93940D01*
X92058D01*
X91068Y93010D02*
X91218Y92860D01*
X91068Y93010D02*
Y93300D01*
X91218Y92860D02*
X91658D01*
X91248Y92650D02*
X91361D01*
X90898Y93000D02*
X91248Y92650D01*
X90668Y92640D02*
X90818Y92790D01*
X90440Y92460D02*
X90668Y92232D01*
X90669Y92231D01*
X90668Y92230D02*
Y92640D01*
X90328Y92690D02*
X90638Y93000D01*
X88248Y92690D02*
X90328D01*
X88018Y92920D02*
X88248Y92690D01*
X90638Y93000D02*
X90898D01*
X95178Y90640D02*
X96548D01*
X96728Y90820D02*
X98008D01*
X98178Y90990D01*
X98538D01*
X101758Y92000D02*
X103578D01*
X103838Y92260D01*
X100508Y92000D02*
X100578Y91930D01*
Y91500D02*
Y91930D01*
X94928Y90390D02*
X95178Y90640D01*
X98818Y91270D02*
X100348D01*
X98538Y90990D02*
X98818Y91270D01*
X100348D02*
X100578Y91500D01*
X96548Y90640D02*
X96728Y90820D01*
X103908Y90190D02*
Y90400D01*
Y90190D02*
X103918Y90180D01*
X104198Y89960D02*
Y90470D01*
X104118Y89880D02*
X104198Y89960D01*
X103468Y89880D02*
X104118D01*
X103468Y89510D02*
Y90370D01*
X103918Y88990D02*
Y89580D01*
X104488D02*
Y90180D01*
D44*
X97538Y73590D02*
X99028D01*
X99068Y72740D02*
X102178D01*
X99028Y72700D02*
X99068Y72740D01*
X100818Y73950D02*
X101260Y74392D01*
X100818Y73720D02*
Y73950D01*
X105698Y77810D02*
X106038Y77470D01*
X102308Y77660D02*
X102458Y77810D01*
X106038Y76740D02*
Y77470D01*
X105409Y76111D02*
X106038Y76740D01*
X102418Y77770D02*
X102456D01*
X105218Y76111D02*
X105409D01*
X105238Y76450D02*
X105518Y76730D01*
X105038Y77640D02*
X105518Y77160D01*
X104778Y76450D02*
X105238D01*
X105518Y76730D02*
Y77160D01*
X106348Y75470D02*
X106528Y75650D01*
X105918Y75470D02*
X106348D01*
X105632Y75184D02*
X105918Y75470D01*
X106528Y75650D02*
Y76340D01*
X105408Y75184D02*
X105632Y75184D01*
X105649Y75441D02*
X105898Y75690D01*
Y75790D01*
X105408Y75441D02*
X105649D01*
X113268Y85040D02*
Y86670D01*
X112768Y85040D02*
Y86670D01*
X112268Y85040D02*
Y85550D01*
X112338Y85620D01*
Y85900D01*
X112268Y85970D02*
X112338Y85900D01*
X112268Y85970D02*
Y86670D01*
X111768Y85040D02*
Y86670D01*
X86508Y73430D02*
X87648D01*
X107628Y75630D02*
X107683D01*
X108283Y74015D02*
X108393D01*
X113988Y75820D02*
Y76530D01*
X113993Y74315D02*
Y75245D01*
X100898Y78080D02*
X101318Y78500D01*
X97268D02*
X100478D01*
X100898Y78080D01*
X96838Y78070D02*
X97268Y78500D01*
X87518Y73890D02*
Y77240D01*
X86763Y77995D02*
X87518Y77240D01*
X86693Y77995D02*
X86763D01*
X87948Y78070D02*
X96838D01*
X87493Y77615D02*
X87948Y78070D01*
X85498Y74010D02*
X86288D01*
X86418Y73520D02*
X86508Y73430D01*
X86418Y73520D02*
Y73880D01*
X86288Y74010D02*
X86418Y73880D01*
X86583Y73115D02*
X86713D01*
X86218Y73480D02*
X86583Y73115D01*
X86218Y73480D02*
Y73590D01*
X86113Y73695D02*
X86218Y73590D01*
X84913Y74595D02*
X85498Y74010D01*
X80403Y74595D02*
X84913D01*
X80403Y74545D02*
Y74595D01*
X108283Y73445D02*
X108643D01*
X108663Y73465D01*
X104738Y76111D02*
Y76410D01*
X104778Y76450D01*
X99898Y78080D02*
X100318Y77660D01*
X103678Y73420D02*
X103724Y73465D01*
Y73742D01*
X102750Y74412D02*
X103053D01*
X108408Y75060D02*
X108748Y75400D01*
Y76920D01*
X108563Y77105D02*
X108748Y76920D01*
X108293Y77105D02*
X108563D01*
X103980Y73502D02*
Y73742D01*
X103758Y73280D02*
X103980Y73502D01*
X104236Y73518D02*
Y73742D01*
X103658Y72940D02*
X104236Y73518D01*
X103638Y72940D02*
X103658D01*
X104492Y73294D02*
Y73742D01*
X104138Y72940D02*
X104492Y73294D01*
X104748Y73050D02*
Y73742D01*
X104638Y72940D02*
X104748Y73050D01*
X105004Y73074D02*
Y73742D01*
Y73074D02*
X105138Y72940D01*
X107388Y74870D02*
X107928D01*
X107208Y75050D02*
X107388Y74870D01*
X107928D02*
X108118Y75060D01*
X108408D01*
X107398Y73950D02*
X107683Y73665D01*
X107208Y74710D02*
X107398Y74520D01*
Y73950D02*
Y74520D01*
X106088Y78130D02*
Y78160D01*
X96408Y74720D02*
X97538Y73590D01*
X94818Y74720D02*
X96408D01*
X94348Y74250D02*
X94818Y74720D01*
X106528Y76340D02*
Y77220D01*
X103628Y77160D02*
X103738Y77050D01*
X104728D01*
X104748Y78230D02*
X105518D01*
X104478Y78500D02*
X104748Y78230D01*
X101318Y78500D02*
X104478D01*
X102398Y77520D02*
X102518Y77640D01*
X99458Y77520D02*
X102398D01*
X98898Y78080D02*
X99458Y77520D01*
X100318Y77660D02*
X102308D01*
X102458Y77810D02*
X105698D01*
X100898Y77290D02*
X100992Y77384D01*
X102214D01*
X102418Y76390D02*
X102568Y76240D01*
X103053Y75755D01*
Y75692D02*
Y75755D01*
X97898Y78080D02*
X99588Y76390D01*
X102418D01*
X99194Y74254D02*
X99974D01*
X105518Y78230D02*
X106528Y77220D01*
X102686Y74156D02*
X103053D01*
X103298Y73420D02*
X103678D01*
X103238Y73280D02*
X103758D01*
X100615Y73613D02*
X100728Y73500D01*
X101838D01*
X102750Y74412D01*
X101890Y73360D02*
X102686Y74156D01*
X88748Y74260D02*
X89648Y73360D01*
X101890D01*
X88488Y73220D02*
X101943D01*
X87968Y73740D02*
X88488Y73220D01*
X88328Y73080D02*
X101995D01*
X87518Y73890D02*
X88328Y73080D01*
X86713Y73115D02*
X86888Y72940D01*
X102047D01*
X102693Y73970D02*
X103318D01*
X103467Y73821D01*
Y73742D02*
Y73821D01*
X101943Y73220D02*
X102693Y73970D01*
X102749Y73834D02*
X103114D01*
X103228Y73720D01*
X101995Y73080D02*
X102749Y73834D01*
X103228Y73490D02*
X103298Y73420D01*
X103228Y73490D02*
Y73720D01*
X102805Y73698D02*
X103000D01*
X103092Y73606D01*
Y73426D02*
X103238Y73280D01*
X103092Y73426D02*
Y73606D01*
X102047Y72940D02*
X102805Y73698D01*
X102178Y72740D02*
X102868Y73430D01*
X102518Y77640D02*
X105038D01*
X105578Y77570D02*
X105798Y77350D01*
Y76960D02*
Y77350D01*
X102568Y76950D02*
Y77030D01*
Y76950D02*
X102868D01*
X102214Y77384D02*
X102568Y77030D01*
X102868Y76950D02*
X103135Y76683D01*
D45*
X94218Y74120D02*
X94348Y74250D01*
X93548Y74120D02*
X94218D01*
X93548Y74690D02*
Y75030D01*
X99974Y76854D02*
X99974Y76854D01*
X94348Y74250D02*
Y76850D01*
X107703Y77105D02*
X108293D01*
X107678Y77130D02*
X107703Y77105D01*
X107678Y76205D02*
X107683Y76200D01*
X107678Y76205D02*
Y76560D01*
X107703Y76535D01*
X108283D01*
X107683Y75165D02*
Y75630D01*
X103774Y78230D02*
X103994Y78230D01*
X104178Y78230D01*
X87153Y76715D02*
Y77275D01*
X86933Y76495D02*
X87153Y76715D01*
X86693Y76495D02*
X86933D01*
X86093Y76555D02*
X86183D01*
X86693Y77065D01*
Y77425D01*
X86093Y74585D02*
X86153D01*
X86713Y74025D01*
Y73685D02*
Y74025D01*
X107713Y74565D02*
X108283D01*
X107683Y74595D02*
X107713Y74565D01*
X107683Y74235D02*
Y74595D01*
X108033Y74015D02*
X108283D01*
X88748Y74260D02*
Y76860D01*
X88068Y74260D02*
X88748D01*
X87978Y74250D02*
X87988Y74260D01*
X86093Y77435D02*
X86133D01*
X86693Y77995D01*
X112358Y90630D02*
Y90920D01*
X112228Y91050D02*
X112358Y90920D01*
X111738Y90980D02*
Y91210D01*
Y90980D02*
X112088Y90630D01*
X112358D01*
X110938Y90830D02*
X111298Y90470D01*
Y90150D02*
Y90470D01*
X110608Y89780D02*
X110828Y89560D01*
X110798Y91590D02*
X111078D01*
X110608Y91400D02*
X110798Y91590D01*
X110608Y89780D02*
Y91400D01*
X113558Y91050D02*
X113608Y91100D01*
X113038Y91050D02*
X113558D01*
X112618Y91120D02*
X113088Y90650D01*
X111158Y89320D02*
X112158D01*
X110828Y88990D02*
X111158Y89320D01*
X110658Y88640D02*
X110828Y88810D01*
Y88990D01*
X112158Y89320D02*
X112628Y88850D01*
X110608Y93050D02*
Y94550D01*
Y93050D02*
X110718Y92940D01*
X112518Y91860D02*
Y92740D01*
X112318Y92940D02*
X112518Y92740D01*
X110718Y92940D02*
X112318D01*
X113088Y90650D02*
X113488D01*
X113608Y90530D01*
X113928Y91190D02*
Y91470D01*
X113418D02*
X113928D01*
Y91190D02*
X113988Y91130D01*
X112708Y91450D02*
X113298Y92040D01*
X113658Y92310D02*
X113928Y92040D01*
X113658Y92310D02*
Y92520D01*
X114238Y90240D02*
Y92250D01*
X114028Y92460D02*
X114238Y92250D01*
X114028Y92460D02*
Y92520D01*
X113298Y92040D02*
X113928D01*
X110608Y94550D02*
X110948Y94890D01*
X114148Y90150D02*
X114238Y90240D01*
X113948Y80150D02*
X113948Y80150D01*
X81628Y77740D02*
X83158D01*
X80403Y76515D02*
X81628Y77740D01*
X85918Y73320D02*
X86113Y73125D01*
X83158Y77740D02*
X85828D01*
X86093Y78005D01*
X112238Y90150D02*
X112628D01*
X87978Y75190D02*
X87978Y75190D01*
X87978Y74820D02*
Y75190D01*
X99190Y74828D02*
Y75178D01*
X80393Y73985D02*
Y74535D01*
X113058Y92740D02*
X113278Y92520D01*
X112848Y92740D02*
X113058D01*
X114148Y89220D02*
Y89630D01*
X113198Y90150D02*
X113578D01*
X113198Y89630D02*
Y90230D01*
Y89630D02*
X113578D01*
X110778Y81940D02*
X113738D01*
X113948Y82150D01*
X110778Y81370D02*
X113728D01*
X113948Y81150D01*
X85583Y73320D02*
X85918D01*
X80763Y73415D02*
X80803Y73455D01*
X80393Y73415D02*
X80763D01*
X86693Y74615D02*
Y76495D01*
X107683Y73665D02*
X108033Y74015D01*
X99974Y74254D02*
Y76146D01*
X107758Y90310D02*
Y90910D01*
X92128Y92530D02*
X92498D01*
D46*
X113948Y82150D02*
Y82521D01*
X113577Y82150D02*
X113948D01*
X110778Y81940D02*
Y82111D01*
Y81940D02*
X110989D01*
X113577Y81150D02*
X113948D01*
Y80779D02*
Y81150D01*
X110778Y81370D02*
X110989D01*
X110778Y81199D02*
Y81370D01*
X113948Y80150D02*
Y80521D01*
X113577Y80150D02*
X113948D01*
X112428Y91180D02*
Y91770D01*
X112608Y91110D02*
X112618Y91120D01*
X112498Y91110D02*
X112608D01*
X112428Y91180D02*
X112498Y91110D01*
X112428Y91770D02*
X112518Y91860D01*
X85008Y80560D02*
Y80770D01*
X84758D02*
X85008D01*
X85258D01*
X85008D02*
Y80980D01*
X83738Y82190D02*
Y82550D01*
X84098D01*
X83398Y84430D02*
Y84840D01*
X82988D02*
X83398D01*
Y85250D01*
X85193Y80240D02*
X85548D01*
Y80595D01*
Y80240D02*
X85903D01*
X85948Y81005D02*
Y81300D01*
X85653D02*
X85948D01*
Y81595D01*
X86158Y81700D02*
Y81950D01*
X85948Y82490D02*
X86158D01*
Y81950D02*
X86368D01*
X86158Y82490D02*
X86368D01*
X87953Y80240D02*
X88308D01*
Y80595D01*
X88558Y80770D02*
X88808D01*
X87442Y81300D02*
Y81665D01*
X83328Y88830D02*
Y89080D01*
X83118D02*
X83328D01*
X83538D01*
X83328D02*
Y89330D01*
X83798Y90080D02*
Y90360D01*
X83518D02*
X83798D01*
X80808Y91230D02*
Y91830D01*
Y92430D01*
Y91830D02*
X81408D01*
X80858Y94070D02*
Y94670D01*
X80258D02*
X80858D01*
X81458D01*
X82938Y92705D02*
Y93230D01*
X82413D02*
X82938D01*
Y93755D01*
Y93230D02*
X83463D01*
X85338Y91185D02*
Y91510D01*
X85013D02*
X85338D01*
X91096Y90150D02*
X91368D01*
X91641D01*
X85338Y91510D02*
Y91835D01*
X86918Y93150D02*
Y93700D01*
X90668Y91450D02*
Y91660D01*
X86368Y93700D02*
X86918D01*
X87468D01*
X100068Y80240D02*
Y80650D01*
Y80240D02*
X100478D01*
X96628Y89530D02*
Y89940D01*
X96218D02*
X96628D01*
X97038D01*
X92698Y91040D02*
X92908D01*
X93118D01*
X92908D02*
Y91290D01*
X105588Y84026D02*
Y85110D01*
X104504D02*
X105588D01*
X106672D01*
X105588D02*
Y86194D01*
X108958Y80150D02*
Y80460D01*
X108968Y80873D02*
Y81367D01*
Y81861D01*
X101968Y88060D02*
Y88553D01*
X103698Y88980D02*
X103908D01*
X104118D01*
X108088Y88625D02*
Y88900D01*
X108383D01*
X108968Y87566D02*
Y88060D01*
X108958Y89220D02*
Y89430D01*
X108708D02*
X108958D01*
Y89640D01*
X108318Y89730D02*
X108528D01*
X108318D02*
Y90165D01*
X108088Y90305D02*
Y90580D01*
X108383D01*
X108088Y91160D02*
X108298D01*
X108088D02*
Y91410D01*
X92738Y91490D02*
Y91700D01*
X92988D01*
X92738D02*
Y91910D01*
X94168Y92150D02*
X94418D01*
X94168D02*
Y92360D01*
X97968Y92280D02*
Y92630D01*
X96668Y92710D02*
Y92960D01*
X96458D02*
X96668D01*
X96878D01*
X97968Y92630D02*
Y92980D01*
X99328Y92980D02*
Y93190D01*
X99078D02*
X99328D01*
X99578D01*
X92853Y92970D02*
Y93320D01*
X92581D02*
X92853D01*
X93126D01*
X95178Y93840D02*
Y94050D01*
X94928D02*
X95178D01*
Y94260D01*
Y94050D02*
X95428D01*
X95528D02*
X95778D01*
X95058Y94450D02*
Y94860D01*
X94648D02*
X95058D01*
X95468D01*
X99328Y93190D02*
Y93400D01*
X95778Y93840D02*
Y94050D01*
Y94260D01*
Y94050D02*
X96028D01*
X108638Y92810D02*
Y93120D01*
X108328D02*
X108638D01*
X108948D01*
X102568Y94440D02*
Y94850D01*
X102158D02*
X102568D01*
X102978D01*
X107848Y93930D02*
Y94140D01*
X108098D01*
X107098Y93880D02*
Y94230D01*
X106748D02*
X107098D01*
X107848Y94140D02*
Y94350D01*
X108328Y94620D02*
X108638D01*
X108948D01*
X108638D02*
Y94930D01*
X83898Y88700D02*
Y89260D01*
X90938Y91640D02*
X91148D01*
X90688D02*
X90738D01*
X90758Y91680D02*
X90958D01*
X90738Y91590D02*
X90978D01*
X96408Y92420D02*
X96668Y92680D01*
X94598Y91060D02*
X96378D01*
X96558Y91240D01*
X97838D02*
X97968Y91370D01*
X96558Y91240D02*
X97838D01*
X97248Y93510D02*
X98208D01*
X98808Y92910D01*
X92918Y89500D02*
X94898D01*
X95318Y89080D01*
X92978Y89320D02*
X94738D01*
X95218Y88840D01*
X95518D02*
X95578Y88900D01*
X95218Y88840D02*
X95518D01*
X91778Y88120D02*
X92978Y89320D01*
X91578Y87520D02*
X91778Y87720D01*
Y88120D01*
X91538Y87520D02*
X91578D01*
X91538Y88120D02*
X92918Y89500D01*
X91538Y87820D02*
Y88120D01*
X85008Y80770D02*
X85538Y80240D01*
X85548D01*
X94708Y92150D02*
X94808Y92250D01*
X94168Y92150D02*
X94708D01*
X93888Y91950D02*
X94448Y91390D01*
X93888Y91950D02*
Y92440D01*
X94448Y91210D02*
Y91390D01*
X94168Y92720D02*
Y92900D01*
X93888Y92440D02*
X94168Y92720D01*
X98338Y91870D02*
X98808Y92340D01*
X98338Y91630D02*
Y91870D01*
X91338Y91400D02*
X91501Y91563D01*
X94448Y91210D02*
X94598Y91060D01*
X83868Y87370D02*
X84098D01*
X83398Y87840D02*
X83868Y87370D01*
X83628Y87070D02*
X84098D01*
X83398Y86840D02*
X83628Y87070D01*
X84098Y87670D02*
Y88500D01*
X91628Y95040D02*
X92298D01*
X92678Y94480D02*
X93058Y94860D01*
X90568Y94650D02*
X90698Y94780D01*
X91638D01*
X97968Y91370D02*
Y91630D01*
X96678Y93510D02*
Y94050D01*
X97248Y92970D02*
Y94050D01*
X83038Y90360D02*
X83458Y90780D01*
X83328Y89890D02*
X83798Y90360D01*
X83158Y88720D02*
X83328Y88890D01*
Y89890D01*
X83898Y88700D02*
X84098Y88500D01*
X108258Y94660D02*
X108758D01*
X108028Y94430D02*
X108258Y94660D01*
X108028Y94240D02*
Y94430D01*
X107928Y94140D02*
X108028Y94240D01*
X107768Y94300D02*
X107928Y94140D01*
X107768Y94300D02*
Y94480D01*
X108438Y94160D02*
X108758D01*
X107848Y93570D02*
X108438Y94160D01*
X83458Y90780D02*
X84028D01*
X84318Y90490D01*
Y89680D02*
Y89920D01*
X83898Y89260D02*
X84318Y89680D01*
X84238Y91160D02*
X84848Y90550D01*
Y90360D02*
Y90550D01*
X83418Y91160D02*
X84238D01*
X84848Y89790D02*
X85178D01*
X85428Y90040D01*
X85778Y89690D01*
X86438D02*
X86708Y89960D01*
X85778Y89690D02*
X86438D01*
X86848Y90390D02*
Y90740D01*
Y90390D02*
X87278Y89960D01*
X93915Y93153D02*
X94168Y92900D01*
X93915Y93153D02*
Y93891D01*
X91358Y94500D02*
X91638Y94780D01*
X91358Y94350D02*
Y94500D01*
X91928Y94350D02*
X92058Y94480D01*
X92678D01*
X90668Y91660D02*
X90688Y91640D01*
X92498Y92030D02*
X92738Y92270D01*
X92288Y91636D02*
X92674D01*
X92738Y91700D01*
X92288Y92030D02*
X92498D01*
X91358Y91330D02*
X91521Y91443D01*
X91718Y91040D02*
Y91590D01*
X92288Y92424D02*
X92603Y92739D01*
D47*
X112198Y90150D02*
X112238D01*
X111348Y90930D02*
Y92010D01*
X111508Y90770D02*
X111588D01*
X112208Y90150D01*
X111348Y90930D02*
X111508Y90770D01*
X111348Y92010D02*
X111548Y92210D01*
X112238Y89630D02*
Y90150D01*
X90728Y91330D02*
Y91600D01*
X90568Y91170D02*
Y91530D01*
X90668Y91660D02*
X90728Y91600D01*
X84248Y89230D02*
X84828D01*
X84248Y89030D02*
X84888D01*
X84248Y88830D02*
X84888D01*
Y88350D02*
Y89170D01*
X84828Y89230D02*
X84888Y89170D01*
X94488Y94290D02*
X95058Y94860D01*
X95478Y92940D02*
X95778Y93240D01*
Y93480D01*
X95178Y93240D02*
X95478Y92940D01*
X95178Y93240D02*
Y93480D01*
Y94050D02*
Y94200D01*
X90198Y91660D02*
X90668D01*
X92658Y91370D02*
X92738Y91290D01*
X92738Y91700D02*
X92738Y91450D01*
X92738Y90840D02*
X92938Y91040D01*
X92738Y91240D02*
X92738Y91290D01*
X92738Y91240D02*
X92938Y91040D01*
X92658Y91370D02*
X92738Y91450D01*
X87938Y91310D02*
X87988Y91260D01*
X88908D01*
X90018Y90150D01*
X90503D01*
X90668D02*
X91158Y90640D01*
X91618D01*
X91718Y90740D01*
X90553Y90150D02*
X90668D01*
X91368Y90150D02*
X91558D01*
X92028Y90620D01*
D48*
X112628Y89610D02*
X112988Y89250D01*
X113228D01*
X113628Y88850D01*
X112948Y94890D02*
X113448Y94390D01*
X113748D01*
X114028Y93470D02*
Y94090D01*
X114038Y94100D01*
X113748Y94390D02*
X114038Y94100D01*
X112238Y89630D02*
X112628D01*
Y89610D02*
Y89630D01*
X111308D02*
X111668D01*
X113658Y92980D02*
Y93910D01*
X113468Y94100D02*
X113658Y93910D01*
X111298Y90150D02*
X111668D01*
X113068Y93310D02*
X113278Y93520D01*
X112848Y93310D02*
X113068D01*
X112478Y93630D02*
X112848Y93260D01*
X111548Y93630D02*
X112478D01*
X85028Y91510D02*
X85628D01*
Y91890D01*
X85088Y91260D02*
X85568Y91740D01*
X85338Y91140D02*
Y91890D01*
X95058Y94860D02*
X95488D01*
X95058Y94450D02*
Y94860D01*
X96668Y92650D02*
Y92960D01*
X83398Y84430D02*
Y84840D01*
X82988D02*
X83398D01*
X95848Y80570D02*
X98688D01*
X98858Y80740D01*
X96088Y91520D02*
X97038Y92470D01*
X99308Y91470D02*
X100106D01*
X99328Y92060D02*
Y92620D01*
X98088Y91190D02*
X98458D01*
X94498Y90840D02*
X96458D01*
X96638Y91020D01*
X97918D02*
X98088Y91190D01*
X96638Y91020D02*
X97918D01*
X95178Y94200D02*
X95768D01*
X95178Y94050D02*
X95778D01*
X108468Y87580D02*
X108618Y87430D01*
X108468Y87580D02*
Y88060D01*
X108968Y87290D02*
Y88060D01*
X108438Y87080D02*
X108758D01*
X108968Y87290D01*
X97968Y92150D02*
Y92630D01*
X97588Y91630D02*
Y91770D01*
X97458Y91900D02*
X97588Y91770D01*
X97068Y91900D02*
X97458D01*
X94248Y91090D02*
X94498Y90840D01*
X93578Y91090D02*
X94248D01*
X98338Y92630D02*
X99048D01*
X99058Y92620D01*
X98988D02*
X99328D01*
X97428Y92470D02*
X97588Y92630D01*
X99328Y93190D02*
Y93510D01*
X99368Y93550D01*
X95478Y91520D02*
X96088D01*
X97038Y92470D02*
X97428D01*
X100338Y91702D02*
Y91750D01*
X100106Y91470D02*
X100338Y91702D01*
X85338Y91730D02*
X85418Y91810D01*
X91058Y91390D02*
X91358D01*
X95058Y94860D02*
X95458Y94460D01*
X98458Y91190D02*
X99328Y92060D01*
X99022Y91756D02*
X99308Y91470D01*
D49*
X113948Y80150D02*
Y81150D01*
X91048Y88250D02*
X92448Y89650D01*
X91268Y83850D02*
Y85070D01*
X91048Y85290D02*
X91268Y85070D01*
X91048Y85290D02*
Y88250D01*
D50*
X90658Y90790D02*
X91068Y91200D01*
X90108Y90790D02*
X90658D01*
X91068Y91200D02*
Y91340D01*
X85948Y80950D02*
Y81300D01*
X85458D02*
X85948D01*
X85098Y80240D02*
X88308D01*
X96218Y89940D02*
X97038D01*
X96628Y89450D02*
Y89940D01*
X89618Y84870D02*
Y84990D01*
X85808Y88570D02*
X86238D01*
X85808Y88350D02*
X86438D01*
X85808Y88140D02*
X86248D01*
X86438Y88350D02*
X86508Y88280D01*
X86248Y88140D02*
X86458Y88350D01*
X86238Y88570D02*
X86458Y88350D01*
X85808Y90840D02*
Y90940D01*
X87428Y92100D02*
X87808Y91720D01*
Y91440D02*
X87938Y91310D01*
X87808Y91440D02*
Y91720D01*
X86338Y92100D02*
X87428D01*
X86326Y91458D02*
X86398Y91530D01*
X89018Y91880D02*
X90108Y90790D01*
D51*
X92558Y93840D02*
X93458D01*
X92208Y90200D02*
X92768D01*
X93578Y91010D02*
Y91090D01*
X92768Y90200D02*
X93578Y91010D01*
X85808Y91190D02*
X86076Y91458D01*
X86326D01*
X85808Y90840D02*
Y91190D01*
X86188Y90130D02*
X86798Y90740D01*
X86718D02*
X86848D01*
X86188Y90040D02*
Y90130D01*
X93588Y91120D02*
Y93710D01*
X89338Y90190D02*
Y90300D01*
X88898Y90740D02*
X89338Y90300D01*
X88388Y90740D02*
X88898D01*
X87863Y90215D02*
X88388Y90740D01*
X87863Y89930D02*
Y90215D01*
X89338Y90190D02*
X90148Y89380D01*
X91388D01*
X89018Y93300D02*
X89058Y93340D01*
X92853Y92839D02*
X92853Y93320D01*
X92655D02*
X92853D01*
X91388Y89380D02*
X92208Y90200D01*
X91998Y93360D02*
X92038Y93320D01*
X93458Y93840D02*
X93588Y93710D01*
X92038Y93320D02*
X92558Y93840D01*
X91563Y93360D02*
X91998D01*
X89058Y93340D02*
X90728D01*
D52*
X84668Y92950D02*
X85418Y93700D01*
X84088Y92210D02*
X84588D01*
X83808Y91930D02*
X84088Y92210D01*
X83948Y92100D02*
X83978D01*
X84588Y92210D02*
X84668Y92290D01*
Y92950D01*
X83808Y91960D02*
X83948Y92100D01*
D53*
X88998Y88480D02*
X89568Y89050D01*
X89328Y88840D02*
X89668D01*
X89058Y88620D02*
X89668D01*
X89568Y89050D02*
X89668D01*
D54*
X90388Y81320D02*
X91028Y80680D01*
X90018Y85670D02*
X90058Y85630D01*
Y84240D02*
Y85630D01*
X90388Y81320D02*
Y83770D01*
X90298Y83860D02*
X90388Y83770D01*
X90298Y83860D02*
Y84000D01*
X90058Y84240D02*
X90298Y84000D01*
X96568Y90410D02*
X96808Y90650D01*
X98078D02*
X98248Y90820D01*
X98618D01*
X108958Y80290D02*
X108968Y80300D01*
X83908Y83340D02*
Y86480D01*
X83238Y82050D02*
Y82670D01*
X83908Y83340D01*
X90018Y85670D02*
Y86670D01*
X91028Y80680D02*
X94298D01*
X95668Y81210D02*
X95828D01*
X95438Y80980D02*
X95668Y81210D01*
X94598Y80980D02*
X95438D01*
X94298Y80680D02*
X94598Y80980D01*
X83738Y81550D02*
X84798D01*
X83238Y82050D02*
X83738Y81550D01*
X102558Y92440D02*
Y93970D01*
X84798Y81550D02*
X85008Y81340D01*
X87442Y81300D02*
X87918D01*
X103568Y89080D02*
X103668Y88980D01*
X103908D01*
X108468Y88060D02*
Y88370D01*
X108958Y88860D01*
X108588Y89230D02*
X108958Y88860D01*
Y89430D02*
Y89660D01*
X108818Y89800D02*
X108958Y89660D01*
X108428Y89730D02*
X108748D01*
X108818Y89800D01*
X103898Y88970D02*
X103908Y88980D01*
X101328Y92260D02*
X102378D01*
X102558Y92440D01*
X103678Y94650D02*
X103718Y94610D01*
X106938D01*
X106988Y94660D01*
X103238Y94650D02*
X103678D01*
X108958Y80150D02*
X108968Y80160D01*
X101328Y94610D02*
X101568Y94850D01*
X101328Y92260D02*
Y94610D01*
X108968Y81720D02*
X109028Y81780D01*
Y82070D01*
X108968Y80160D02*
Y81720D01*
X95778Y93480D02*
X96098D01*
X96998Y94380D02*
X97458D01*
X97768Y94070D01*
X99198D01*
X100028Y93240D01*
X101968Y88650D02*
X102108Y88790D01*
X101968Y88060D02*
Y88650D01*
X95698Y89890D02*
X96218Y90410D01*
X95698Y89740D02*
Y89890D01*
X96218Y90410D02*
X96568D01*
X98828Y91030D02*
X100038D01*
X98618Y90820D02*
X98828Y91030D01*
X107508Y93120D02*
X107868Y92760D01*
X107248Y94660D02*
X107508Y94400D01*
X106988Y94660D02*
X107248D01*
X107808Y91440D02*
X107868Y91500D01*
X107808Y90960D02*
Y91440D01*
X107758Y90910D02*
X107808Y90960D01*
X107758Y90310D02*
X108058Y90010D01*
Y89330D02*
Y90010D01*
Y89330D02*
X108158Y89230D01*
X97628Y89940D02*
Y90650D01*
X100028Y92260D02*
X100288D01*
X107508Y93570D02*
X107928D01*
X96808Y90650D02*
X98078D01*
X100028Y91740D02*
Y93240D01*
X96098Y93480D02*
X96998Y94380D01*
X107868Y91500D02*
Y92760D01*
X108158Y89230D02*
X108588D01*
X102558Y93970D02*
X103238Y94650D01*
X107508Y93120D02*
Y94400D01*
D55*
X89378Y85210D02*
X89578Y85010D01*
X86918Y93030D02*
Y93700D01*
X86328Y93680D02*
X87528D01*
X80818Y91040D02*
Y92480D01*
X80808Y91860D02*
X81618D01*
X80858Y94020D02*
Y94700D01*
X81648D01*
X82938Y92450D02*
Y94060D01*
X82238Y93260D02*
X83628D01*
D56*
X89368Y85240D02*
Y85350D01*
X89008Y85770D02*
Y85990D01*
X84468Y85270D02*
X84878Y85680D01*
X84888Y85990D02*
X84888D01*
X85988Y86640D02*
X86458Y86170D01*
Y85990D02*
Y86170D01*
X87458Y85990D02*
X87888Y85560D01*
X87438Y85990D02*
X87458D01*
X87438Y88640D02*
X87888Y89090D01*
X87438Y88360D02*
Y88640D01*
D57*
X104548Y85110D02*
X106488D01*
D58*
X91718Y90740D02*
Y91230D01*
X92518Y90620D02*
X92738Y90840D01*
X92028Y90620D02*
X92518D01*
X92738Y91700D02*
X92898Y91860D01*
X93118D01*
D59*
X111768Y85040D02*
D03*
X103138Y72940D02*
D03*
X107588Y78160D02*
D03*
X108958Y80150D02*
D03*
X108638Y94620D02*
D03*
D60*
X112268Y85040D02*
D03*
X112768D02*
D03*
X113268D02*
D03*
X103638Y72940D02*
D03*
X104138D02*
D03*
X104638D02*
D03*
X105138D02*
D03*
X107088Y78160D02*
D03*
X106588D02*
D03*
X106088D02*
D03*
X105588D02*
D03*
X108458Y80150D02*
D03*
X107958D02*
D03*
X107458D02*
D03*
X106958D02*
D03*
X108638Y94120D02*
D03*
Y93620D02*
D03*
Y93120D02*
D03*
D61*
X96148Y74250D02*
D03*
X96148Y76850D02*
D03*
X99974Y74254D02*
D03*
X99974Y76854D02*
D03*
X88748Y76860D02*
D03*
X88748Y74260D02*
D03*
X90548Y74260D02*
D03*
X90548Y76860D02*
D03*
X101774Y76854D02*
D03*
Y74254D02*
D03*
X94348Y74250D02*
D03*
X94348Y76850D02*
D03*
D62*
X100898Y78080D02*
D03*
X97898Y78080D02*
D03*
X99898D02*
D03*
X98898D02*
D03*
X110948Y94890D02*
D03*
X113948Y82150D02*
D03*
X113948Y81150D02*
D03*
X113628Y88850D02*
D03*
X112628D02*
D03*
X112948Y94890D02*
D03*
X111948D02*
D03*
X101068Y80240D02*
D03*
X102068D02*
D03*
X103068D02*
D03*
X104068D02*
D03*
X105068D02*
D03*
X106068D02*
D03*
X93058Y94860D02*
D03*
X94058D02*
D03*
X83398Y87840D02*
D03*
Y86840D02*
D03*
X83398Y85840D02*
D03*
X106568Y89240D02*
D03*
X98568Y94850D02*
D03*
X99568Y94850D02*
D03*
X100568D02*
D03*
X101568D02*
D03*
X102568Y94850D02*
D03*
X82708Y80550D02*
D03*
Y82550D02*
D03*
X100628Y89940D02*
D03*
X99628D02*
D03*
X97628Y89940D02*
D03*
X98628Y89940D02*
D03*
D63*
X86093Y76555D02*
D03*
X80383Y76555D02*
D03*
X86093Y75570D02*
D03*
X80383Y74585D02*
D03*
X113993Y74565D02*
D03*
X108283Y75550D02*
D03*
X113993Y76535D02*
D03*
X108283Y74565D02*
D03*
X90568Y94650D02*
D03*
X88598D02*
D03*
X89583D02*
D03*
D64*
X86093Y74585D02*
D03*
X108283Y76535D02*
D03*
D65*
X101898Y78080D02*
D03*
X113948Y80150D02*
D03*
X111628Y88850D02*
D03*
X113948Y94890D02*
D03*
X100068Y80240D02*
D03*
X95058Y94860D02*
D03*
X83398Y84840D02*
D03*
X105568Y89240D02*
D03*
X97568Y94850D02*
D03*
X96628Y89940D02*
D03*
D66*
X83138Y77780D02*
D03*
Y73360D02*
D03*
X111238Y73340D02*
D03*
Y77760D02*
D03*
D67*
X89148Y93970D02*
D03*
X88148D02*
D03*
X103838Y92260D02*
D03*
X107098Y94230D02*
D03*
X105818Y91040D02*
D03*
X103488Y94230D02*
D03*
D68*
X85548Y80240D02*
D03*
X88308D02*
D03*
D69*
X85948Y81300D02*
D03*
X87918D02*
D03*
D70*
X81638Y89940D02*
D03*
X86918Y93700D02*
D03*
X81628Y86420D02*
D03*
D71*
X81638Y88440D02*
D03*
X85418Y93700D02*
D03*
X81628Y84920D02*
D03*
D72*
X83738Y80550D02*
D03*
X83738Y81550D02*
D03*
X83738Y82550D02*
D03*
D73*
X83808Y91930D02*
D03*
Y94500D02*
D03*
D74*
X80808Y91830D02*
D03*
X80858Y94670D02*
D03*
D75*
X82938Y93230D02*
D03*
D76*
X87338Y91510D02*
D03*
X85338D02*
D03*
D77*
X105638Y73650D02*
D03*
X87968Y73740D02*
D03*
X87648Y73430D02*
D03*
X100898Y77290D02*
D03*
X93548Y75030D02*
D03*
X108678Y77670D02*
D03*
X103774Y78230D02*
D03*
X87153Y77275D02*
D03*
X87493Y77615D02*
D03*
X113038Y91050D02*
D03*
X112228D02*
D03*
X99190Y75178D02*
D03*
X87978Y75190D02*
D03*
X114148Y89220D02*
D03*
X111298Y90150D02*
D03*
X111308Y89630D02*
D03*
X110658Y88640D02*
D03*
X113988Y91130D02*
D03*
X113658Y93030D02*
D03*
X85583Y73320D02*
D03*
X80803Y73455D02*
D03*
X108663Y73465D02*
D03*
X100818Y73720D02*
D03*
X102478Y75270D02*
D03*
X102468Y74970D02*
D03*
X107208Y74710D02*
D03*
Y75050D02*
D03*
X99028Y73590D02*
D03*
X105578Y77570D02*
D03*
X103628Y77160D02*
D03*
X99978Y76150D02*
D03*
X102868Y73430D02*
D03*
X99028Y72700D02*
D03*
X92918Y92850D02*
D03*
X90568Y91170D02*
D03*
X95618Y95020D02*
D03*
X94578Y94340D02*
D03*
X94778Y94020D02*
D03*
X94058Y90520D02*
D03*
X99638Y88490D02*
D03*
X99838Y88660D02*
D03*
X100088D02*
D03*
X100318Y88620D02*
D03*
X87718Y92460D02*
D03*
X86588Y94460D02*
D03*
X87178D02*
D03*
X97208Y81690D02*
D03*
X97708Y81680D02*
D03*
X96258Y89370D02*
D03*
X96818Y89300D02*
D03*
X97128Y89340D02*
D03*
X97548D02*
D03*
X97958D02*
D03*
X90748Y82940D02*
D03*
X90768Y82660D02*
D03*
X90778Y82340D02*
D03*
X90748Y82020D02*
D03*
X90728Y81700D02*
D03*
X90418Y86250D02*
D03*
Y86760D02*
D03*
Y87000D02*
D03*
X86288Y90930D02*
D03*
X84238Y85010D02*
D03*
Y85230D02*
D03*
X96578Y85770D02*
D03*
X96588Y86000D02*
D03*
Y86220D02*
D03*
Y86460D02*
D03*
Y86700D02*
D03*
Y86930D02*
D03*
Y87170D02*
D03*
X96578Y87410D02*
D03*
Y87700D02*
D03*
X96348Y85890D02*
D03*
X96338Y86120D02*
D03*
X96348Y86350D02*
D03*
Y86580D02*
D03*
Y86810D02*
D03*
Y87050D02*
D03*
Y87290D02*
D03*
Y87530D02*
D03*
X96108Y85890D02*
D03*
Y86120D02*
D03*
Y86350D02*
D03*
Y86580D02*
D03*
X96118Y86810D02*
D03*
Y87050D02*
D03*
Y87290D02*
D03*
Y87530D02*
D03*
X105798Y87460D02*
D03*
X106118Y87260D02*
D03*
X106508Y86940D02*
D03*
X106838Y86100D02*
D03*
X106868Y85580D02*
D03*
X106888Y85220D02*
D03*
X106838Y84860D02*
D03*
Y84340D02*
D03*
X106818Y84020D02*
D03*
X106838Y83580D02*
D03*
X108088Y86550D02*
D03*
X108118Y85980D02*
D03*
X108058Y85250D02*
D03*
Y84600D02*
D03*
X108038Y83560D02*
D03*
X107988Y82940D02*
D03*
X108528Y88840D02*
D03*
X100838Y90460D02*
D03*
X100138Y89620D02*
D03*
X99258Y88530D02*
D03*
X99208Y89260D02*
D03*
X99908Y90710D02*
D03*
X99098Y90700D02*
D03*
X98318Y89340D02*
D03*
X95768Y90380D02*
D03*
X92448Y93030D02*
D03*
X87588Y92900D02*
D03*
X89658Y84790D02*
D03*
X90608Y80720D02*
D03*
X106998Y88960D02*
D03*
X107678Y82490D02*
D03*
X107828Y87490D02*
D03*
X93108Y84340D02*
D03*
Y84080D02*
D03*
X90418Y86020D02*
D03*
Y86490D02*
D03*
X91538Y87520D02*
D03*
Y87820D02*
D03*
X84098Y87070D02*
D03*
Y87370D02*
D03*
X88088Y85800D02*
D03*
Y85570D02*
D03*
Y85350D02*
D03*
X90018Y86670D02*
D03*
X89658Y85000D02*
D03*
Y85200D02*
D03*
X85808Y86820D02*
D03*
Y86610D02*
D03*
Y86400D02*
D03*
X84238Y85440D02*
D03*
X89668Y88840D02*
D03*
Y89050D02*
D03*
Y88620D02*
D03*
X88078Y88810D02*
D03*
Y89330D02*
D03*
X85808Y88140D02*
D03*
Y88350D02*
D03*
Y88570D02*
D03*
X84248Y89230D02*
D03*
Y89030D02*
D03*
Y88830D02*
D03*
X95828Y81210D02*
D03*
X85778Y92730D02*
D03*
X96998Y95020D02*
D03*
X108238Y91650D02*
D03*
X108628Y91130D02*
D03*
X108678Y90680D02*
D03*
X94308Y82250D02*
D03*
X94358Y82810D02*
D03*
X95418Y82610D02*
D03*
X95428Y82930D02*
D03*
X99768Y93030D02*
D03*
X98958Y93810D02*
D03*
X99688Y91780D02*
D03*
X97688Y93250D02*
D03*
X95608Y94420D02*
D03*
X93978Y94280D02*
D03*
X94388Y93170D02*
D03*
X81988Y87450D02*
D03*
X101768Y92660D02*
D03*
X102268Y92630D02*
D03*
X99448Y91780D02*
D03*
X97618Y93860D02*
D03*
X84568Y91340D02*
D03*
X84528Y82010D02*
D03*
X84958Y82890D02*
D03*
X84328Y82610D02*
D03*
X91108Y81020D02*
D03*
X90748Y81350D02*
D03*
X94168Y80950D02*
D03*
X97988Y81680D02*
D03*
X97448Y81690D02*
D03*
X95338Y81260D02*
D03*
X95018Y81250D02*
D03*
X94398Y81580D02*
D03*
X92468Y82770D02*
D03*
X91778Y83210D02*
D03*
X90748Y83300D02*
D03*
X91318Y83210D02*
D03*
X93518Y82850D02*
D03*
X93138Y83290D02*
D03*
X94808Y92250D02*
D03*
X95448D02*
D03*
X96018D02*
D03*
X95828Y80590D02*
D03*
X108618Y87430D02*
D03*
X100038Y91030D02*
D03*
X100028Y91780D02*
D03*
X100288Y92260D02*
D03*
X101328D02*
D03*
X101728Y81900D02*
D03*
X101218Y88590D02*
D03*
X103718Y82500D02*
D03*
Y88600D02*
D03*
X101478Y91820D02*
D03*
X105028Y91300D02*
D03*
X105358Y91630D02*
D03*
X89728Y83500D02*
D03*
X89868Y80420D02*
D03*
X85238Y82010D02*
D03*
X101668Y89780D02*
D03*
X102928D02*
D03*
X96558Y88510D02*
D03*
X96148Y88660D02*
D03*
X97968Y92150D02*
D03*
X95578Y88900D02*
D03*
X95698Y89740D02*
D03*
X90728Y91330D02*
D03*
X82018D02*
D03*
X92428Y89820D02*
D03*
X84098Y87670D02*
D03*
X83028Y88380D02*
D03*
X86398Y91530D02*
D03*
X92438Y90620D02*
D03*
X92218Y92700D02*
D03*
X92448D02*
D03*
X88338Y81050D02*
D03*
X88398Y81630D02*
D03*
X89088Y84360D02*
D03*
X87848Y83630D02*
D03*
X88408Y83090D02*
D03*
Y83630D02*
D03*
X87078Y81920D02*
D03*
X87178Y82570D02*
D03*
X89358Y84220D02*
D03*
X88798Y80420D02*
D03*
X107768Y94480D02*
D03*
X108648Y89750D02*
D03*
X108328Y87160D02*
D03*
X107778Y89300D02*
D03*
X108748Y90130D02*
D03*
X108528Y82210D02*
D03*
X105588Y85110D02*
D03*
X105608Y84780D02*
D03*
Y84380D02*
D03*
X105578Y85500D02*
D03*
Y85870D02*
D03*
X105208Y85120D02*
D03*
X105228Y84790D02*
D03*
Y84390D02*
D03*
X105198Y85510D02*
D03*
Y85880D02*
D03*
X104848Y85140D02*
D03*
X104868Y84810D02*
D03*
Y84410D02*
D03*
X104838Y85530D02*
D03*
Y85900D02*
D03*
X105968Y85110D02*
D03*
X105988Y84780D02*
D03*
Y84380D02*
D03*
X105958Y85500D02*
D03*
Y85870D02*
D03*
X106318Y85120D02*
D03*
X106338Y84790D02*
D03*
Y84390D02*
D03*
X106308Y85510D02*
D03*
Y85880D02*
D03*
X98858Y80740D02*
D03*
X103568Y89080D02*
D03*
X102108Y88790D02*
D03*
X104218Y82350D02*
D03*
Y88600D02*
D03*
X91278Y83850D02*
D03*
X94058Y90770D02*
D03*
Y90250D02*
D03*
Y89970D02*
D03*
X95738Y86150D02*
D03*
Y86440D02*
D03*
Y87290D02*
D03*
Y87010D02*
D03*
Y86720D02*
D03*
X95468Y86150D02*
D03*
Y86440D02*
D03*
Y87290D02*
D03*
Y87010D02*
D03*
Y86720D02*
D03*
X95158Y86140D02*
D03*
Y86430D02*
D03*
Y87280D02*
D03*
Y87000D02*
D03*
Y86710D02*
D03*
X94848Y86150D02*
D03*
Y86440D02*
D03*
Y87290D02*
D03*
Y87010D02*
D03*
Y86720D02*
D03*
X94568Y86150D02*
D03*
Y86440D02*
D03*
Y87290D02*
D03*
Y87010D02*
D03*
Y86720D02*
D03*
X94268Y86150D02*
D03*
Y86440D02*
D03*
Y87290D02*
D03*
Y87010D02*
D03*
Y86720D02*
D03*
X93958Y86150D02*
D03*
Y86440D02*
D03*
Y87290D02*
D03*
Y87010D02*
D03*
Y86720D02*
D03*
X93648Y86150D02*
D03*
Y86440D02*
D03*
Y87290D02*
D03*
Y87010D02*
D03*
Y86720D02*
D03*
X93348Y86150D02*
D03*
Y86440D02*
D03*
Y87290D02*
D03*
Y87010D02*
D03*
Y86720D02*
D03*
X93038Y86150D02*
D03*
Y86440D02*
D03*
Y87290D02*
D03*
Y87010D02*
D03*
Y86720D02*
D03*
X92738Y86150D02*
D03*
Y86440D02*
D03*
Y87290D02*
D03*
Y87010D02*
D03*
Y86720D02*
D03*
X92458Y86150D02*
D03*
Y86440D02*
D03*
Y87290D02*
D03*
Y87010D02*
D03*
Y86720D02*
D03*
X103218Y82480D02*
D03*
Y88600D02*
D03*
X95228Y83160D02*
D03*
X93958Y83200D02*
D03*
X107728Y81930D02*
D03*
X94758Y80570D02*
D03*
X96928Y81000D02*
D03*
X96388Y80990D02*
D03*
X96678Y84920D02*
D03*
X89768Y83790D02*
D03*
X100338Y91750D02*
D03*
X98968Y88980D02*
D03*
X98628Y88690D02*
D03*
X98118Y90290D02*
D03*
X95318Y89080D02*
D03*
X85228Y90940D02*
D03*
X88078Y89070D02*
D03*
X83908Y86480D02*
D03*
X86868Y94460D02*
D03*
X100578Y88660D02*
D03*
X100638Y91170D02*
D03*
X96408Y92300D02*
D03*
X99328Y93530D02*
D03*
X87858Y83100D02*
D03*
X107108Y82330D02*
D03*
X100918Y88780D02*
D03*
X99548Y88240D02*
D03*
X106788Y86650D02*
D03*
X106618Y83250D02*
D03*
X103618Y93730D02*
D03*
X107138Y91530D02*
D03*
X93118Y91860D02*
D03*
X91908Y90490D02*
D03*
X92558Y93840D02*
D03*
X92798D02*
D03*
X91158D02*
D03*
X90818Y92790D02*
D03*
X85658Y92260D02*
D03*
X86078Y93100D02*
D03*
X94928Y90390D02*
D03*
X101758Y92000D02*
D03*
X100508D02*
D03*
D78*
X103688Y75480D02*
D03*
Y74370D02*
D03*
X104798D02*
D03*
Y75480D02*
D03*
D79*
X105258Y92260D02*
D03*
Y94230D02*
D03*
D80*
X81308Y93230D02*
D03*
M02*
