%FSLAX24Y24*%
%MOIN*%
G70*
G01*
G75*
%ADD10C,0.0080*%
%ADD11R,0.0300X0.0300*%
%ADD12R,0.0300X0.0220*%
%ADD13R,0.0440X0.0120*%
%ADD14O,0.0190X0.1100*%
%ADD15R,0.0190X0.1100*%
%ADD16R,0.0220X0.0300*%
%ADD17R,0.0120X0.0440*%
%ADD18O,0.0440X0.0120*%
%ADD19R,0.0500X0.0250*%
%ADD20R,0.0360X0.0360*%
%ADD21O,0.0200X0.0500*%
%ADD22R,0.0200X0.0500*%
%ADD23R,0.1600X0.0600*%
%ADD24R,0.1460X0.1460*%
%ADD25R,0.0500X0.0500*%
%ADD26R,0.0830X0.2250*%
%ADD27R,0.0345X0.0500*%
%ADD28R,0.0630X0.0670*%
%ADD29O,0.0160X0.0530*%
%ADD30R,0.0160X0.0530*%
%ADD31R,0.0390X0.0350*%
%ADD32R,0.0220X0.0670*%
%ADD33O,0.0354X0.0787*%
%ADD34R,0.1968X0.1968*%
%ADD35R,0.0354X0.0787*%
%ADD36R,0.0280X0.0100*%
%ADD37R,0.0100X0.0510*%
%ADD38O,0.0100X0.0510*%
%ADD39R,0.0870X0.0870*%
%ADD40O,0.0200X0.0100*%
%ADD41R,0.0200X0.0100*%
%ADD42R,0.0100X0.0200*%
%ADD43C,0.0061*%
%ADD44C,0.0075*%
%ADD45C,0.0120*%
%ADD46C,0.0100*%
%ADD47C,0.0220*%
%ADD48C,0.0200*%
%ADD49C,0.0600*%
%ADD50C,0.0300*%
%ADD51C,0.0360*%
%ADD52C,0.0900*%
%ADD53C,0.0250*%
%ADD54C,0.0150*%
%ADD55C,0.0400*%
%ADD56C,0.0800*%
%ADD57C,0.2500*%
%ADD58C,0.0170*%
%ADD59R,0.0420X0.0420*%
%ADD60C,0.0420*%
%ADD61C,0.0650*%
%ADD62C,0.0620*%
%ADD63C,0.0600*%
%ADD64R,0.0600X0.0600*%
%ADD65R,0.0620X0.0620*%
%ADD66C,0.1200*%
%ADD67C,0.0500*%
%ADD68C,0.0510*%
%ADD69C,0.0390*%
%ADD70R,0.0900X0.0900*%
%ADD71C,0.0900*%
%ADD72C,0.0520*%
%ADD73C,0.0960*%
%ADD74C,0.1000*%
%ADD75C,0.0850*%
%ADD76C,0.0450*%
%ADD77C,0.0220*%
%ADD78C,0.0350*%
%ADD79C,0.0410*%
%ADD80C,0.0860*%
%ADD81O,0.0100X0.0600*%
%ADD82R,0.0100X0.0600*%
%ADD83R,0.3500X0.1380*%
%ADD84C,0.0630*%
%ADD85C,0.0700*%
%ADD86C,0.0340*%
%ADD87C,0.0730*%
%ADD88C,0.0500*%
%ADD89C,0.1900*%
%ADD90C,0.0160*%
%ADD91C,0.0040*%
%ADD92C,0.0050*%
%ADD93C,0.0070*%
%ADD94C,0.0030*%
%ADD95R,0.0380X0.0380*%
%ADD96R,0.0380X0.0300*%
%ADD97R,0.0520X0.0200*%
%ADD98O,0.0270X0.1180*%
%ADD99R,0.0270X0.1180*%
%ADD100R,0.0300X0.0380*%
%ADD101R,0.0200X0.0520*%
%ADD102O,0.0520X0.0200*%
%ADD103R,0.0580X0.0330*%
%ADD104R,0.0440X0.0440*%
%ADD105O,0.0280X0.0580*%
%ADD106R,0.0280X0.0580*%
%ADD107R,0.1680X0.0680*%
%ADD108R,0.1540X0.1540*%
%ADD109R,0.0580X0.0580*%
%ADD110R,0.0910X0.2330*%
%ADD111R,0.0425X0.0580*%
%ADD112R,0.0710X0.0750*%
%ADD113O,0.0240X0.0610*%
%ADD114R,0.0240X0.0610*%
%ADD115R,0.0470X0.0430*%
%ADD116R,0.0300X0.0750*%
%ADD117O,0.0434X0.0867*%
%ADD118R,0.2048X0.2048*%
%ADD119R,0.0434X0.0867*%
%ADD120R,0.0360X0.0180*%
%ADD121R,0.0180X0.0590*%
%ADD122O,0.0180X0.0590*%
%ADD123R,0.0950X0.0950*%
%ADD124O,0.0280X0.0180*%
%ADD125R,0.0280X0.0180*%
%ADD126R,0.0180X0.0280*%
%ADD127C,0.0730*%
%ADD128C,0.0700*%
%ADD129C,0.0680*%
%ADD130R,0.0680X0.0680*%
%ADD131R,0.0700X0.0700*%
%ADD132C,0.1280*%
%ADD133C,0.0580*%
%ADD134C,0.0590*%
%ADD135C,0.0470*%
%ADD136R,0.0980X0.0980*%
%ADD137C,0.0980*%
%ADD138C,0.1040*%
%ADD139C,0.1080*%
%ADD140C,0.0930*%
%ADD141C,0.0530*%
%ADD142C,0.0300*%
%ADD143C,0.0430*%
%ADD144C,0.0490*%
%ADD145C,0.0940*%
%ADD146O,0.0180X0.0680*%
%ADD147R,0.0180X0.0680*%
%ADD148R,0.3580X0.1460*%
D25*
X111768Y85040D02*
D03*
X103138Y72940D02*
D03*
X107588Y78160D02*
D03*
X108958Y80150D02*
D03*
X108638Y94620D02*
D03*
D58*
X88700Y91021D02*
X88318Y90640D01*
X87908Y91050D01*
X88289Y91432D01*
X88700Y91021D01*
X88499D02*
X88318Y90840D01*
X88108Y91050D01*
X88289Y91231D01*
X88499Y91021D01*
X88312Y91034D02*
X88295Y91037D01*
X89789Y92110D02*
X89407Y91728D01*
X88997Y92139D01*
X89378Y92520D01*
X89789Y92110D01*
X89588D02*
X89407Y91929D01*
X89197Y92139D01*
X89378Y92320D01*
X89588Y92110D01*
X89401Y92123D02*
X89384Y92126D01*
D63*
X83738Y80550D02*
D03*
X83738Y81550D02*
D03*
X83738Y82550D02*
D03*
D67*
X112268Y85040D02*
D03*
X112768D02*
D03*
X113268D02*
D03*
X103638Y72940D02*
D03*
X104138D02*
D03*
X104638D02*
D03*
X105138D02*
D03*
X107088Y78160D02*
D03*
X106588D02*
D03*
X106088D02*
D03*
X105588D02*
D03*
X108458Y80150D02*
D03*
X107958D02*
D03*
X107458D02*
D03*
X106958D02*
D03*
X108638Y94120D02*
D03*
Y93620D02*
D03*
Y93120D02*
D03*
D96*
X95317Y89741D02*
D03*
Y90311D02*
D03*
X95818Y82210D02*
D03*
Y82780D02*
D03*
X91088Y85570D02*
D03*
Y85000D02*
D03*
X90998Y88400D02*
D03*
Y87830D02*
D03*
X94018Y84130D02*
D03*
Y83560D02*
D03*
X94618Y83530D02*
D03*
Y84100D02*
D03*
X94118Y89630D02*
D03*
Y89060D02*
D03*
X94718Y89080D02*
D03*
Y89650D02*
D03*
X95818Y83710D02*
D03*
X95818Y83140D02*
D03*
X95218Y84080D02*
D03*
X95218Y83510D02*
D03*
D100*
X80338Y89930D02*
D03*
X80908D02*
D03*
X80368Y84930D02*
D03*
X80938D02*
D03*
X80368Y88450D02*
D03*
X80938D02*
D03*
X80928Y86420D02*
D03*
X80358D02*
D03*
X93268Y91470D02*
D03*
X92698D02*
D03*
X94188D02*
D03*
X93618D02*
D03*
X92368Y84630D02*
D03*
X91798D02*
D03*
X91948Y89030D02*
D03*
X92518Y89030D02*
D03*
X96118Y84530D02*
D03*
X96688D02*
D03*
X93718Y89280D02*
D03*
X93148D02*
D03*
X93018Y88730D02*
D03*
X93588D02*
D03*
X92958Y84780D02*
D03*
X93528Y84780D02*
D03*
D111*
X93653Y90020D02*
D03*
X92838D02*
D03*
X93653Y90770D02*
D03*
X92838D02*
D03*
X93523Y84080D02*
D03*
X92708Y84080D02*
D03*
X93523Y83340D02*
D03*
X92708D02*
D03*
D112*
X84858Y92210D02*
D03*
X86398D02*
D03*
D127*
X96148Y74250D02*
D03*
X96148Y76850D02*
D03*
X99974Y74254D02*
D03*
X99974Y76854D02*
D03*
X88748Y76860D02*
D03*
X88748Y74260D02*
D03*
X90548Y74260D02*
D03*
X90548Y76860D02*
D03*
X101774Y76854D02*
D03*
Y74254D02*
D03*
X94348Y74250D02*
D03*
X94348Y76850D02*
D03*
D128*
X100898Y78080D02*
D03*
X97898Y78080D02*
D03*
X99898D02*
D03*
X98898D02*
D03*
X110948Y94890D02*
D03*
X113948Y82150D02*
D03*
X113948Y81150D02*
D03*
X113628Y88850D02*
D03*
X112628D02*
D03*
X112948Y94890D02*
D03*
X111948D02*
D03*
X101068Y80240D02*
D03*
X102068D02*
D03*
X103068D02*
D03*
X104068D02*
D03*
X105068D02*
D03*
X106068D02*
D03*
X93058Y94860D02*
D03*
X94058D02*
D03*
X83398Y87840D02*
D03*
Y86840D02*
D03*
X83398Y85840D02*
D03*
X106568Y89240D02*
D03*
X98568Y94850D02*
D03*
X99568Y94850D02*
D03*
X100568D02*
D03*
X101568D02*
D03*
X102568Y94850D02*
D03*
X82708Y80550D02*
D03*
Y82550D02*
D03*
X100628Y89940D02*
D03*
X99628D02*
D03*
X97628Y89940D02*
D03*
X98628Y89940D02*
D03*
D129*
X86093Y76555D02*
D03*
X80383Y76555D02*
D03*
X86093Y75570D02*
D03*
X80383Y74585D02*
D03*
X113993Y74565D02*
D03*
X108283Y75550D02*
D03*
X113993Y76535D02*
D03*
X108283Y74565D02*
D03*
X90568Y94650D02*
D03*
X88598D02*
D03*
X89583D02*
D03*
D130*
X86093Y74585D02*
D03*
X108283Y76535D02*
D03*
D131*
X101898Y78080D02*
D03*
X113948Y80150D02*
D03*
X111628Y88850D02*
D03*
X113948Y94890D02*
D03*
X100068Y80240D02*
D03*
X95058Y94860D02*
D03*
X83398Y84840D02*
D03*
X105568Y89240D02*
D03*
X97568Y94850D02*
D03*
X96628Y89940D02*
D03*
D132*
X83138Y77780D02*
D03*
Y73360D02*
D03*
X111238Y73340D02*
D03*
Y77760D02*
D03*
D133*
X89148Y93970D02*
D03*
X88148D02*
D03*
X103838Y92260D02*
D03*
X107098Y94230D02*
D03*
X105818Y91040D02*
D03*
X103488Y94230D02*
D03*
D134*
X85548Y80240D02*
D03*
X88308D02*
D03*
D135*
X85948Y81300D02*
D03*
X87918D02*
D03*
D136*
X81638Y89940D02*
D03*
X86918Y93700D02*
D03*
X81628Y86420D02*
D03*
D137*
X81638Y88440D02*
D03*
X85418Y93700D02*
D03*
X81628Y84920D02*
D03*
D138*
X83808Y91930D02*
D03*
Y94500D02*
D03*
D139*
X80808Y91830D02*
D03*
X80858Y94670D02*
D03*
D140*
X82938Y93230D02*
D03*
D141*
X87338Y91510D02*
D03*
X85338D02*
D03*
D142*
X105638Y73650D02*
D03*
X87968Y73740D02*
D03*
X87648Y73430D02*
D03*
X100898Y77290D02*
D03*
X93548Y75030D02*
D03*
X108678Y77670D02*
D03*
X103774Y78230D02*
D03*
X87153Y77275D02*
D03*
X87493Y77615D02*
D03*
X113038Y91050D02*
D03*
X112228D02*
D03*
X99190Y75178D02*
D03*
X87978Y75190D02*
D03*
X114148Y89220D02*
D03*
X111298Y90150D02*
D03*
X111308Y89630D02*
D03*
X110658Y88640D02*
D03*
X113988Y91130D02*
D03*
X113658Y93030D02*
D03*
X85583Y73320D02*
D03*
X80803Y73455D02*
D03*
X108663Y73465D02*
D03*
X100818Y73720D02*
D03*
X102478Y75270D02*
D03*
X102468Y74970D02*
D03*
X107208Y74710D02*
D03*
Y75050D02*
D03*
X99028Y73590D02*
D03*
X105578Y77570D02*
D03*
X103628Y77160D02*
D03*
X99978Y76150D02*
D03*
X102868Y73430D02*
D03*
X99028Y72700D02*
D03*
X92918Y92850D02*
D03*
X90568Y91170D02*
D03*
X95618Y95020D02*
D03*
X94578Y94340D02*
D03*
X94778Y94020D02*
D03*
X94058Y90520D02*
D03*
X99638Y88490D02*
D03*
X99838Y88660D02*
D03*
X100088D02*
D03*
X100318Y88620D02*
D03*
X87718Y92460D02*
D03*
X86588Y94460D02*
D03*
X87178D02*
D03*
X97208Y81690D02*
D03*
X97708Y81680D02*
D03*
X96258Y89370D02*
D03*
X96818Y89300D02*
D03*
X97128Y89340D02*
D03*
X97548D02*
D03*
X97958D02*
D03*
X90748Y82940D02*
D03*
X90768Y82660D02*
D03*
X90778Y82340D02*
D03*
X90748Y82020D02*
D03*
X90728Y81700D02*
D03*
X90418Y86250D02*
D03*
Y86760D02*
D03*
Y87000D02*
D03*
X86288Y90930D02*
D03*
X84238Y85010D02*
D03*
Y85230D02*
D03*
X96578Y85770D02*
D03*
X96588Y86000D02*
D03*
Y86220D02*
D03*
Y86460D02*
D03*
Y86700D02*
D03*
Y86930D02*
D03*
Y87170D02*
D03*
X96578Y87410D02*
D03*
Y87700D02*
D03*
X96348Y85890D02*
D03*
X96338Y86120D02*
D03*
X96348Y86350D02*
D03*
Y86580D02*
D03*
Y86810D02*
D03*
Y87050D02*
D03*
Y87290D02*
D03*
Y87530D02*
D03*
X96108Y85890D02*
D03*
Y86120D02*
D03*
Y86350D02*
D03*
Y86580D02*
D03*
X96118Y86810D02*
D03*
Y87050D02*
D03*
Y87290D02*
D03*
Y87530D02*
D03*
X105798Y87460D02*
D03*
X106118Y87260D02*
D03*
X106508Y86940D02*
D03*
X106838Y86100D02*
D03*
X106868Y85580D02*
D03*
X106888Y85220D02*
D03*
X106838Y84860D02*
D03*
Y84340D02*
D03*
X106818Y84020D02*
D03*
X106838Y83580D02*
D03*
X108088Y86550D02*
D03*
X108118Y85980D02*
D03*
X108058Y85250D02*
D03*
Y84600D02*
D03*
X108038Y83560D02*
D03*
X107988Y82940D02*
D03*
X108528Y88840D02*
D03*
X100838Y90460D02*
D03*
X100138Y89620D02*
D03*
X99258Y88530D02*
D03*
X99208Y89260D02*
D03*
X99908Y90710D02*
D03*
X99098Y90700D02*
D03*
X98318Y89340D02*
D03*
X95768Y90380D02*
D03*
X92448Y93030D02*
D03*
X87588Y92900D02*
D03*
X89658Y84790D02*
D03*
X90608Y80720D02*
D03*
X106998Y88960D02*
D03*
X107678Y82490D02*
D03*
X107828Y87490D02*
D03*
X93108Y84340D02*
D03*
Y84080D02*
D03*
X90418Y86020D02*
D03*
Y86490D02*
D03*
X91538Y87520D02*
D03*
Y87820D02*
D03*
X84098Y87070D02*
D03*
Y87370D02*
D03*
X88088Y85800D02*
D03*
Y85570D02*
D03*
Y85350D02*
D03*
X90018Y86670D02*
D03*
X89658Y85000D02*
D03*
Y85200D02*
D03*
X85808Y86820D02*
D03*
Y86610D02*
D03*
Y86400D02*
D03*
X84238Y85440D02*
D03*
X89668Y88840D02*
D03*
Y89050D02*
D03*
Y88620D02*
D03*
X88078Y88810D02*
D03*
Y89330D02*
D03*
X85808Y88140D02*
D03*
Y88350D02*
D03*
Y88570D02*
D03*
X84248Y89230D02*
D03*
Y89030D02*
D03*
Y88830D02*
D03*
X95828Y81210D02*
D03*
X85778Y92730D02*
D03*
X96998Y95020D02*
D03*
X108238Y91650D02*
D03*
X108628Y91130D02*
D03*
X108678Y90680D02*
D03*
X94308Y82250D02*
D03*
X94358Y82810D02*
D03*
X95418Y82610D02*
D03*
X95428Y82930D02*
D03*
X99768Y93030D02*
D03*
X98958Y93810D02*
D03*
X99688Y91780D02*
D03*
X97688Y93250D02*
D03*
X95608Y94420D02*
D03*
X93978Y94280D02*
D03*
X94388Y93170D02*
D03*
X81988Y87450D02*
D03*
X101768Y92660D02*
D03*
X102268Y92630D02*
D03*
X99448Y91780D02*
D03*
X97618Y93860D02*
D03*
X84568Y91340D02*
D03*
X84528Y82010D02*
D03*
X84958Y82890D02*
D03*
X84328Y82610D02*
D03*
X91108Y81020D02*
D03*
X90748Y81350D02*
D03*
X94168Y80950D02*
D03*
X97988Y81680D02*
D03*
X97448Y81690D02*
D03*
X95338Y81260D02*
D03*
X95018Y81250D02*
D03*
X94398Y81580D02*
D03*
X92468Y82770D02*
D03*
X91778Y83210D02*
D03*
X90748Y83300D02*
D03*
X91318Y83210D02*
D03*
X93518Y82850D02*
D03*
X93138Y83290D02*
D03*
X94808Y92250D02*
D03*
X95448D02*
D03*
X96018D02*
D03*
X95828Y80590D02*
D03*
X108618Y87430D02*
D03*
X100038Y91030D02*
D03*
X100028Y91780D02*
D03*
X100288Y92260D02*
D03*
X101328D02*
D03*
X101728Y81900D02*
D03*
X101218Y88590D02*
D03*
X103718Y82500D02*
D03*
Y88600D02*
D03*
X101478Y91820D02*
D03*
X105028Y91300D02*
D03*
X105358Y91630D02*
D03*
X89728Y83500D02*
D03*
X89868Y80420D02*
D03*
X85238Y82010D02*
D03*
X101668Y89780D02*
D03*
X102928D02*
D03*
X96558Y88510D02*
D03*
X96148Y88660D02*
D03*
X97968Y92150D02*
D03*
X95578Y88900D02*
D03*
X95698Y89740D02*
D03*
X90728Y91330D02*
D03*
X82018D02*
D03*
X92428Y89820D02*
D03*
X84098Y87670D02*
D03*
X83028Y88380D02*
D03*
X86398Y91530D02*
D03*
X92438Y90620D02*
D03*
X92218Y92700D02*
D03*
X92448D02*
D03*
X88338Y81050D02*
D03*
X88398Y81630D02*
D03*
X89088Y84360D02*
D03*
X87848Y83630D02*
D03*
X88408Y83090D02*
D03*
Y83630D02*
D03*
X87078Y81920D02*
D03*
X87178Y82570D02*
D03*
X89358Y84220D02*
D03*
X88798Y80420D02*
D03*
X107768Y94480D02*
D03*
X108648Y89750D02*
D03*
X108328Y87160D02*
D03*
X107778Y89300D02*
D03*
X108748Y90130D02*
D03*
X108528Y82210D02*
D03*
X105588Y85110D02*
D03*
X105608Y84780D02*
D03*
Y84380D02*
D03*
X105578Y85500D02*
D03*
Y85870D02*
D03*
X105208Y85120D02*
D03*
X105228Y84790D02*
D03*
Y84390D02*
D03*
X105198Y85510D02*
D03*
Y85880D02*
D03*
X104848Y85140D02*
D03*
X104868Y84810D02*
D03*
Y84410D02*
D03*
X104838Y85530D02*
D03*
Y85900D02*
D03*
X105968Y85110D02*
D03*
X105988Y84780D02*
D03*
Y84380D02*
D03*
X105958Y85500D02*
D03*
Y85870D02*
D03*
X106318Y85120D02*
D03*
X106338Y84790D02*
D03*
Y84390D02*
D03*
X106308Y85510D02*
D03*
Y85880D02*
D03*
X98858Y80740D02*
D03*
X103568Y89080D02*
D03*
X102108Y88790D02*
D03*
X104218Y82350D02*
D03*
Y88600D02*
D03*
X91278Y83850D02*
D03*
X94058Y90770D02*
D03*
Y90250D02*
D03*
Y89970D02*
D03*
X95738Y86150D02*
D03*
Y86440D02*
D03*
Y87290D02*
D03*
Y87010D02*
D03*
Y86720D02*
D03*
X95468Y86150D02*
D03*
Y86440D02*
D03*
Y87290D02*
D03*
Y87010D02*
D03*
Y86720D02*
D03*
X95158Y86140D02*
D03*
Y86430D02*
D03*
Y87280D02*
D03*
Y87000D02*
D03*
Y86710D02*
D03*
X94848Y86150D02*
D03*
Y86440D02*
D03*
Y87290D02*
D03*
Y87010D02*
D03*
Y86720D02*
D03*
X94568Y86150D02*
D03*
Y86440D02*
D03*
Y87290D02*
D03*
Y87010D02*
D03*
Y86720D02*
D03*
X94268Y86150D02*
D03*
Y86440D02*
D03*
Y87290D02*
D03*
Y87010D02*
D03*
Y86720D02*
D03*
X93958Y86150D02*
D03*
Y86440D02*
D03*
Y87290D02*
D03*
Y87010D02*
D03*
Y86720D02*
D03*
X93648Y86150D02*
D03*
Y86440D02*
D03*
Y87290D02*
D03*
Y87010D02*
D03*
Y86720D02*
D03*
X93348Y86150D02*
D03*
Y86440D02*
D03*
Y87290D02*
D03*
Y87010D02*
D03*
Y86720D02*
D03*
X93038Y86150D02*
D03*
Y86440D02*
D03*
Y87290D02*
D03*
Y87010D02*
D03*
Y86720D02*
D03*
X92738Y86150D02*
D03*
Y86440D02*
D03*
Y87290D02*
D03*
Y87010D02*
D03*
Y86720D02*
D03*
X92458Y86150D02*
D03*
Y86440D02*
D03*
Y87290D02*
D03*
Y87010D02*
D03*
Y86720D02*
D03*
X103218Y82480D02*
D03*
Y88600D02*
D03*
X95228Y83160D02*
D03*
X93958Y83200D02*
D03*
X107728Y81930D02*
D03*
X94758Y80570D02*
D03*
X96928Y81000D02*
D03*
X96388Y80990D02*
D03*
X96678Y84920D02*
D03*
X89768Y83790D02*
D03*
X100338Y91750D02*
D03*
X98968Y88980D02*
D03*
X98628Y88690D02*
D03*
X98118Y90290D02*
D03*
X95318Y89080D02*
D03*
X85228Y90940D02*
D03*
X88078Y89070D02*
D03*
X83908Y86480D02*
D03*
X86868Y94460D02*
D03*
X100578Y88660D02*
D03*
X100638Y91170D02*
D03*
X96408Y92300D02*
D03*
X99328Y93530D02*
D03*
X87858Y83100D02*
D03*
X107108Y82330D02*
D03*
X100918Y88780D02*
D03*
X99548Y88240D02*
D03*
X106788Y86650D02*
D03*
X106618Y83250D02*
D03*
X103618Y93730D02*
D03*
X107138Y91530D02*
D03*
X93118Y91860D02*
D03*
X91908Y90490D02*
D03*
X92558Y93840D02*
D03*
X92798D02*
D03*
X91158D02*
D03*
X90818Y92790D02*
D03*
X85658Y92260D02*
D03*
X86078Y93100D02*
D03*
X94928Y90390D02*
D03*
X101758Y92000D02*
D03*
X100508D02*
D03*
D143*
X103688Y75480D02*
D03*
Y74370D02*
D03*
X104798D02*
D03*
Y75480D02*
D03*
D144*
X105258Y92260D02*
D03*
Y94230D02*
D03*
D145*
X81308Y93230D02*
D03*
D146*
X94182Y88070D02*
D03*
X92015D02*
D03*
X92212D02*
D03*
X92409D02*
D03*
X92606Y88070D02*
D03*
X92803D02*
D03*
X93000D02*
D03*
X93197D02*
D03*
X93394Y88070D02*
D03*
X93591D02*
D03*
X93788D02*
D03*
X93985D02*
D03*
X94379Y88070D02*
D03*
X94576Y88070D02*
D03*
X94773D02*
D03*
X94970Y88070D02*
D03*
X95167D02*
D03*
X95364D02*
D03*
X95561D02*
D03*
X95758Y88070D02*
D03*
X95955D02*
D03*
X96152D02*
D03*
X96349D02*
D03*
X91818Y85390D02*
D03*
X92015D02*
D03*
X92212Y85390D02*
D03*
X92409Y85390D02*
D03*
X92606D02*
D03*
X92803D02*
D03*
X93000D02*
D03*
X93197D02*
D03*
X93394D02*
D03*
X93591D02*
D03*
X93788D02*
D03*
X93985D02*
D03*
X94182Y85390D02*
D03*
X94379D02*
D03*
X94576D02*
D03*
X94773D02*
D03*
X94970D02*
D03*
X95167D02*
D03*
X95364D02*
D03*
X95561D02*
D03*
X95758Y85390D02*
D03*
X95955D02*
D03*
X96152D02*
D03*
X96349D02*
D03*
D147*
X91818Y88070D02*
D03*
D148*
X94088Y86720D02*
D03*
M02*
